<?xml version="1.0" encoding="UTF-8"?>
<svg width="52px" height="42px" viewBox="0 0 52 42" version="1.1" xmlns="http://www.w3.org/2000/svg" xmlns:xlink="http://www.w3.org/1999/xlink">
    <!-- Generator: Sketch 47.1 (45422) - http://www.bohemiancoding.com/sketch -->
    <title>Page 1</title>
    <desc>Created with Sketch.</desc>
    <defs></defs>
    <g id="final" stroke="none" stroke-width="1" fill="none" fill-rule="evenodd">
        <g id="main_1440" transform="translate(-306.000000, -986.000000)" stroke-width="0.5" stroke="#34C9BE" fill="#34C9BE">
            <g id="info" transform="translate(149.000000, 858.000000)">
                <g id="Group-2" transform="translate(0.000000, 105.000000)">
                    <g id="1">
                        <g id="Page-1" transform="translate(158.000000, 24.000000)">
                            <path d="M30.065063,29.2151556 C25.1946185,29.2151556 20.2575815,29.4677481 15.3940259,29.2151556 C-2.42867778,28.2908963 -2.04404815,2.6848963 15.7178037,1.85134074 C21.4585444,1.58152593 27.3278778,1.73422963 33.0743593,1.85134074 C38.0469889,1.95237778 42.5362481,3.29685926 45.6075444,7.52663704 C51.3448407,15.4293407 47.0725815,25.8143407 38.1353963,28.7536 C37.087137,29.0980444 37.5372111,30.7617111 38.5946556,30.4138222 C51.688137,26.1082667 54.3369148,7.70000741 41.0436556,1.54593333 C37.3087296,-0.183177778 33.2925074,0.129118519 29.3015444,0.129118519 C24.7089519,0.129118519 20.0646926,-0.0775481481 15.4766926,0.129118519 C3.24776667,0.68022963 -4.66067778,14.3718963 3.05832222,24.7167111 C9.28358148,33.0637481 20.9705815,30.9373778 30.065063,30.9373778 C31.1730259,30.9373778 31.1753222,29.2151556 30.065063,29.2151556" id="Fill-1"></path>
                            <path d="M35.7799704,39.5931519 C36.2220074,40.1718185 37.1141185,40.1465593 37.3540815,39.3876333 C38.3621556,36.2084111 39.3943407,32.9568556 39.225563,29.5835963 C39.1704519,28.4802259 37.4482296,28.4744852 37.5033407,29.5835963 C37.6652296,32.8075963 36.0299838,38.414809 36.5546875,38.3459201 C34.3020208,35.3894387 33.0611556,32.5986333 30.8084889,29.6421519 C30.1460074,28.7718556 28.6488222,29.6283741 29.321637,30.5113 C31.5743037,33.4677815 33.5273037,36.6366704 35.7799704,39.5931519 Z" id="Fill-4"></path>
                            <path d="M16.0170111,16.6111111 C17.1249741,16.6111111 17.1272704,14.8888889 16.0170111,14.8888889 C14.9090481,14.8888889 14.9067519,16.6111111 16.0170111,16.6111111" id="Fill-7"></path>
                            <path d="M24.819863,16.6111111 C25.9278259,16.6111111 25.9301222,14.8888889 24.819863,14.8888889 C23.7107519,14.8888889 23.7096037,16.6111111 24.819863,16.6111111" id="Fill-9"></path>
                            <path d="M32.0910852,16.6111111 C33.1990481,16.6111111 33.2013444,14.8888889 32.0910852,14.8888889 C30.9831222,14.8888889 30.9808259,16.6111111 32.0910852,16.6111111" id="Fill-11"></path>
                        </g>
                    </g>
                </g>
            </g>
        </g>
    </g>
</svg>