<?xml version="1.0" encoding="UTF-8"?>
<svg width="40px" height="40px" viewBox="0 0 40 40" version="1.1" xmlns="http://www.w3.org/2000/svg" xmlns:xlink="http://www.w3.org/1999/xlink">
    <!-- Generator: Sketch 47.1 (45422) - http://www.bohemiancoding.com/sketch -->
    <title>Page 1</title>
    <desc>Created with Sketch.</desc>
    <defs></defs>
    <g id="final" stroke="none" stroke-width="1" fill="none" fill-rule="evenodd">
        <g id="main_1440" transform="translate(-704.000000, -987.000000)" fill="#34C9BE">
            <g id="info" transform="translate(149.000000, 858.000000)">
                <g id="Group-2" transform="translate(0.000000, 105.000000)">
                    <g id="2" transform="translate(391.000000, 0.000000)">
                        <g id="Page-1" transform="translate(164.000000, 24.000000)">
                            <path d="M17.661101,0.620342857 C16.2441812,5.68492822 14.1569338,10.5347679 12.7410174,15.5993533 C12.479108,16.5335972 13.9301463,16.9319805 14.1920557,15.9997436 C15.6089756,10.9351582 17.696223,6.08531847 19.1121394,1.0207331 C19.3740488,0.0864891986 17.922007,-0.312897561 17.661101,0.620342857" id="Fill-1"></path>
                            <path d="M13.4658341,15.0469352 C9.25521394,15.4182244 5.15999443,16.5551721 0.949374216,16.9264613 C-0.00794982578,17.010754 -0.0169811847,18.516984 0.949374216,18.4316878 C5.16200139,18.0603986 9.25621742,16.9234509 13.4658341,16.5521617 C14.4231582,16.467869 14.4321895,14.961639 13.4658341,15.0469352" id="Fill-4"></path>
                            <path d="M0.570458537,18.3288307 C4.05857003,20.7913812 7.54668153,23.2539317 11.0357965,25.7154787 C11.8285491,26.275423 12.5811624,24.9708934 11.7954341,24.4159666 C8.30631916,21.953416 4.81820767,19.491869 1.33009617,17.0293185 C0.537343554,16.4693742 -0.216273171,17.7739038 0.570458537,18.3288307" id="Fill-7"></path>
                            <path d="M10.6631024,25.0656223 C10.4463498,29.755908 10.9330397,34.4341519 10.7162871,39.1244376 C10.6721338,40.0938035 12.1773603,40.090793 12.2215136,39.1244376 C12.4382662,34.4341519 11.9515763,29.755908 12.1683289,25.0656223 C12.2124822,24.0972599 10.7072557,24.1002704 10.6631024,25.0656223" id="Fill-9"></path>
                            <path d="M12.1183554,39.5043568 C14.9722648,35.7322592 18.1553171,32.4257784 21.8069965,29.4183359 C22.5555958,28.8021965 21.4858815,27.7425171 20.7433031,28.3546425 C16.9862578,31.4473812 13.7510244,34.8672557 10.8188432,38.7447192 C10.2348153,39.5174021 11.5413519,40.2680084 12.1183554,39.5043568" id="Fill-12"></path>
                            <path d="M20.7431024,29.4185366 C24.4208725,32.8695192 28.9776948,35.1654913 32.6534578,38.6154704 C33.3589073,39.27777 34.4266146,38.2160836 33.7181547,37.5507735 C30.0403847,34.0997909 25.4835624,31.8038188 21.8077993,28.3538397 C21.1013463,27.6915401 20.035646,28.75423 20.7431024,29.4185366" id="Fill-14"></path>
                            <path d="M33.9118272,37.8830272 C32.8641895,33.3834035 31.4864056,28.9710829 30.4387679,24.4714592 C30.2190049,23.528184 28.7679666,23.9275707 28.9877296,24.8718495 C30.0343638,29.3714732 31.4131512,33.7837937 32.4597854,38.2834174 C32.6785449,39.2256892 34.1315902,38.8273059 33.9118272,37.8830272" id="Fill-16"></path>
                            <path d="M30.2447944,25.2037017 C33.1789826,22.4762314 36.1131707,19.748761 39.0463554,17.0212906 C39.7568223,16.3599944 38.691122,15.2973045 37.9816585,15.9575972 C35.0474704,18.6840641 32.1142857,21.4115345 29.1800976,24.1390049 C28.4696307,24.800301 29.5363345,25.8629909 30.2447944,25.2037017" id="Fill-18"></path>
                            <path d="M38.5138063,15.7368307 C33.9128307,15.3504892 29.3359387,14.7433812 24.7349631,14.3570397 C23.7696111,14.2757575 23.7746286,15.780984 24.7349631,15.8622662 C29.3359387,16.2486077 33.9128307,16.8557157 38.5138063,17.2420571 C39.4791582,17.3233394 39.4741408,15.8171094 38.5138063,15.7368307" id="Fill-21"></path>
                            <path d="M25.3842174,14.7298341 C22.8413882,10.2713533 20.9417923,5.40746481 19.1124404,0.619841115 C18.7702523,-0.275266899 17.3141965,0.114085017 17.6614021,1.02023136 C19.5349073,5.92225226 21.4806634,10.9246216 24.0847052,15.4894718 C24.5653742,16.3303916 25.8648864,15.572761 25.3842174,14.7298341" id="Fill-23"></path>
                        </g>
                    </g>
                </g>
            </g>
        </g>
    </g>
</svg>