<?xml version="1.0" encoding="UTF-8"?>
<svg width="150px" height="118px" viewBox="0 0 150 118" version="1.1" xmlns="http://www.w3.org/2000/svg" xmlns:xlink="http://www.w3.org/1999/xlink">
    <!-- Generator: Sketch 47.1 (45422) - http://www.bohemiancoding.com/sketch -->
    <title>Group 7 Copy</title>
    <desc>Created with Sketch.</desc>
    <defs></defs>
    <g id="final" stroke="none" stroke-width="1" fill="none" fill-rule="evenodd">
        <g id="main_1440" transform="translate(-451.000000, -1879.000000)">
            <g id="how-it-works" transform="translate(0.000000, 1307.000000)">
                <g id="steps" transform="translate(155.000000, 143.000000)">
                    <g id="Group-7-Copy" transform="translate(379.041769, 505.741726) scale(1, -1) rotate(-140.000000) translate(-379.041769, -505.741726) translate(290.541769, 460.241726)">
                        <g id="Page-1" transform="translate(136.369565, 33.921834) rotate(-27.000000) translate(-136.369565, -33.921834) translate(101.369565, 13.921834)" fill="#B0B0B0">
                            <path d="M22.0267073,23.1576341 C37.8204146,15.9659268 53.614122,8.77534146 69.4078293,1.58363415 C70.3917805,1.13597561 69.5390976,-0.314707317 68.5596341,0.130707317 C52.7648049,7.32241463 36.9699756,14.513 21.1762683,21.7047073 C20.1923171,22.1523659 21.0472439,23.6030488 22.0267073,23.1576341" id="Fill-1"></path>
                            <path d="M20.8751366,22.8557171 C24.8322585,28.3981561 28.9004537,33.8609366 32.8586976,39.4033756 C33.4825024,40.2773756 34.942161,39.4370341 34.3116244,38.5540585 C30.3545024,33.0104976 26.2851854,27.548839 22.3280634,22.0064 C21.7042585,21.1324 20.2446,21.9716195 20.8751366,22.8557171" id="Fill-3"></path>
                            <path d="M34.1796829,39.573239 C45.9803659,26.8660195 57.7788049,14.159922 69.5794878,1.45270244 C70.3143659,0.659482927 69.1273415,-0.53315122 68.3879756,0.262312195 C56.5895366,12.9695317 44.7899756,25.6767512 32.9892927,38.3828488 C32.2532927,39.1760683 33.441439,40.3687024 34.1796829,39.573239" id="Fill-5"></path>
                            <path d="M68.759678,0.0464487805 C50.5021659,3.82069268 32.2704585,7.71947317 14.0107024,11.4937171 C12.9515805,11.7124976 13.399239,13.335961 14.4594829,13.1160585 C32.7169951,9.34293659 50.9487024,5.44303415 69.2073366,1.66879024 C70.2675805,1.45000976 69.8188,-0.172331707 68.759678,0.0464487805" id="Fill-8"></path>
                            <path d="M13.4828244,13.187639 C13.9686293,20.7641756 15.6111659,28.1802732 17.7193122,35.4594927 C18.0199951,36.4972976 19.6445805,36.0552488 19.3427756,35.0118341 C17.2772634,27.8784683 15.6414585,20.616078 15.1657512,13.187639 C15.0961902,12.1128098 13.4132634,12.1049561 13.4828244,13.187639" id="Fill-10"></path>
                            <path d="M13.8104341,11.578761 C9.28672683,14.4599317 4.76189756,17.3612976 0.387409756,20.4679805 C-0.488834146,21.0895415 0.351507317,22.5492 1.23672683,21.9209073 C5.61009268,18.8142244 10.1360439,15.9139805 14.6597512,13.0316878 C15.5696537,12.451639 14.7270683,10.9942244 13.8104341,11.578761" id="Fill-12"></path>
                            <path d="M0.811507317,22.0356829 C5.17477561,21.8819756 9.5380439,21.7293902 13.9013122,21.5756829 C14.9817512,21.5375366 14.986239,19.8546098 13.9013122,19.8927561 C9.5380439,20.0464634 5.17477561,20.1990488 0.811507317,20.3527561 C-0.267809756,20.3909024 -0.273419512,22.0738293 0.811507317,22.0356829" id="Fill-14"></path>
                            <path d="M19.1254537,35.830522 C21.6184293,33.643839 24.1102829,31.458278 26.6032585,29.2715951 C27.4189171,28.5557902 26.224039,27.3687659 25.4128683,28.0812049 C22.9210146,30.2678878 20.428039,32.4545707 17.9350634,34.6401317 C17.1205268,35.3559366 18.3142829,36.542961 19.1254537,35.830522" id="Fill-17"></path>
                        </g>
                        <g id="Page-1" transform="translate(0.000000, 20.317073)">
                            <path d="M71.1621122,41.4209805 C77.4394293,37.5771756 83.0211366,43.8376634 82.8808927,50.0734683 C82.7552341,55.6260049 79.056161,60.222639 74.4258683,62.9209317 C73.4946488,63.4628341 72.5331366,63.948639 71.5514293,64.3895659 C65.5938683,58.0875659 63.1547463,46.3239073 71.1621122,41.4209805 M30.2568927,22.3208829 C35.3056732,19.7583463 42.1989415,21.4973707 43.6126,27.4986878 C44.9948439,33.3653707 38.597478,37.5311756 33.7764537,39.016639 C30.1547951,40.1329805 26.3323073,40.2204927 22.6579171,39.4844927 C22.0206488,32.6551756 23.8954293,25.5487366 30.2568927,22.3208829 M116.619088,41.6487366 C115.399527,50.3158098 110.027624,57.4211268 102.865088,62.2432732 C95.7519171,67.031761 85.2818683,71.0517122 76.7651366,67.9764439 C75.1326976,67.3874195 73.5900146,66.3608341 72.2055268,65.0459073 C72.7709902,64.7945902 73.329722,64.5309317 73.8783561,64.247078 C81.586161,60.2776146 88.6869902,47.8980049 79.9593317,40.9845415 C76.5878683,38.3142976 71.9845024,39.0828341 68.9945024,41.9684927 C65.3391854,45.4947854 64.8937707,51.391761 65.9315756,56.082639 C66.6518683,59.3329317 68.200161,62.4328829 70.4620146,64.8484439 C54.3687463,71.3714683 32.8744049,64.8417122 25.2372829,48.9705902 C24.0379171,46.4753707 23.1538195,43.501078 22.7622585,40.4314195 C27.168161,41.2616634 31.7569415,40.9441512 35.9283561,39.1950293 C39.6487463,37.6343951 43.935722,34.5939073 44.623478,30.3159073 C45.2394293,26.4889317 42.7453317,22.6159561 39.3289902,21.0182976 C35.0723073,19.0279561 29.8888927,20.6783463 26.6576732,23.8074683 C22.7880634,27.5559073 21.4192829,33.2565415 21.6346976,38.4926878 C21.6459171,38.7541024 21.6649902,39.0110293 21.6818195,39.2702 C16.2953317,37.9653707 11.3015268,34.8844927 7.84142927,30.598639 C1.09962439,22.2434683 -0.247839024,10.8321024 1.71894146,0.56624878 C1.82777073,-0.00145853659 0.957136585,-0.244921951 0.847185366,0.32615122 C-1.24861951,11.2674195 0.337819512,23.5000537 7.93791707,32.1087854 C11.4933805,36.1343463 16.4591366,39.0065415 21.7626,40.2227366 C24.015478,62.7874195 51.5088927,73.3921024 71.1161122,65.5070293 C72.3682098,66.7007854 73.8099171,67.6959561 75.4322585,68.411761 C81.471722,71.0730293 88.6140634,69.7468829 94.5671366,67.513078 C105.797868,63.3001512 115.758551,54.1921512 117.489722,41.8888341 C117.570502,41.3200049 116.699868,41.0742976 116.619088,41.6487366" id="Fill-1" fill="#B0B0B0"></path>
                            <path d="M71.1621122,41.4209805 C77.4394293,37.5771756 83.0211366,43.8376634 82.8808927,50.0734683 C82.7552341,55.6260049 79.056161,60.222639 74.4258683,62.9209317 C73.4946488,63.4628341 72.5331366,63.948639 71.5514293,64.3895659 C65.5938683,58.0875659 63.1547463,46.3239073 71.1621122,41.4209805 Z M30.2568927,22.3208829 C35.3056732,19.7583463 42.1989415,21.4973707 43.6126,27.4986878 C44.9948439,33.3653707 38.597478,37.5311756 33.7764537,39.016639 C30.1547951,40.1329805 26.3323073,40.2204927 22.6579171,39.4844927 C22.0206488,32.6551756 23.8954293,25.5487366 30.2568927,22.3208829 Z M116.619088,41.6487366 C115.399527,50.3158098 110.027624,57.4211268 102.865088,62.2432732 C95.7519171,67.031761 85.2818683,71.0517122 76.7651366,67.9764439 C75.1326976,67.3874195 73.5900146,66.3608341 72.2055268,65.0459073 C72.7709902,64.7945902 73.329722,64.5309317 73.8783561,64.247078 C81.586161,60.2776146 88.6869902,47.8980049 79.9593317,40.9845415 C76.5878683,38.3142976 71.9845024,39.0828341 68.9945024,41.9684927 C65.3391854,45.4947854 64.8937707,51.391761 65.9315756,56.082639 C66.6518683,59.3329317 68.200161,62.4328829 70.4620146,64.8484439 C54.3687463,71.3714683 32.8744049,64.8417122 25.2372829,48.9705902 C24.0379171,46.4753707 23.1538195,43.501078 22.7622585,40.4314195 C27.168161,41.2616634 31.7569415,40.9441512 35.9283561,39.1950293 C39.6487463,37.6343951 43.935722,34.5939073 44.623478,30.3159073 C45.2394293,26.4889317 42.7453317,22.6159561 39.3289902,21.0182976 C35.0723073,19.0279561 29.8888927,20.6783463 26.6576732,23.8074683 C22.7880634,27.5559073 21.4192829,33.2565415 21.6346976,38.4926878 C21.6459171,38.7541024 21.6649902,39.0110293 21.6818195,39.2702 C16.2953317,37.9653707 11.3015268,34.8844927 7.84142927,30.598639 C1.09962439,22.2434683 -0.247839024,10.8321024 1.71894146,0.56624878 C1.82777073,-0.00145853659 0.957136585,-0.244921951 0.847185366,0.32615122 C-1.24861951,11.2674195 0.337819512,23.5000537 7.93791707,32.1087854 C11.4933805,36.1343463 16.4591366,39.0065415 21.7626,40.2227366 C24.015478,62.7874195 51.5088927,73.3921024 71.1161122,65.5070293 C72.3682098,66.7007854 73.8099171,67.6959561 75.4322585,68.411761 C81.471722,71.0730293 88.6140634,69.7468829 94.5671366,67.513078 C105.797868,63.3001512 115.758551,54.1921512 117.489722,41.8888341 C117.570502,41.3200049 116.699868,41.0742976 116.619088,41.6487366 Z" id="Stroke-3" stroke="#B0B0B0" stroke-linecap="round"></path>
                        </g>
                    </g>
                </g>
            </g>
        </g>
    </g>
</svg>