<?xml version="1.0" encoding="UTF-8"?>
<svg width="194px" height="157px" viewBox="0 0 194 157" version="1.1" xmlns="http://www.w3.org/2000/svg" xmlns:xlink="http://www.w3.org/1999/xlink">
    <!-- Generator: Sketch 47.1 (45422) - http://www.bohemiancoding.com/sketch -->
    <title>Page 1</title>
    <desc>Created with Sketch.</desc>
    <defs></defs>
    <g id="final" stroke="none" stroke-width="1" fill="none" fill-rule="evenodd">
        <g id="main_1440" transform="translate(-442.000000, -1612.000000)">
            <g id="how-it-works" transform="translate(0.000000, 1299.000000)">
                <g id="steps" transform="translate(155.000000, 151.000000)">
                    <g id="Group-12" transform="translate(287.000000, 162.000000)">
                        <g id="Page-1">
                            <path d="M193.454616,69.0072277 C193.454616,107.11857 156.939785,138.014119 111.895673,138.014119 C66.8515602,138.014119 30.3358892,107.11857 30.3358892,69.0072277 C30.3358892,30.8958857 66.8515602,0.000335930736 111.895673,0.000335930736 C156.939785,0.000335930736 193.454616,30.8958857 193.454616,69.0072277" id="Fill-1" fill-opacity="0.6" fill="#FCD398"></path>
                            <path d="M163.118307,75.6430355 C163.118307,113.754377 126.603476,144.649927 81.5593636,144.649927 C36.5152511,144.649927 -0.00041991342,113.754377 -0.00041991342,75.6430355 C-0.00041991342,37.5316935 36.5152511,6.63614372 81.5593636,6.63614372 C126.603476,6.63614372 163.118307,37.5316935 163.118307,75.6430355" id="Fill-4" fill="#FCD398"></path>
                            <path d="M173.544002,48.8694398 C169.76982,34.1514745 159.929569,23.1749377 146.418435,16.5596216 C132.096868,9.54706753 115.573274,6.68073853 99.8214823,5.20012381 C82.8023913,3.60025368 65.2340537,4.86167359 49.4881403,11.9498121 C35.9450926,18.0461152 24.429387,28.3692667 18.5170061,42.1558641 C12.508045,56.1692147 12.3812312,72.2787732 16.3393351,86.8590069 C20.8030147,103.292739 30.3980364,118.292046 46.4160537,125.30544 C50.4782961,127.083353 54.7118632,128.231397 59.0957593,128.863786 C62.8472658,129.405474 65.7665039,129.517171 68.5379325,132.600176 C69.9110494,134.127821 70.8138632,136.338245 71.9761835,138.043094 C77.008426,145.426011 83.5481576,151.596219 91.1301143,156.300929 C92.1059931,156.907284 93.1322615,155.91041 92.9391013,154.910176 C91.1981403,145.886236 88.5694823,137.28557 84.8826424,128.866306 C84.5223567,128.044955 83.1030494,128.633674 83.4205039,129.482739 C86.2423221,137.000029 88.4695429,144.70376 90.0097853,152.576297 C84.3258372,148.581241 79.2717593,143.843777 75.1666857,138.179145 C71.5839844,133.232565 69.9228069,127.791327 63.2940537,126.755821 C55.9749628,125.611977 49.5351706,124.484929 42.9820017,120.727544 C35.6242788,116.509094 29.8361922,110.351483 25.6429368,103.013076 C10.5067377,76.528297 12.7793091,39.7967905 38.6568935,20.9695524 C64.6318978,2.070929 101.242469,4.93641818 130.58014,13.3061325 C143.642807,17.0324442 156.842365,23.3177082 164.67795,34.8896823 C173.98743,48.6368078 175.173266,68.0174918 170.518945,83.6273532 C165.385924,100.848842 152.104062,114.115587 135.366313,120.283275 C119.563292,126.106635 102.332565,126.2746 85.7023134,126.152825 C84.0579325,126.141068 84.0562528,128.695821 85.7023134,128.707578 C116.529837,128.936011 151.519543,125.892479 168.16827,95.8191195 C175.961863,81.7436216 177.517223,64.3659247 173.544002,48.8694398" id="Fill-7" fill="#FFFFFF"></path>
                        </g>
                    </g>
                </g>
            </g>
        </g>
    </g>
</svg>