<?xml version="1.0" encoding="UTF-8"?>
<svg width="185px" height="155px" viewBox="0 0 185 155" version="1.1" xmlns="http://www.w3.org/2000/svg" xmlns:xlink="http://www.w3.org/1999/xlink">
    <!-- Generator: Sketch 47.1 (45422) - http://www.bohemiancoding.com/sketch -->
    <title>Page 1</title>
    <desc>Created with Sketch.</desc>
    <defs></defs>
    <g id="final" stroke="none" stroke-width="1" fill="none" fill-rule="evenodd">
        <g id="main_1440" transform="translate(-155.000000, -1450.000000)">
            <g id="how-it-works" transform="translate(0.000000, 1299.000000)">
                <g id="steps" transform="translate(155.000000, 151.000000)">
                    <g id="Group-13">
                        <g id="Page-1">
                            <path d="M184.482,65.5218168 C184.482,101.708455 149.811246,131.043713 107.041957,131.043713 C64.2726681,131.043713 29.6011164,101.708455 29.6011164,65.5218168 C29.6011164,29.3351789 64.2726681,-7.97413793e-05 107.041957,-7.97413793e-05 C149.811246,-7.97413793e-05 184.482,29.3351789 184.482,65.5218168" id="Fill-1" fill-opacity="0.6" fill="#FCD398"></path>
                            <path d="M155.677739,71.8229009 C155.677739,108.009539 121.006985,137.344797 78.2376961,137.344797 C35.4684073,137.344797 0.796855603,108.009539 0.796855603,71.8229009 C0.796855603,35.6362629 35.4684073,6.30100431 78.2376961,6.30100431 C121.006985,6.30100431 155.677739,35.6362629 155.677739,71.8229009" id="Fill-4" fill="#FCD398"></path>
                            <path d="M159.63331,91.6199741 C152.092966,104.382582 139.276931,117.122862 123.752082,118.267948 C122.825487,118.336526 122.452297,119.229629 122.630121,119.915405 C114.687879,129.790578 107.76553,140.936828 98.8097759,149.959565 C100.111953,140.406547 101.834366,130.908552 103.000185,121.344371 C103.014539,121.220772 103.000983,121.110728 102.967491,121.013444 C103.369388,120.470405 103.061586,119.400276 102.236263,119.474435 C77.6368448,121.683272 51.004819,114.244996 36.2662198,93.1278836 C21.9877284,72.6694353 22.2429009,44.8293276 39.548375,26.2862672 C57.2230517,7.34848707 85.2290216,-0.315456897 110.452017,3.28725862 C136.371953,6.98965086 161.595746,22.8215043 167.128203,49.8657931 C170.062685,64.2120647 167.038892,79.0854267 159.63331,91.6199741 M124.672297,4.03842241 C98.1869957,-4.32325862 67.4722112,0.348788793 45.4731595,17.5920647 C24.4597112,34.063444 17.778181,60.961806 29.0001853,85.3044569 C41.4238922,112.257043 72.7303578,125.384866 101.233116,121.482323 C98.6120172,131.848703 97.2731595,142.648078 95.9494526,153.242517 C95.8099052,154.362884 97.3273836,154.737668 98.0203362,154.100534 C108.265509,144.683875 116.640746,132.127 124.790315,120.907388 C124.869259,120.79894 124.915509,120.687302 124.945013,120.575664 C150.798763,117.812625 169.414388,88.087431 170.620875,64.0095216 C172.094496,34.5969138 151.584216,12.5356638 124.672297,4.03842241" id="Fill-7" fill="#FFFFFF"></path>
                        </g>
                    </g>
                </g>
            </g>
        </g>
    </g>
</svg>