<?xml version="1.0" encoding="UTF-8"?>
<svg width="195px" height="160px" viewBox="0 0 195 160" version="1.1" xmlns="http://www.w3.org/2000/svg" xmlns:xlink="http://www.w3.org/1999/xlink">
    <!-- Generator: Sketch 47.1 (45422) - http://www.bohemiancoding.com/sketch -->
    <title>Page 1</title>
    <desc>Created with Sketch.</desc>
    <defs></defs>
    <g id="final" stroke="none" stroke-width="1" fill="none" fill-rule="evenodd">
        <g id="main_1440" transform="translate(-228.000000, -1859.000000)">
            <g id="how-it-works" transform="translate(0.000000, 1299.000000)">
                <g id="steps" transform="translate(155.000000, 151.000000)">
                    <g id="Group-6" transform="translate(73.000000, 409.000000)">
                        <g id="Group-16">
                            <g id="Page-1">
                                <path d="M194.454,76.0351228 C194.454,114.178636 157.909151,145.099584 112.828009,145.099584 C67.7468664,145.099584 31.2011767,114.178636 31.2011767,76.0351228 C31.2011767,37.8924504 67.7468664,6.97150216 112.828009,6.97150216 C157.909151,6.97150216 194.454,37.8924504 194.454,76.0351228" id="Fill-1" fill-opacity="0.6" fill="#FCD398"></path>
                                <path d="M164.092752,82.6771422 C164.092752,120.819815 127.547903,151.740763 82.4667608,151.740763 C37.3856185,151.740763 0.839928879,120.819815 0.839928879,82.6771422 C0.839928879,44.5336293 37.3856185,13.6135216 82.4667608,13.6135216 C127.547903,13.6135216 164.092752,44.5336293 164.092752,82.6771422" id="Fill-4" fill="#FCD398"></path>
                                <path d="M141.177142,133.906836 C140.497164,134.188409 140.262659,134.848216 140.345871,135.429853 C140.309728,135.551728 140.299642,135.682009 140.359319,135.826578 C143.195224,142.633927 146.106776,149.403453 149.056991,156.160371 C145.811754,154.720565 142.683349,153.059703 139.718004,151.076082 C136.276086,148.773065 133.453629,145.511858 129.932703,143.383668 C127.381733,141.842159 124.914815,141.867375 122.020914,142.138022 C117.273672,142.581815 112.554168,143.042418 107.783392,143.190349 C89.8383491,143.747612 69.5886078,143.046621 52.4739957,137.200823 C23.1466681,127.183539 6.99444828,93.9133448 13.5698147,64.3271379 C20.5990603,32.6951121 48.2075302,9.78849569 79.5579828,4.60334483 C112.62225,-0.865060345 150.85906,9.828 167.650073,40.6917931 C176.594017,57.1323103 182.175052,78.8235388 176.388931,97.116556 C171.055849,113.977332 157.31003,127.236491 141.177142,133.906836 M177.33031,57.6122457 C172.732681,42.1215129 164.416603,27.2124181 151.31378,17.3733233 C137.25781,6.81978879 118.789966,1.94815086 101.445052,0.98912069 C67.9176595,-0.865060345 34.4844052,14.6197888 18.3237802,44.8296595 C3.64918966,72.2633017 8.26867241,107.027095 31.9292328,128.01481 C47.0484569,141.426944 66.9308922,143.799724 86.3569267,145.201707 C98.3830474,146.069121 110.034297,145.38494 122.020914,144.644444 C126.605095,144.36119 128.950138,145.640457 132.383651,148.576384 C134.090741,150.036362 135.857509,151.423216 137.709168,152.699121 C141.847034,155.550996 146.309341,157.764918 150.999427,159.545134 C152.068565,159.950263 152.725009,158.638216 152.339211,157.801901 C149.009922,150.58606 145.629362,143.399638 142.173155,136.245155 C156.112293,130.40356 168.168672,120.185392 175.180267,106.665672 C183.214772,91.1715776 182.181776,73.9594655 177.33031,57.6122457" id="Fill-7" fill="#FFFFFF"></path>
                            </g>
                        </g>
                    </g>
                </g>
            </g>
        </g>
    </g>
</svg>