<?xml version="1.0" encoding="UTF-8"?>
<svg width="49px" height="40px" viewBox="0 0 49 40" version="1.1" xmlns="http://www.w3.org/2000/svg" xmlns:xlink="http://www.w3.org/1999/xlink">
    <!-- Generator: Sketch 47.1 (45422) - http://www.bohemiancoding.com/sketch -->
    <title>Page 1</title>
    <desc>Created with Sketch.</desc>
    <defs></defs>
    <g id="final" stroke="none" stroke-width="1" fill="none" fill-rule="evenodd">
        <g id="main_1440" transform="translate(-1090.000000, -987.000000)" fill="#34C9BE">
            <g id="info" transform="translate(149.000000, 858.000000)">
                <g id="Group-2" transform="translate(0.000000, 105.000000)">
                    <g id="3" transform="translate(781.000000, 0.000000)">
                        <g id="Page-1" transform="translate(160.000000, 24.000000)">
                            <path d="M0.00190662021,9.85781742 C0.553822997,19.6187094 1.08366272,29.3806049 1.63658258,39.1414969 C1.69177422,40.1048418 3.1970007,40.1098592 3.14180906,39.1414969 C2.5888892,29.3806049 2.05904948,19.6187094 1.5071331,9.85781742 C1.45194146,8.89547596 -0.0532850174,8.88845157 0.00190662021,9.85781742" id="Fill-1"></path>
                            <path d="M2.38909547,39.8938091 C17.3590746,39.7733909 32.3270467,39.4873979 47.2980293,39.3679833 C48.2663916,39.3599554 48.2683986,37.8547289 47.2980293,37.8627568 C32.3270467,37.9821714 17.3590746,38.2681645 2.38909547,38.3885826 C1.4207331,38.3966105 1.41872613,39.9018369 2.38909547,39.8938091" id="Fill-3"></path>
                            <path d="M48.0505422,38.6149686 C48.4800334,28.7707875 47.5809115,18.9376446 45.8759916,9.24398606 C45.7084098,8.29167944 44.2573714,8.69608362 44.4239498,9.64437631 C46.106793,19.2085854 46.9687861,28.9042509 46.5453157,38.6149686 C46.5031693,39.583331 48.0083958,39.581324 48.0505422,38.6149686" id="Fill-6"></path>
                            <path d="M0.754519861,10.6104307 C15.5057394,9.19250732 30.3733631,9.10119024 45.1496697,10.1969951 C46.1160251,10.2682425 46.1110077,8.76301603 45.1496697,8.69176864 C30.3733631,7.59596376 15.5057394,7.68728084 0.754519861,9.10520418 C-0.201800697,9.19752474 -0.210832056,10.7037547 0.754519861,10.6104307" id="Fill-8"></path>
                            <path d="M13.9546537,8.80686829 C14.1964934,6.24095889 15.2290787,3.90986481 16.9480474,1.99220627 C17.5932878,1.27270801 16.5316014,0.205000697 15.884354,0.927509408 C13.8824028,3.16026202 12.7304028,5.82350941 12.4494272,8.80686829 C12.3581101,9.77021324 13.8643401,9.76419233 13.9546537,8.80686829" id="Fill-10"></path>
                            <path d="M16.4143944,2.17885436 C21.4639275,1.9841784 26.5124571,1.78950244 31.5619902,1.59482648 C32.5283456,1.55769756 32.5323596,0.0524710801 31.5619902,0.0896 C26.5124571,0.284275958 21.4639275,0.478951916 16.4143944,0.673627875 C15.4490425,0.710756794 15.4440251,2.21698676 16.4143944,2.17885436" id="Fill-12"></path>
                            <path d="M30.9119331,1.22243345 C32.4984418,3.43310941 33.5179819,5.88562509 34.056853,8.54786899 C34.2485185,9.49616167 35.6995568,9.09476794 35.5078913,8.14747875 C34.9469436,5.37585505 33.8631805,2.76378537 32.2124488,0.462795819 C31.651501,-0.317914983 30.3459679,0.433694774 30.9119331,1.22243345" id="Fill-15"></path>
                            <path d="M24.9547484,13.740499 C19.6673895,13.4223944 14.2726578,17.4985477 13.7829575,22.9534885 C13.3313895,27.9709101 17.2439749,32.8458369 22.1700794,33.7088334 C27.5708321,34.6561226 33.0388181,30.4635652 33.8947902,25.1260321 C34.8029436,19.4603596 30.4377868,14.8654049 25.1544418,13.767593 C24.2101631,13.5709101 23.8047554,15.0219484 24.7550551,15.2186314 C29.1473059,16.1318021 32.7738983,19.5677324 32.4437519,24.3081923 C32.1286578,28.8248753 27.7123233,32.5959693 23.2056753,32.3370704 C18.5394732,32.0691401 14.4051178,27.0216139 15.3714732,22.3845129 C16.2836404,18.0063108 20.6106648,14.983816 24.9547484,15.2457254 C25.9221073,15.3039275 25.9190969,13.798701 24.9547484,13.740499" id="Fill-17"></path>
                            <path d="M22.9056334,18.6250592 C18.4260794,20.1232613 17.913299,26.2655889 22.3497031,28.2153589 C23.2287554,28.6017003 23.9964209,27.3051986 23.1103443,26.9158467 C19.9573965,25.5300348 19.9042118,21.2150523 23.3050202,20.0760976 C24.2201979,19.7710383 23.8278355,18.3159861 22.9056334,18.6250592" id="Fill-19"></path>
                            <path d="M26.3472836,27.0924599 C27.315646,27.0924599 27.317653,25.5872334 26.3472836,25.5872334 C25.3789213,25.5872334 25.3769143,27.0924599 26.3472836,27.0924599" id="Fill-21"></path>
                        </g>
                    </g>
                </g>
            </g>
        </g>
    </g>
</svg>