<?xml version="1.0" encoding="utf-8"?>
<!-- Generator: Adobe Illustrator 21.0.0, SVG Export Plug-In . SVG Version: 6.00 Build 0)  -->
<svg version="1.1" id="Layer_1" xmlns="http://www.w3.org/2000/svg" xmlns:xlink="http://www.w3.org/1999/xlink" x="0px" y="0px"
	 viewBox="0 0 22 21" style="enable-background:new 0 0 22 21;" xml:space="preserve">
<style type="text/css">
	.st0{fill:#6E6E6E;}
</style>
<title>icon</title>
<desc>Created with Sketch.</desc>
<path class="st0" d="M11.1,0C5.3,0,0.6,4.7,0.6,10.5S5.3,21,11.1,21c5.8,0,10.5-4.7,10.5-10.5S16.9,0,11.1,0z M15.1,11.2h-3.3v3.3
	c0,0.4-0.3,0.7-0.7,0.7c-0.4,0-0.7-0.3-0.7-0.7v-3.3H7.2c-0.4,0-0.7-0.3-0.7-0.7s0.3-0.7,0.7-0.7h3.3V6.6c0-0.4,0.3-0.7,0.7-0.7
	c0.4,0,0.7,0.3,0.7,0.7v3.3h3.3c0.4,0,0.7,0.3,0.7,0.7S15.4,11.2,15.1,11.2z"/>
</svg>
