<?xml version="1.0" encoding="UTF-8"?>
<svg width="11px" height="12px" viewBox="0 0 11 12" version="1.1" xmlns="http://www.w3.org/2000/svg" xmlns:xlink="http://www.w3.org/1999/xlink">
    <!-- Generator: Sketch 49.1 (51147) - http://www.bohemiancoding.com/sketch -->
    <title>birthday-cake</title>
    <desc>Created with Sketch.</desc>
    <defs></defs>
    <g id="Symbols" stroke="none" stroke-width="1" fill="none" fill-rule="evenodd">
        <g id="birthday_notification" transform="translate(-60.000000, -59.000000)" fill="#FFB74D" fill-rule="nonzero">
            <g id="Group-7">
                <g>
                    <g id="Group" transform="translate(60.000000, 58.000000)">
                        <g id="birthday-cake" transform="translate(0.000000, 1.000000)">
                            <path d="M9.29708108,10.3919189 C8.68901351,10.3919189 8.36659459,10.1260135 8.10754054,9.91240541 C7.87431081,9.72008108 7.70582432,9.58110811 7.3307027,9.58110811 C6.95566216,9.58110811 6.78717568,9.72008108 6.55398649,9.91240541 C6.29497297,10.1260541 5.97259459,10.3919189 5.36456757,10.3919189 C4.75654054,10.3919189 4.43416216,10.1260135 4.17510811,9.91240541 C3.94187838,9.72008108 3.77343243,9.58110811 3.39835135,9.58110811 C3.02335135,9.58110811 2.85486486,9.72008108 2.62171622,9.91240541 C2.36266216,10.1260541 2.04028378,10.3919189 1.43225676,10.3919189 C0.82422973,10.3919189 0.484986486,10.1260135 0.225972973,9.91240541 C0.147648649,9.84778378 0.0810810811,9.78948649 0,9.74014865 L0,12 L10.7027027,12 L10.7027027,9.72912162 C10.6216216,9.78064865 10.5539595,9.84295946 10.4697162,9.91240541 C10.2107027,10.1260135 9.90514865,10.3919189 9.29708108,10.3919189 Z" id="Shape"></path>
                            <path d="M0,7.33783784 L0,9.02428378 C0.283783784,9.12068919 0.474689189,9.27672973 0.638716216,9.41197297 C0.871864865,9.6042973 1.04878378,9.74327027 1.42378378,9.74327027 C1.79882432,9.74327027 1.97152703,9.6042973 2.20471622,9.41197297 C2.46372973,9.19832432 2.78821622,8.93245946 3.3962027,8.93245946 C4.00422973,8.93245946 4.32766216,9.19836486 4.58671622,9.41197297 C4.81994595,9.6042973 4.98891892,9.74327027 5.364,9.74327027 C5.73904054,9.74327027 5.90781081,9.6042973 6.141,9.41197297 C6.40001351,9.19832432 6.72251351,8.93245946 7.33054054,8.93245946 C7.93860811,8.93245946 8.26110811,9.19836486 8.52012162,9.41197297 C8.75335135,9.6042973 8.92187838,9.74327027 9.297,9.74327027 C9.67208108,9.74327027 9.82374324,9.6042973 10.056973,9.41197297 C10.2278919,9.27101351 10.4188378,9.10783784 10.7026216,9.01272973 L10.7026216,7.33783784 L0,7.33783784 Z" id="Shape"></path>
                            <rect id="Rectangle-path" x="1.33783784" y="4.01351351" width="8.02702703" height="2.63513514"></rect>
                            <path d="M3,1.92267568 C3.2027027,1.80851351 3.35128378,1.58947297 3.35128378,1.33783784 C3.35128378,0.968432432 2.68572973,0 2.68572973,0 C2.68572973,0 2.01178378,0.968432432 2.01178378,1.33783784 C2.01178378,1.58955405 2.14864865,1.80855405 2.35135135,1.92271622 L2.35135135,3.32432432 L3,3.32432432 L3,1.92267568 Z" id="Shape"></path>
                            <path d="M5.67567568,1.91039189 C5.87837838,1.79327027 6.00677027,1.58104054 6.00677027,1.33783784 C6.00677027,0.968432432 5.34121622,0 5.34121622,0 C5.34121622,0 4.66722973,0.968432432 4.66722973,1.33783784 C4.66722973,1.59762162 4.82428378,1.82233784 5.02698649,1.93313514 L5.02698649,3.32432432 L5.67563514,3.32432432 L5.67563514,1.91039189 L5.67567568,1.91039189 Z" id="Shape"></path>
                            <path d="M8.35135135,1.92267568 C8.55405405,1.80851351 8.70263514,1.58947297 8.70263514,1.33783784 C8.70263514,0.968432432 8.03708108,0 8.03708108,0 C8.03708108,0 7.36309459,0.968432432 7.36309459,1.33783784 C7.36309459,1.58955405 7.49995946,1.80855405 7.70266216,1.92271622 L7.70266216,3.32432432 L8.35131081,3.32432432 L8.35131081,1.92267568 L8.35135135,1.92267568 Z" id="Shape"></path>
                        </g>
                    </g>
                </g>
            </g>
        </g>
    </g>
</svg>