<?xml version="1.0" encoding="utf-8"?>
<!-- Generator: Adobe Illustrator 21.0.0, SVG Export Plug-In . SVG Version: 6.00 Build 0)  -->
<svg version="1.1" id="Layer_1" xmlns="http://www.w3.org/2000/svg" xmlns:xlink="http://www.w3.org/1999/xlink" x="0px" y="0px"
	 viewBox="0 0 14 14" style="enable-background:new 0 0 14 14;" xml:space="preserve">
<style type="text/css">
	.st0{fill:#1CC2B4;}
</style>
<title>small-calendar</title>
<desc>Created with Sketch.</desc>
<path class="st0" d="M12.8,1.3h-1.9V0.4c0-0.2-0.2-0.4-0.4-0.4s-0.4,0.2-0.4,0.4v0.9H7.4V0.4C7.4,0.2,7.2,0,7,0S6.6,0.2,6.6,0.4v0.9
	H3.9V0.4C3.9,0.2,3.7,0,3.5,0S3.1,0.2,3.1,0.4v0.9H1.2C0.5,1.3,0,1.8,0,2.5v10.4C0,13.5,0.5,14,1.2,14h11.7c0.6,0,1.2-0.5,1.2-1.2
	V2.5C14,1.8,13.5,1.3,12.8,1.3z M4.8,10.9H3.1V9.6h1.8V10.9z M4.8,8.8H3.1V7.4h1.8V8.8z M4.8,6.6H3.1V5.2h1.8V6.6z M7.9,10.9H6.1
	V9.6h1.8V10.9z M7.9,8.8H6.1V7.4h1.8V8.8z M7.9,6.6H6.1V5.2h1.8V6.6z M10.9,10.9H9.2V9.6h1.8V10.9z M10.9,8.8H9.2V7.4h1.8V8.8z
	 M10.9,6.6H9.2V5.2h1.8V6.6z"/>
</svg>
