<?xml version="1.0" encoding="UTF-8"?>
<svg width="8px" height="6px" viewBox="0 0 8 6" version="1.1" xmlns="http://www.w3.org/2000/svg" xmlns:xlink="http://www.w3.org/1999/xlink">
    <!-- Generator: Sketch 49.1 (51147) - http://www.bohemiancoding.com/sketch -->
    <title>Shape</title>
    <desc>Created with Sketch.</desc>
    <defs></defs>
    <g id="final" stroke="none" stroke-width="1" fill="none" fill-rule="evenodd" fill-opacity="0.8">
        <g id="styles" transform="translate(-47.000000, -652.000000)" fill="#191919" fill-rule="nonzero">
            <g id="language" transform="translate(31.000000, 628.000000)">
                <path d="M23.6683353,24.8262529 L22.9831353,24.1410529 C22.8891824,24.0470294 22.7749176,24 22.6406059,24 C22.5061706,24 22.3919059,24.0470294 22.2979529,24.1410529 L18.9927647,27.4512353 L17.5114882,25.9649118 C17.4174294,25.8708529 17.3032353,25.8238765 17.1689235,25.8238765 C17.0345235,25.8238765 16.9203294,25.8708529 16.8262706,25.9649118 L16.1410706,26.6501294 C16.0470118,26.7441706 16,26.8584 16,26.9927824 C16,27.1270588 16.0470118,27.2413941 16.1410706,27.3354176 L17.9649118,29.1592235 L18.6501647,29.8444235 C18.7441706,29.9385176 18.8584,29.9854941 18.9927647,29.9854941 C19.1270765,29.9854941 19.2413059,29.9383941 19.3353647,29.8444235 L20.0206,29.1592235 L23.6683353,25.5115059 C23.7623059,25.4174471 23.8094059,25.3032353 23.8094059,25.1688529 C23.8094765,25.0345412 23.7623059,24.9203118 23.6683353,24.8262529 Z" id="Shape"></path>
            </g>
        </g>
    </g>
</svg>