<?xml version="1.0" encoding="utf-8"?>
<!-- Generator: Adobe Illustrator 21.0.0, SVG Export Plug-In . SVG Version: 6.00 Build 0)  -->
<svg version="1.1" id="Layer_1" xmlns="http://www.w3.org/2000/svg" xmlns:xlink="http://www.w3.org/1999/xlink" x="0px" y="0px"
	 viewBox="0 0 16 14" style="enable-background:new 0 0 16 14;" xml:space="preserve">
<style type="text/css">
	.st0{fill:#FFFFFF;}
</style>
<title>Shape</title>
<desc>Created with Sketch.</desc>
<g id="Symbols">
	<g id="greatest_desire_action" transform="translate(1.000000, -4.000000)">
		<g id="Group-3">
			<g transform="translate(0.000000, 1.000000)">
				<g id="Shape">
					<path class="st0" d="M0.9,16.5h-1.3l0.9-0.9c0.4-0.4,0.7-1.2,0.8-2.3c-1.2-1.1-1.8-2.5-1.8-3.9c0-3.3,3.4-5.9,7.5-5.9
						s7.5,2.7,7.5,5.9s-3.4,5.9-7.5,5.9c-0.9,0-1.7-0.1-2.5-0.3C3.6,15.7,2.3,16.5,0.9,16.5z M7,4.5c-3.6,0-6.5,2.2-6.5,4.9
						c0,1.2,0.6,2.4,1.7,3.3l0.2,0.2l0,0.2c0,0.9-0.2,1.6-0.4,2.2c0.9-0.3,1.7-0.8,2.2-1.2l0.2-0.2L4.6,14c0.8,0.2,1.6,0.4,2.4,0.4
						c3.6,0,6.5-2.2,6.5-4.9C13.5,6.7,10.6,4.5,7,4.5z"/>
				</g>
			</g>
		</g>
	</g>
</g>
</svg>
