<?xml version="1.0" encoding="UTF-8"?>
<svg width="12px" height="12px" viewBox="0 0 12 12" version="1.1" xmlns="http://www.w3.org/2000/svg" xmlns:xlink="http://www.w3.org/1999/xlink">
    <!-- Generator: Sketch 49.1 (51147) - http://www.bohemiancoding.com/sketch -->
    <title>earth_green</title>
    <desc>Created with Sketch.</desc>
    <defs></defs>
    <g id="final" stroke="none" stroke-width="1" fill="none" fill-rule="evenodd">
        <g id="styles" transform="translate(-533.000000, -338.000000)" fill="#34C9BE">
            <g id="add_open" transform="translate(509.000000, 180.000000)">
                <g id="open" transform="translate(0.000000, 33.000000)">
                    <g id="Group-9" transform="translate(24.000000, 124.000000)">
                        <g id="earth_green" transform="translate(0.000000, 1.000000)">
                            <g id="earth">
                                <path d="M10.5271015,4.26529281 L10.6314448,4.34015912 L10.7287449,4.34015912 L10.7287449,4.15286292 L11.0355142,4.12312508 L11.3268928,4.34015912 L11.8058285,4.34015912 L11.8394793,4.30937785 C11.7914813,4.14790661 11.7374837,3.98930481 11.6769646,3.83383331 L11.3644564,3.83905048 L11.2076806,3.66688405 L11.1774211,3.39011347 L11.0167324,3.47776184 L10.9306492,3.81609495 L10.6987462,3.56932307 L10.6893553,3.33611582 L10.465539,3.14334159 L10.3831078,3.06117125 L10.1235539,3.06117125 L10.2052025,3.2925525 L10.5177106,3.46680579 L10.5719691,3.52445546 L10.504146,3.55836703 L10.5072763,3.74175036 L10.3549351,3.80539977 L10.2250277,3.77696622 L10.1436399,3.66192774 L10.355196,3.67314465 L10.4123239,3.59619147 L9.9440834,3.28029216 L9.90808497,3.14568932 L9.71791932,3.31785575 L9.5251451,3.2782053 L9.2316796,3.65984088 L9.17376907,3.80931264 L8.98595115,3.82626842 L8.70813714,3.82809443 L8.54197045,3.75035868 L8.49292911,3.42037303 L8.55266564,3.26307552 L8.83543595,3.20125212 L9.14377037,3.26307552 L9.18159482,3.09247424 L9.05064399,3.06143211 L9.09525074,2.79561758 L9.40567203,2.74709795 L9.62270607,2.44058954 L9.84678329,2.40302596 L10.0489484,2.43302465 L10.1235539,2.43302465 L10.0823383,2.14503717 L9.83660982,2.2441633 L9.75000489,2.02895526 L9.60731544,2.00913004 L9.58044704,1.86174514 L9.69678981,1.73496804 L9.97356038,1.62645102 L10.0447747,1.49915221 C8.98699458,0.567366636 7.60053312,0 6.08338169,0 C4.76683024,0 3.54888319,0.42728577 2.55840452,1.14908047 L2.86100006,1.14673275 L2.99586376,1.2213382 L3.24993967,1.27611843 L3.2697649,1.37602713 L3.67383428,1.39089605 L3.61905406,1.26124951 L3.26011314,1.25107604 L3.34463121,1.17151428 L3.31515423,1.07656189 L2.9906466,1.07656189 L3.34463121,0.812312508 L3.6837469,0.812312508 L3.84313127,1.03195513 L4.10764151,1.04682405 L4.26702588,0.892135125 L4.38675981,0.951871658 L4.16711718,1.16629712 C4.16711718,1.16629712 3.86321735,1.17177514 3.87808627,1.17177514 C3.89295519,1.17177514 3.90312866,1.38098344 3.90312866,1.38098344 L4.27172133,1.37080996 L4.31163264,1.27142298 L4.56570855,1.2562932 L4.59570725,1.10682144 L4.44623548,1.08151819 L4.4960594,0.946915352 L4.61057616,0.912221208 L5.00942839,0.932046433 L4.78952491,1.13160297 L4.82500162,1.28603104 L5.054296,1.32098604 L5.03942708,1.04186774 L5.25880885,0.927090127 L5.64774846,0.882222512 L6.21094137,1.13160297 L6.21094137,1.34602843 L6.39041182,1.39089605 L6.30041574,1.56045389 L6.04607897,1.56045389 L5.97069094,1.75479327 L5.39028139,1.6178427 L5.84704414,1.37446198 L5.67305171,1.22655537 L5.27915579,1.27637929 L5.24472251,1.31211686 L5.24341822,1.31159515 L5.23741848,1.31994261 L5.12394515,1.43785053 L4.93638809,1.45324116 L4.951257,1.54662841 L5.01673242,1.57375766 L5.01412384,1.60453893 L4.86152178,1.62619017 L4.85030487,1.7146211 L4.70448513,1.72218599 L4.67813844,1.54636755 L4.41649765,1.62592931 L3.88173829,1.93895918 L3.94173568,2.15938437 L4.09120744,2.25694535 L4.39015097,2.29816095 L4.39015097,2.63805921 L4.52840582,2.61588627 L4.65570464,2.35033259 L4.97369081,2.24964132 L4.97369081,1.84191992 L5.15055269,1.70836051 L5.57809932,1.80931264 L5.54810062,2.07877918 L5.66287824,2.07877918 L5.9772124,1.92435112 L5.99234217,2.27807487 L6.22111484,2.41763402 L6.21146308,2.62736403 L5.99234217,2.70196948 L6.00721109,2.77135777 L6.27146047,2.89161341 L6.26598245,3.03612886 L6.18955099,3.04265032 C6.18929013,3.0403026 6.18876842,3.03873745 6.18876842,3.03873745 L5.85539161,2.93595931 L5.84130526,2.82900743 L5.84104441,2.82900743 L5.93860538,2.76196687 L5.93860538,2.6644059 L5.83374038,2.63805921 L5.80765455,2.7280553 L5.62374951,2.75648885 L5.60548943,2.75048911 L5.60548943,2.75961915 L5.54184002,2.7692709 L5.48992924,2.6644059 L5.42993184,2.63805921 L5.29898102,2.63805921 L5.23950534,2.68710056 L5.23950534,2.79561758 L5.35141352,2.83292031 L5.46201741,2.8485718 L5.43723588,2.85952785 L5.33628374,2.97143602 L5.29193784,2.91561236 L5.19437687,2.8897874 L4.92856234,3.13968958 L4.96325648,3.16812313 L4.57092571,3.38541803 L4.20181133,3.76940133 L4.17650808,3.94026347 L3.80661112,4.18338333 L3.62322779,4.3678101 L3.64357473,4.73666362 L3.38923796,4.61823399 L3.39106397,4.40250424 L2.68335561,4.4027651 L2.31684981,4.58823529 L2.15772629,4.8817008 L2.0945986,5.11438633 L2.1976376,5.34002869 L2.48640765,5.37524455 L2.94525727,5.06847528 L2.98542943,5.22055563 L2.84534857,5.48506587 L3.19463773,5.5448024 L3.22959273,6.08425721 L3.70826757,6.16564497 L4.01242826,5.81400809 L4.38154264,5.88913525 L4.51118918,6.06938829 L4.86517379,6.04851963 L4.8750864,5.94391548 L5.06968664,6.03834616 L5.2890684,6.3821573 L5.66783454,6.38737446 L5.80765455,6.63205948 L5.82747978,6.931003 L6.24641808,7.09038737 L6.77491685,7.0958654 L6.92960577,7.34968045 L7.16385646,7.42480762 L7.11898884,7.63479849 L6.86230435,7.96087127 L6.78743804,8.68318769 L6.55553508,8.86631016 L6.21172394,8.85613669 L6.09720718,9.05543237 L6.18224696,9.43002478 L5.80791541,9.90843876 L5.68844234,10.1280814 L5.33184915,10.2992044 L5.09733761,10.334942 L5.08768586,10.4343289 L5.25228739,10.4815443 L5.23246217,10.588757 L5.08507727,10.7306639 L5.17455164,10.8436155 L5.35193524,10.8485718 L5.34202262,10.9852615 L5.29480729,11.1201252 L5.27967751,11.2296857 L5.54210088,11.4506326 L5.50714588,11.5654102 L5.15003097,11.5586279 L4.79474207,11.2487283 L4.5179715,10.7622277 L4.55657851,10.2926829 L4.34710936,10.0133038 L4.43188828,9.53984609 L4.30745891,9.50515195 L4.30745891,8.47789227 C4.30745891,8.47789227 3.95843061,8.21338203 3.93834452,8.21338203 C3.91825844,8.21338203 3.7536569,8.16851441 3.7536569,8.16851441 L3.7187019,7.97443589 L3.26506945,7.40576497 L3.30993706,7.20151298 L3.32480598,6.86735359 L3.63887928,6.64771097 L3.59401167,6.27364028 L3.13542291,6.23920699 L2.77648199,5.8301813 L2.52214523,5.75974958 L2.35780455,5.72949002 L2.37762977,5.58001826 L2.16816062,5.55028042 L2.16816062,5.63505935 L1.6443573,5.50436938 L1.43358386,5.18194861 L1.51940622,5.02569454 L1.18785541,4.54180253 L1.13098832,4.18781792 L0.996385477,4.18781792 L1.04099223,4.53162906 L1.27028661,4.88561367 L1.24524422,5.02543368 L1.05090485,4.99543498 L0.811697855,4.58771358 L0.811697855,4.11321247 L0.562317393,3.99347854 L0.562317393,3.65201513 C0.25450469,4.37354898 0.0836425532,5.16707969 0.0836425532,6 C0.0836425532,9.30846485 2.7751777,12 6.08364255,12 C7.95921318,12 9.63600984,11.1344724 10.7370924,9.78218338 L10.539101,9.78218338 L10.539101,9.38333116 L10.3100675,9.07499674 L10.3100675,8.59527847 L10.1352925,8.42102517 L10.1199018,8.22146863 L10.3421531,7.79757402 L9.92138874,7.05438894 L9.97069094,6.55014999 L9.5919248,6.51102126 L9.45236565,6.37146211 L9.19776803,6.37146211 L9.06838235,6.49093518 L8.61944534,6.49093518 L8.60431557,6.53084648 L8.35467425,6.53084648 L7.78182959,5.87791835 L7.78652504,5.36924482 L7.88121657,5.33455067 L7.91643243,5.13995044 L7.78182959,5.13995044 L7.7267885,4.93569845 L8.38962925,4.45728447 L8.38962925,4.11816878 L8.71413688,3.93791574 L8.84560942,3.95095865 L9.11246739,3.95095865 L9.32141482,3.83878962 L9.9946899,3.78635711 L9.9946899,4.13042911 L10.5271015,4.26529281 Z M8.84404427,2.12599452 L8.8988245,2.04147646 L9.09603332,2.00156515 L9.14533552,2.241033 L9.25020053,2.41032999 L9.31984967,2.49041346 L9.44688763,2.53997652 L9.3271537,2.68240511 L9.09525074,2.70457806 L8.92099745,2.70457806 L8.94056182,2.49771749 L9.08559899,2.46771879 L9.07333865,2.37041868 L8.93821409,2.28563975 L8.84378342,2.22094692 L8.84404427,2.12599452 Z M8.52031922,2.50006521 L8.64005314,2.30807356 L8.80152438,2.27050998 L8.916302,2.3203339 L8.90586767,2.44998044 L8.65909579,2.62449459 L8.5197975,2.62449459 L8.5197975,2.50006521 L8.52031922,2.50006521 Z M5.260374,3.23803313 L5.13542291,3.24846746 L5.14220522,3.16160167 L5.19802888,3.09195252 L5.27315605,3.15090648 L5.260374,3.23803313 Z M5.69835496,3.08464849 L5.61305432,3.09195252 L5.59583768,3.17438372 L5.5301014,3.21533846 L5.42471468,3.22420764 C5.42106267,3.19942611 5.4189758,3.18064432 5.4189758,3.18064432 L5.37802106,3.18064432 L5.37802106,3.09195252 L5.54992663,3.09195252 L5.58540335,3.00039129 L5.6537482,2.999087 L5.73174481,3.01526021 L5.69835496,3.08464849 Z" id="Shape" fill-rule="nonzero"></path>
                            </g>
                        </g>
                    </g>
                </g>
            </g>
        </g>
    </g>
</svg>