<?xml version="1.0" encoding="utf-8"?>
<!-- Generator: Adobe Illustrator 21.0.0, SVG Export Plug-In . SVG Version: 6.00 Build 0)  -->
<svg version="1.1" id="Layer_1" xmlns="http://www.w3.org/2000/svg" xmlns:xlink="http://www.w3.org/1999/xlink" x="0px" y="0px"
	 viewBox="0 0 30 30" style="enable-background:new 0 0 30 30;" xml:space="preserve">
<style type="text/css">
	.st0{fill:#FFFFFF;fill-opacity:0.5;}
</style>
<title>Group</title>
<desc>Created with Sketch.</desc>
<path class="st0" d="M15,0C6.7,0,0,6.7,0,15c0,8.3,6.7,15,15,15c8.3,0,15-6.7,15-15C30,6.7,23.3,0,15,0z M7.5,23
	C7.2,23,6.9,22.8,7,22.5l0.8-3.7l3.3,3.3L7.5,23z M12,21.2l-3.3-3.3L17,9.7l3.3,3.3L12,21.2z M22.7,10.5l-1.6,1.6l-3.3-3.3l1.4-1.4
	c0.6-0.6,1.5-0.6,2,0l1.5,1.5C23.2,9.3,23.2,10,22.7,10.5z"/>
</svg>
