<?xml version="1.0" encoding="UTF-8"?>
<svg width="13px" height="10px" viewBox="0 0 13 10" version="1.1" xmlns="http://www.w3.org/2000/svg" xmlns:xlink="http://www.w3.org/1999/xlink">
    <!-- Generator: Sketch 49.1 (51147) - http://www.bohemiancoding.com/sketch -->
    <title>envelope-2</title>
    <desc>Created with Sketch.</desc>
    <defs></defs>
    <g id="final" stroke="none" stroke-width="1" fill="none" fill-rule="evenodd">
        <g id="styles" transform="translate(-1011.000000, -226.000000)" fill="#9F9F9F" fill-rule="nonzero">
            <g id="invite_open" transform="translate(979.000000, 180.000000)">
                <g id="Group-16" transform="translate(32.000000, 41.000000)">
                    <g id="envelope-2" transform="translate(0.000000, 5.000000)">
                        <path d="M1.18804839,3.0176371 C1.34462903,3.12812903 1.81662097,3.45629032 2.60404839,4.00195161 C3.3915,4.5476129 3.99474194,4.96775806 4.41379839,5.26241129 C4.45983871,5.29470968 4.55765323,5.36491935 4.70729032,5.4731371 C4.85695161,5.58142742 4.98130645,5.66893548 5.08025806,5.73568548 C5.17928226,5.80241129 5.29899194,5.87726613 5.43950806,5.96012903 C5.57997581,6.04291935 5.7123871,6.10519355 5.83671774,6.14641935 C5.96107258,6.18798387 6.07618548,6.20857258 6.18208065,6.20857258 L6.18902419,6.20857258 L6.19599194,6.20857258 C6.3018871,6.20857258 6.41704839,6.18795968 6.54140323,6.14641935 C6.66568548,6.10519355 6.79821774,6.04284677 6.93856452,5.96012903 C7.07898387,5.87716935 7.19869355,5.8023871 7.29771774,5.73568548 C7.39674194,5.66893548 7.521,5.58142742 7.67070968,5.4731371 C7.82032258,5.36482258 7.91825806,5.29470968 7.96429839,5.26241129 C8.38787903,4.96775806 9.46553226,4.21942742 11.1969194,3.01749194 C11.5330645,2.78274194 11.8139032,2.49948387 12.0395081,2.16791129 C12.2652823,1.83648387 12.3780484,1.48879839 12.3780484,1.12504839 C12.3780484,0.821080645 12.268621,0.560879032 12.0498629,0.344467742 C11.831129,0.128008065 11.5720645,0.0198387097 11.2728387,0.0198387097 L1.1051371,0.0198387097 C0.750580645,0.0198387097 0.477725806,0.139548387 0.286620968,0.378967742 C0.0955403226,0.618435484 0,0.917758065 0,1.27691129 C0,1.56701613 0.126677419,1.8813871 0.37991129,2.21983065 C0.633120968,2.55829839 0.90258871,2.82425806 1.18804839,3.0176371 Z" id="Shape"></path>
                        <path d="M11.6872258,3.75665323 C10.1769677,4.77885484 9.03019355,5.57327419 8.24745968,6.13974194 C7.98498387,6.33307258 7.77205645,6.48399194 7.60853226,6.5921371 C7.44500806,6.70035484 7.22753226,6.81087097 6.95579032,6.9236371 C6.68414516,7.03657258 6.43098387,7.09287097 6.19608871,7.09287097 L6.18904839,7.09287097 L6.18210484,7.09287097 C5.94725806,7.09287097 5.69395161,7.03657258 5.42230645,6.9236371 C5.15066129,6.81087097 4.93304032,6.70035484 4.76956452,6.5921371 C4.6061371,6.48399194 4.3931371,6.33307258 4.13068548,6.13974194 C3.50898387,5.6838871 2.36467742,4.88941935 0.697717742,3.75665323 C0.435169355,3.58178226 0.202620968,3.38133871 0,3.15573387 L0,8.64004839 C0,8.94416129 0.108169355,9.20421774 0.324629032,9.42065323 C0.541040323,9.63716129 0.801266129,9.74537903 1.10520968,9.74537903 L11.2729355,9.74537903 C11.5768065,9.74537903 11.8370081,9.63716129 12.0534435,9.42065323 C12.2699516,9.20414516 12.3780726,8.94418548 12.3780726,8.64004839 L12.3780726,3.15573387 C12.1800242,3.37666935 11.9498468,3.5771129 11.6872258,3.75665323 Z" id="Shape"></path>
                    </g>
                </g>
            </g>
        </g>
    </g>
</svg>