<?xml version="1.0" encoding="UTF-8"?>
<svg width="7px" height="12px" viewBox="0 0 7 12" version="1.1" xmlns="http://www.w3.org/2000/svg" xmlns:xlink="http://www.w3.org/1999/xlink">
    <!-- Generator: Sketch 49.1 (51147) - http://www.bohemiancoding.com/sketch -->
    <title>Shape</title>
    <desc>Created with Sketch.</desc>
    <defs></defs>
    <g id="final" stroke="none" stroke-width="1" fill="none" fill-rule="evenodd">
        <g id="styles" transform="translate(-1014.000000, -266.000000)" fill="#385C8E" fill-rule="nonzero">
            <g id="invite_open" transform="translate(979.000000, 180.000000)">
                <g id="hover" transform="translate(20.000000, 72.000000)">
                    <g id="Group-20" transform="translate(15.000000, 10.000000)">
                        <path d="M0.193570313,10.3911953 L1.50895313,10.3911953 L1.50895313,15.8064531 C1.50895313,15.913375 1.59557812,16 1.7025,16 L3.93278906,16 C4.03971094,16 4.12633594,15.913375 4.12633594,15.8064531 L4.12633594,10.4167187 L5.6385,10.4167187 C5.73682031,10.4167187 5.81955469,10.3429375 5.83078125,10.2452734 L6.06044531,8.25165625 C6.06675,8.1968125 6.04938281,8.141875 6.01267969,8.10071875 C5.97595312,8.05953906 5.92338281,8.03596094 5.86821094,8.03596094 L4.12642969,8.03596094 L4.12642969,6.78625 C4.12642969,6.40953906 4.32925781,6.2185 4.72938281,6.2185 C4.78640625,6.2185 5.86821094,6.2185 5.86821094,6.2185 C5.97513281,6.2185 6.06175781,6.13182813 6.06175781,6.02495312 L6.06175781,4.19497656 C6.06175781,4.08805469 5.97513281,4.00142969 5.86821094,4.00142969 L4.29871875,4.00142969 C4.28765625,4.00089063 4.26307031,4 4.22683594,4 C3.95451563,4 3.00794531,4.05346094 2.26021875,4.74132812 C1.43175,5.50360937 1.54692188,6.41628906 1.5744375,6.57453906 L1.5744375,8.03591406 L0.193546875,8.03591406 C0.086625,8.03591406 0,8.12253906 0,8.22946094 L0,10.197625 C2.34375e-05,10.3045234 0.0866484375,10.3911953 0.193570313,10.3911953 Z" id="Shape"></path>
                    </g>
                </g>
            </g>
        </g>
    </g>
</svg>