<?xml version="1.0" encoding="UTF-8"?>
<svg width="22px" height="21px" viewBox="0 0 22 21" version="1.1" xmlns="http://www.w3.org/2000/svg" xmlns:xlink="http://www.w3.org/1999/xlink">
    <!-- Generator: Sketch 49.1 (51147) - http://www.bohemiancoding.com/sketch -->
    <title>Shape</title>
    <desc>Created with Sketch.</desc>
    <defs></defs>
    <g id="final" stroke="none" stroke-width="1" fill="none" fill-rule="evenodd">
        <g id="styles" transform="translate(-764.000000, -104.000000)" fill="#6E6E6E" fill-rule="nonzero">
            <g id="service_tooltips" transform="translate(567.000000, 104.000000)">
                <g id="favorites_tooltip" transform="translate(175.000000, 0.000000)">
                    <path d="M32.2351799,0.474513439 C32.3789575,0.184111214 32.6750539,0 32.9986721,0 C33.3222902,0 33.6188611,0.184111214 33.7621642,0.474513439 L36.5005812,6.02394811 C36.6244292,6.27496572 36.864533,6.44911215 37.1421234,6.48944579 L43.2661939,7.37915849 C43.5874395,7.42566081 43.853167,7.65058018 43.9532893,7.9585394 C44.0534117,8.26649862 43.9698973,8.60530122 43.7378602,8.83116961 L39.3068537,13.15114 C39.1061345,13.3466395 39.0145534,13.6285005 39.0615303,13.9046673 L40.1073579,20.0045376 C40.1614524,20.3243596 40.0309612,20.6470288 39.7680808,20.8377832 C39.5056749,21.0275885 39.1588055,21.0527378 38.8712504,20.9027915 L33.3934672,18.0224949 C33.1457712,17.8920037 32.8492003,17.8920037 32.6010298,18.0224949 L27.1232467,20.902317 C26.8366405,21.0527378 26.4888222,21.0280631 26.2264163,20.8377832 C25.9640103,20.6475033 25.8330446,20.3243596 25.8876137,20.0045376 L26.9334413,13.9046673 C26.9808926,13.6285005 26.888837,13.3466395 26.6881178,13.15114 L22.2571113,8.83116961 C22.0250743,8.6048267 21.9415599,8.26649862 22.0416822,7.9585394 C22.1418046,7.65058018 22.4080066,7.42566081 22.7292522,7.37915849 L28.8542717,6.48944579 C29.1313875,6.44911215 29.3714913,6.27496572 29.4953393,6.0234736 L32.2351799,0.474513439 Z" id="Shape"></path>
                </g>
            </g>
        </g>
    </g>
</svg>