<?xml version="1.0" encoding="utf-8"?>
<!-- Generator: Adobe Illustrator 21.0.0, SVG Export Plug-In . SVG Version: 6.00 Build 0)  -->
<svg version="1.1" id="Layer_1" xmlns="http://www.w3.org/2000/svg" xmlns:xlink="http://www.w3.org/1999/xlink" x="0px" y="0px"
	 viewBox="0 0 22 21" style="enable-background:new 0 0 22 21;" xml:space="preserve">
<style type="text/css">
	.st0{fill:#C2C2C2;}
</style>
<title>Group 39</title>
<desc>Created with Sketch.</desc>
<g id="styles" transform="translate(-653.000000, -180.000000)">
	<g id="Shape_2_">
		<g>
			<g id="path-1">
				<path class="st0" d="M661.1,190.4c2.1,0,3.7-2,3.7-4.5s-0.5-4.5-3.7-4.5c-3.2,0-3.7,2-3.7,4.5S659,190.4,661.1,190.4z"/>
			</g>
		</g>
		<path class="st0" d="M674.1,193.6c-0.1-3.7-0.5-4.8-4.3-5.5c0,0-0.5,0.7-1.8,0.7s-1.8-0.7-1.8-0.7c-0.3,0.1-0.6,0.1-0.9,0.2
			c-0.3,0.6-0.6,1.2-1.1,1.7c3.5,0.8,4.7,2.1,4.9,5.9c4.3-0.2,5-1.8,5-1.8L674.1,193.6z"/>
	</g>
	<path class="st0" d="M668.2,197.2c-0.1-4.4-0.6-5.6-5-6.4c0,0-0.6,0.8-2,0.8c-1.4,0-2-0.8-2-0.8c-4.3,0.8-4.9,2-5,6.3
		c0,0.2,0,0.3,0,0.3c0,0,0,0,0,0c0,0.1,0,0.2,0,0.5c0,0,1,2.1,7.1,2.1c6,0,6.9-2.2,6.9-2.2L668.2,197.2z"/>
</g>
<path class="st0" d="M15.1,0c-2,0-2.8,0.9-3.1,2.3c0.5,0.9,0.8,2.1,0.8,3.6c0,0.2,0,0.5,0,0.7c0.6,0.7,1.4,1.2,2.3,1.2
	c1.8,0,3.2-1.7,3.2-3.9C18.3,1.8,17.8,0,15.1,0z"/>
</svg>
