<?xml version="1.0" encoding="UTF-8"?>
<svg width="20px" height="20px" viewBox="0 0 20 20" version="1.1" xmlns="http://www.w3.org/2000/svg">
    <!-- Generator: Sketch 49.1 (51147) - http://www.bohemiancoding.com/sketch -->
    <title>google-plus-logo</title>
    <desc>Created with Sketch.</desc>
    <defs></defs>
    <g id="final" stroke="none" stroke-width="1" fill="none" fill-rule="evenodd">
        <g id="login_1440" transform="translate(-741.000000, -159.000000)" fill="#FFFFFF" fill-rule="nonzero">
            <g id="login">
                <g id="Group-3" transform="translate(458.000000, 75.000000)">
                    <g id="Group-2" transform="translate(15.000000, 68.000000)">
                        <g id="google" transform="translate(255.000000, 0.000000)">
                            <g id="google-plus-logo" transform="translate(13.000000, 16.000000)">
                                <path d="M12.7045361,0 L7.94329897,0 C5.82164948,0 4.35298969,0.465154639 3.03113402,1.5571134 C1.99154639,2.45402062 1.37113402,3.75752577 1.37113402,5.04412371 C1.37113402,7.02639175 2.88247423,9.13298969 5.68309278,9.13298969 C5.95237113,9.13298969 6.25051546,9.10536082 6.51360825,9.08082474 L6.47484536,9.17505155 C6.36226804,9.44474227 6.2556701,9.69917526 6.2556701,10.0962887 C6.2556701,10.8694845 6.62865979,11.3463918 6.98927835,11.8072165 L7.03463918,11.865567 L6.95402062,11.871134 C5.79752577,11.9503093 3.64494845,12.0979381 2.07257732,13.0643299 C0.215463918,14.1684536 0.0711340206,15.7746392 0.0711340206,16.2404124 C0.0711340206,18.0936082 1.79814433,19.9641237 5.65670103,19.9641237 C10.143299,19.9641237 12.4909278,17.488866 12.4909278,15.0439175 C12.4913402,13.2354639 11.4309278,12.3426804 10.3053608,11.3948454 L9.35587629,10.6562887 C9.06247423,10.4131959 8.6971134,10.1107216 8.6971134,9.55030928 C8.6971134,8.99938144 9.06247423,8.6356701 9.38494845,8.31484536 L9.4185567,8.28082474 C10.4439175,7.47319588 11.6059794,6.55752577 11.6059794,4.57690722 C11.6059794,2.58556701 10.3616495,1.55649485 9.76329897,1.06185567 L11.343299,1.06185567 C11.3626804,1.06185567 11.3820619,1.05649485 11.3981443,1.04597938 L12.7591753,0.190309278 C12.7979381,0.165773196 12.8160825,0.118556701 12.803299,0.0744329897 C12.791134,0.0303092784 12.7503093,0 12.7045361,0 Z M6.93072165,18.8731959 C4.19587629,18.8731959 2.35835052,17.5958763 2.35835052,15.6946392 C2.35835052,14.4531959 3.10989691,13.551134 4.59010309,13.0148454 C5.77546392,12.6158763 7.30556701,12.5960825 7.32082474,12.5960825 C7.58,12.5960825 7.71030928,12.5960825 7.91731959,12.6220619 C9.83092784,13.9839175 10.7509278,14.6989691 10.7509278,16.0608247 C10.7507216,17.7956701 9.28680412,18.8731959 6.93072165,18.8731959 Z M6.90494845,8.40329897 C4.60969072,8.40329897 3.6571134,5.38618557 3.6571134,3.77072165 C3.6571134,2.94927835 3.84391753,2.31876289 4.22824742,1.84268041 C4.64536082,1.32082474 5.35958763,0.98371134 6.04783505,0.98371134 C8.15525773,0.98371134 9.32061856,3.81628866 9.32061856,5.77402062 C9.32061856,6.0828866 9.32061856,7.02247423 8.67154639,7.67505155 C8.23505155,8.11072165 7.52515464,8.40329897 6.90494845,8.40329897 Z" id="Shape"></path>
                                <path d="M19.377732,9.3243299 L16.868866,9.3243299 L16.868866,6.8243299 C16.868866,6.76742268 16.8224742,6.72123711 16.7657732,6.72123711 L15.6865979,6.72123711 C15.6296907,6.72123711 15.5835052,6.76742268 15.5835052,6.8243299 L15.5835052,9.3243299 L13.0872165,9.3243299 C13.0303093,9.3243299 12.9841237,9.37051546 12.9841237,9.42742268 L12.9841237,10.5210309 C12.9841237,10.577732 13.0303093,10.6241237 13.0872165,10.6241237 L15.5835052,10.6241237 L15.5835052,13.1402062 C15.5835052,13.1969072 15.6296907,13.243299 15.6865979,13.243299 L16.7657732,13.243299 C16.8224742,13.243299 16.868866,13.1969072 16.868866,13.1402062 L16.868866,10.6237113 L19.377732,10.6237113 C19.4346392,10.6237113 19.4808247,10.577732 19.4808247,10.5206186 L19.4808247,9.42742268 C19.4808247,9.37030928 19.4348454,9.3243299 19.377732,9.3243299 Z" id="Shape"></path>
                            </g>
                        </g>
                    </g>
                </g>
            </g>
        </g>
    </g>
</svg>