<?xml version="1.0" encoding="utf-8"?>
<!-- Generator: Adobe Illustrator 21.0.0, SVG Export Plug-In . SVG Version: 6.00 Build 0)  -->
<svg version="1.1" id="Layer_1" xmlns="http://www.w3.org/2000/svg" xmlns:xlink="http://www.w3.org/1999/xlink" x="0px" y="0px"
	 viewBox="0 0 16 13" style="enable-background:new 0 0 16 13;" xml:space="preserve">
<style type="text/css">
	.st0{fill:#191919;}
</style>
<title>Group 28</title>
<desc>Created with Sketch.</desc>
<path class="st0" d="M7.9,0.7c-2.2,0-2.5,1.5-2.5,3c0,1.6,1.1,3,2.5,3s2.5-1.3,2.5-3C10.4,2.2,10.1,0.7,7.9,0.7z"/>
<path class="st0" d="M5,3.6c0-0.5,0-1.4,0.4-2.1C5.2,0.6,4.8,0,3.5,0C1.9,0,1.7,1,1.7,2.3c0,1.2,0.8,2.3,1.9,2.3
	C4.1,4.5,4.6,4.2,5,3.6C5,3.7,5,3.7,5,3.6z"/>
<path d="M11.8,0c-1,0-1.5,0.4-1.7,1c0.7,0.8,0.8,2,0.8,2.6c0,0.2,0,0.4,0,0.5c0.3,0.2,0.6,0.3,1,0.3c1,0,1.9-1,1.9-2.3
	C13.7,1,13.4,0,11.8,0z"/>
<path class="st0" d="M15.3,7.9c0-2.2-0.3-2.8-2.5-3.2c0,0-0.3,0.4-1,0.4s-1-0.4-1-0.4c0,0,0,0-0.1,0c-0.2,0.6-0.5,1.1-0.9,1.5
	c1.9,0.5,2.5,1.2,2.7,3c2.3-0.2,2.8-1,2.8-1c0-0.1,0-0.1,0-0.2C15.4,8,15.3,8,15.3,7.9z"/>
<g>
	<path class="st0" d="M5.1,4.8C5,4.8,4.8,4.7,4.6,4.7c0,0-0.3,0.4-1,0.4s-1-0.4-1-0.4C0.4,5.1,0.1,5.7,0,7.8C0,8,0,8,0,8
		c0,0,0,0.1,0,0.2c0,0,0.5,1,3.3,1c0.2-1.7,0.8-2.6,2.7-3C5.6,5.8,5.3,5.4,5.1,4.8z"/>
</g>
<path class="st0" d="M12.1,10.4c0-2.5-0.4-3.3-2.7-3.8C9,6.9,8.5,7.1,7.9,7.1c-0.5,0-1.1-0.2-1.5-0.5c-2.3,0.5-2.7,1.2-2.7,3.7
	c0,0.2,0,0.2,0,0.2c0,0,0,0.1,0,0.3c0,0,0.6,1.2,4.2,1.2c3.6,0,4.2-1.2,4.2-1.2c0-0.1,0-0.2,0-0.2C12.1,10.6,12.1,10.5,12.1,10.4z"
	/>
</svg>
