<?xml version="1.0" encoding="UTF-8"?>
<svg width="15px" height="12px" viewBox="0 0 15 12" version="1.1" xmlns="http://www.w3.org/2000/svg" xmlns:xlink="http://www.w3.org/1999/xlink">
    <!-- Generator: Sketch 49.1 (51147) - http://www.bohemiancoding.com/sketch -->
    <title>Group 28</title>
    <desc>Created with Sketch.</desc>
    <defs></defs>
    <g id="final" stroke="none" stroke-width="1" fill="none" fill-rule="evenodd">
        <g id="styles" transform="translate(-533.000000, -425.000000)" fill="#9F9F9F" fill-rule="nonzero">
            <g id="add_open" transform="translate(509.000000, 180.000000)">
                <g id="open" transform="translate(0.000000, 33.000000)">
                    <g id="group" transform="translate(24.000000, 208.000000)">
                        <g id="Group-28" transform="translate(0.000000, 4.000000)">
                            <g id="man-user-copy-2">
                                <path d="M3.29846154,4.21348923 C4.25634462,4.21348923 5.03293538,3.27027692 5.03293538,2.10675692 C5.03293538,0.943212308 4.77796923,0 3.29846154,0 C1.81895385,0 1.56393846,0.943212308 1.56393846,2.10675692 C1.56393846,3.27027692 2.34052923,4.21348923 3.29846154,4.21348923 Z" id="Shape"></path>
                                <path d="M6.57070769,7.34515692 C6.53858462,5.31827692 6.27387077,4.74072615 4.24819692,4.37513846 C4.24819692,4.37513846 3.96305231,4.73848615 3.29843692,4.73848615 C2.63382154,4.73848615 2.34862769,4.37513846 2.34862769,4.37513846 C0.345058462,4.73673846 0.0642461538,5.30572308 0.0273230769,7.27931077 C0.0242953846,7.44046769 0.0228923077,7.44893538 0.0223507692,7.43022769 C0.0224738462,7.46528 0.0226215385,7.53011692 0.0226215385,7.64317538 C0.0226215385,7.64317538 0.504886154,8.61538462 3.29843692,8.61538462 C6.09193846,8.61538462 6.57425231,7.64317538 6.57425231,7.64317538 C6.57425231,7.57053538 6.57430154,7.52002462 6.57437538,7.48566154 C6.57383385,7.49723077 6.57275077,7.47480615 6.57070769,7.34515692 Z" id="Shape"></path>
                            </g>
                            <g id="man-user-copy-3" transform="translate(7.753846, 0.000000)">
                                <path d="M3.29846154,4.21348923 C4.25634462,4.21348923 5.03293538,3.27027692 5.03293538,2.10675692 C5.03293538,0.943212308 4.77796923,0 3.29846154,0 C1.81895385,0 1.56393846,0.943212308 1.56393846,2.10675692 C1.56393846,3.27027692 2.34052923,4.21348923 3.29846154,4.21348923 Z" id="Shape"></path>
                                <path d="M6.57070769,7.34515692 C6.53858462,5.31827692 6.27387077,4.74072615 4.24819692,4.37513846 C4.24819692,4.37513846 3.96305231,4.73848615 3.29843692,4.73848615 C2.63382154,4.73848615 2.34862769,4.37513846 2.34862769,4.37513846 C0.345058462,4.73673846 0.0642461538,5.30572308 0.0273230769,7.27931077 C0.0242953846,7.44046769 0.0228923077,7.44893538 0.0223507692,7.43022769 C0.0224738462,7.46528 0.0226215385,7.53011692 0.0226215385,7.64317538 C0.0226215385,7.64317538 0.504886154,8.61538462 3.29843692,8.61538462 C6.09193846,8.61538462 6.57425231,7.64317538 6.57425231,7.64317538 C6.57425231,7.57053538 6.57430154,7.52002462 6.57437538,7.48566154 C6.57383385,7.49723077 6.57275077,7.47480615 6.57070769,7.34515692 Z" id="Shape"></path>
                            </g>
                            <g id="man-user-copy" transform="translate(3.446154, 0.861538)" stroke="#FFFFFF">
                                <path d="M3.95815385,5.05618708 C5.10761354,5.05618708 6.03952246,3.92433231 6.03952246,2.52810831 C6.03952246,1.13185477 5.73356308,0 3.95815385,0 C2.18274462,0 1.87672615,1.13185477 1.87672615,2.52810831 C1.87672615,3.92433231 2.80863508,5.05618708 3.95815385,5.05618708 Z" id="Shape"></path>
                                <path d="M7.88484923,8.81418831 C7.84630154,6.38193231 7.52864492,5.68887138 5.09783631,5.25016615 C5.09783631,5.25016615 4.75566277,5.68618338 3.95812431,5.68618338 C3.16058585,5.68618338 2.81835323,5.25016615 2.81835323,5.25016615 C0.414070154,5.68408615 0.0770953846,6.36686769 0.0327876923,8.73517292 C0.0291544615,8.92856123 0.0274707692,8.93872246 0.0268209231,8.91627323 C0.0269686154,8.958336 0.0271458462,9.03614031 0.0271458462,9.17181046 C0.0271458462,9.17181046 0.605863385,10.3384615 3.95812431,10.3384615 C7.31032615,10.3384615 7.88910277,9.17181046 7.88910277,9.17181046 C7.88910277,9.08464246 7.88916185,9.02402954 7.88925046,8.98279385 C7.88860062,8.99667692 7.88730092,8.96976738 7.88484923,8.81418831 Z" id="Shape"></path>
                            </g>
                        </g>
                    </g>
                </g>
            </g>
        </g>
    </g>
</svg>