<?xml version="1.0" encoding="UTF-8"?>
<svg width="21px" height="21px" viewBox="0 0 21 21" version="1.1" xmlns="http://www.w3.org/2000/svg" xmlns:xlink="http://www.w3.org/1999/xlink">
    <!-- Generator: Sketch 49.1 (51147) - http://www.bohemiancoding.com/sketch -->
    <title>birthday-card-2</title>
    <desc>Created with Sketch.</desc>
    <defs></defs>
    <g id="final" stroke="none" stroke-width="1" fill="none" fill-rule="evenodd">
        <g id="styles" transform="translate(-880.000000, -104.000000)">
            <g id="service_tooltips" transform="translate(567.000000, 104.000000)">
                <g id="invite_tooltip" transform="translate(284.000000, 0.000000)">
                    <g id="birthday-card-2" transform="translate(29.000000, 0.000000)">
                        <path d="M20.8613672,8.26509961 C20.7635039,8.04295898 20.6181445,7.84235156 20.4267246,7.68243164 L17.8043906,5.49219727 L17.8043906,4.33522852 C17.8043906,3.45429492 17.0875195,2.73738281 16.2065449,2.73738281 L14.5059551,2.73738281 L11.8370273,0.508511719 C11.06175,-0.155777344 9.93779883,-0.155777344 9.1696582,0.502728516 L6.49408594,2.73738281 L4.79349609,2.73738281 C3.9125625,2.73738281 3.19565039,3.45425391 3.19565039,4.33522852 L3.19565039,5.49223828 L0.573767578,7.68243164 C0.382306641,7.84222852 0.236865234,8.04254883 0.138919922,8.26440234 C0.111931641,8.32420312 0,8.63124609 0,8.90888086 L0,18.9360937 C0,20.0689043 0.921539062,20.9904434 2.05434961,20.9904434 L18.9456504,20.9904434 C20.0784609,20.9904434 21,20.0689043 21,18.9360937 L21,8.90888086 C21,8.64798047 20.8962305,8.34253711 20.8613672,8.26509961 Z M3.19565039,9.68633203 L1.75333594,8.48162109 L3.19565039,7.27699219 L3.19565039,9.68633203 Z M10.0546113,1.54813477 C10.3123125,1.32677344 10.6871953,1.32697852 10.9520332,1.55391797 L12.369,2.7373418 L8.63091797,2.7373418 L10.0546113,1.54813477 Z M16.4347969,10.8302988 L10.9453887,15.4154355 C10.6876875,15.6367969 10.3123125,15.6365918 10.0479668,15.4096523 L4.56520313,10.8302578 L4.56520313,4.3351875 C4.56520313,4.20922852 4.66774219,4.10693555 4.79345508,4.10693555 L16.2065039,4.10693555 C16.3322168,4.10693555 16.4347559,4.20922852 16.4347559,4.3351875 L16.4347559,10.8302988 L16.4347969,10.8302988 Z M17.8043496,9.68637305 L17.8043496,7.27678711 L19.2468691,8.48149805 L17.8043496,9.68637305 Z" id="Shape" fill="#6E6E6E" fill-rule="nonzero"></path>
                        <g id="add-circular-outlined-button" transform="translate(7.000000, 5.833333)">
                            <path d="M3.5,0 C1.56690196,0 0,1.56690196 0,3.5 C0,5.43309804 1.56690196,7 3.5,7 C5.43309804,7 7,5.43286928 7,3.5 C7,1.56713072 5.43309804,0 3.5,0 Z" id="Shape" fill="#6E6E6E" fill-rule="nonzero"></path>
                            <path d="M4.8125,3.28125 L3.71875,3.28125 L3.71875,2.1875 C3.71875,2.06675 3.62075,1.96875 3.5,1.96875 C3.37925,1.96875 3.28125,2.06675 3.28125,2.1875 L3.28125,3.28125 L2.1875,3.28125 C2.06675,3.28125 1.96875,3.37925 1.96875,3.5 C1.96875,3.62075 2.06675,3.71875 2.1875,3.71875 L3.28125,3.71875 L3.28125,4.8125 C3.28125,4.93325 3.37925,5.03125 3.5,5.03125 C3.62075,5.03125 3.71875,4.93325 3.71875,4.8125 L3.71875,3.71875 L4.8125,3.71875 C4.93325,3.71875 5.03125,3.62075 5.03125,3.5 C5.03125,3.37925 4.93325,3.28125 4.8125,3.28125 Z" id="Path" fill="#FFFFFF"></path>
                        </g>
                    </g>
                </g>
            </g>
        </g>
    </g>
</svg>