<?xml version="1.0" encoding="utf-8"?>
<!-- Generator: Adobe Illustrator 21.0.0, SVG Export Plug-In . SVG Version: 6.00 Build 0)  -->
<svg version="1.1" id="Layer_1" xmlns="http://www.w3.org/2000/svg" xmlns:xlink="http://www.w3.org/1999/xlink" x="0px" y="0px"
	 viewBox="0 0 9 12" style="enable-background:new 0 0 9 12;" xml:space="preserve">
<style type="text/css">
	.st0{fill:#191919;}
</style>
<title>man-user</title>
<desc>Created with Sketch.</desc>
<g id="Symbols">
	<g id="statistics" transform="translate(-25.000000, -14.000000)">
		<g id="Group-16">
			<g transform="translate(15.000000, 14.000000)">
				<g id="Group-15">
					<g id="man-user" transform="translate(10.000000, 0.000000)">
						<path id="Shape" class="st0" d="M4.5,6C5.9,6,7,4.7,7,3c0-1.7-0.4-3-2.5-3S2,1.3,2,3C2,4.7,3.1,6,4.5,6z"/>
						<path id="Shape_1_" class="st0" d="M9,10.2C9,7.3,8.6,6.5,5.8,6c0,0-0.4,0.5-1.3,0.5S3.2,6,3.2,6C0.4,6.5,0.1,7.3,0,10.1
							c0,0.2,0,0.2,0,0.2c0,0,0,0.1,0,0.3c0,0,0.7,1.4,4.5,1.4C8.3,12,9,10.6,9,10.6c0-0.1,0-0.2,0-0.2C9,10.4,9,10.4,9,10.2z"/>
					</g>
				</g>
			</g>
		</g>
	</g>
</g>
</svg>
