<?xml version="1.0" encoding="utf-8"?>
<!-- Generator: Adobe Illustrator 21.0.0, SVG Export Plug-In . SVG Version: 6.00 Build 0)  -->
<svg version="1.1" id="Layer_1" xmlns="http://www.w3.org/2000/svg" xmlns:xlink="http://www.w3.org/1999/xlink" x="0px" y="0px"
	 viewBox="0 0 12.4 10.9" style="enable-background:new 0 0 12.4 10.9;" xml:space="preserve">
<style type="text/css">
	.st0{fill:#FFFFFF;}
</style>
<title>Shape</title>
<desc>Created with Sketch.</desc>
<g id="final">
	<g id="styles" transform="translate(-2002.000000, -3872.000000)">
		<path id="Shape" class="st0" d="M2007.1,3872c2.9,0,5.2,1.9,5.2,4.1s-2.3,4.1-5.2,4.1c-0.3,0-0.5,0-0.8-0.1
			c-1.1,1.1-2.4,1.3-3.7,1.3v-0.3c0.7-0.3,1.3-0.9,1.3-1.6c0-0.1,0-0.2,0-0.3c-1.2-0.8-1.9-1.9-1.9-3.2
			C2001.9,3873.9,2004.2,3872,2007.1,3872z M2012.7,3881.3c0,0.6,0.4,1.1,1,1.4v0.2c-1.1,0-2.1-0.2-3.1-1.1c-0.2,0-0.5,0-0.7,0
			c-1,0-2-0.3-2.8-0.7c1.6,0,3.1-0.5,4.2-1.4c0.6-0.4,1-1,1.3-1.6s0.5-1.3,0.5-2c0-0.1,0-0.2,0-0.3c0.8,0.6,1.3,1.5,1.3,2.5
			c0,1.1-0.7,2.1-1.7,2.8C2012.7,3881.1,2012.7,3881.2,2012.7,3881.3z"/>
	</g>
</g>
</svg>
