<?xml version="1.0" encoding="UTF-8"?>
<svg width="24px" height="21px" viewBox="0 0 24 21" version="1.1" xmlns="http://www.w3.org/2000/svg" xmlns:xlink="http://www.w3.org/1999/xlink">
    <!-- Generator: Sketch 49.1 (51147) - http://www.bohemiancoding.com/sketch -->
    <title>Shape</title>
    <desc>Created with Sketch.</desc>
    <defs></defs>
    <g id="final" stroke="none" stroke-width="1" fill="none" fill-rule="evenodd">
        <g id="styles" transform="translate(-593.000000, -104.000000)" fill="#6E6E6E" fill-rule="nonzero">
            <g id="service_tooltips" transform="translate(567.000000, 104.000000)">
                <g id="message_tooltip">
                    <path d="M36,0 C41.522875,0 46,3.5665957 46,7.96621875 C46,12.3658418 41.522875,15.9324375 36,15.9324375 C35.469625,15.9324375 34.9490417,15.8992148 34.4409583,15.8358457 C32.2929167,17.941875 29.812375,18.3195059 27.3333333,18.375 L27.3333333,17.8595566 C28.6719167,17.2165547 29.75,16.0453945 29.75,14.7068496 C29.75,14.5201055 29.7351667,14.3367656 29.7077083,14.1574043 C27.4460833,12.6968789 26,10.4661621 26,7.96621875 C26,3.5665957 30.4771667,0 36,0 Z M46.75,17.8558652 C46.75,19.0031953 47.5065,20.0070937 48.6666667,20.5582207 L48.6666667,21 C46.51825,20.9524629 44.546125,20.6287676 42.6845833,18.8236289 C42.2441667,18.8779336 41.7930833,18.9065215 41.3333333,18.9065215 C39.3444167,18.9065215 37.5123333,18.3782812 36.0497083,17.4906211 C39.0637083,17.4802031 41.90925,16.529707 44.0670833,14.8108242 C45.1547917,13.9442871 46.0127917,12.9276328 46.617375,11.788998 C47.2582917,10.5817852 47.5833333,9.29561719 47.5833333,7.96621875 C47.5833333,7.75195312 47.5739583,7.53891797 47.557125,7.32703125 C49.069,8.55614648 50,10.2313887 50,12.0782402 C50,14.2210605 48.74675,16.1330449 46.7867083,17.3849648 C46.762875,17.5386094 46.75,17.6957812 46.75,17.8558652 Z" id="Shape"></path>
                </g>
            </g>
        </g>
    </g>
</svg>