<?xml version="1.0" encoding="utf-8"?>
<!-- Generator: Adobe Illustrator 21.0.0, SVG Export Plug-In . SVG Version: 6.00 Build 0)  -->
<svg version="1.1" id="Layer_1" xmlns="http://www.w3.org/2000/svg" xmlns:xlink="http://www.w3.org/1999/xlink" x="0px" y="0px"
	 viewBox="0 0 13 16" style="enable-background:new 0 0 13 16;" xml:space="preserve">
<style type="text/css">
	.st0{fill:#191919;}
</style>
<title>interview-microphone</title>
<desc>Created with Sketch.</desc>
<g id="Symbols">
	<g id="statistics" transform="translate(-172.000000, -40.000000)">
		<g id="Group-16">
			<g transform="translate(15.000000, 14.000000)">
				<g id="Group-37" transform="translate(153.000000, 25.000000)">
					
						<g id="interview-microphone" transform="translate(9.984026, 8.913810) rotate(-21.000000) translate(-9.984026, -8.913810) translate(1.984026, 2.913810)">
						<path id="Shape" class="st0" d="M13.1,0.1c-1.4-0.3-2.9,0.4-3.4,1.7L12.5,6c1.4,0,2.6-1,2.9-2.4C15.8,2.1,14.7,0.5,13.1,0.1z"
							/>
						<path id="Shape_1_" class="st0" d="M4.3,6.6C3.1,7.7,1.8,8.7,0.5,9.8c-0.5,0.4-0.7,1-0.3,1.6c0.4,0.6,1,0.7,1.6,0.4
							c1.5-0.8,3-1.7,4.5-2.5L4.3,6.6C4.4,6.5,4.4,6.6,4.3,6.6z"/>
						<polygon id="Shape_2_" class="st0" points="11.6,5.9 9.4,2.7 8.2,0.8 3.5,3.9 5,6 6.9,8.9 8.2,10.8 12.8,7.7 						"/>
					</g>
				</g>
			</g>
		</g>
	</g>
</g>
</svg>
