<?xml version="1.0" encoding="UTF-8"?>
<svg width="18px" height="21px" viewBox="0 0 18 21" version="1.1" xmlns="http://www.w3.org/2000/svg" xmlns:xlink="http://www.w3.org/1999/xlink">
    <!-- Generator: Sketch 49.1 (51147) - http://www.bohemiancoding.com/sketch -->
    <title>Shape</title>
    <desc>Created with Sketch.</desc>
    <defs></defs>
    <g id="final" stroke="none" stroke-width="1" fill="none" fill-rule="evenodd">
        <g id="styles" transform="translate(-710.000000, -104.000000)" fill="#6E6E6E" fill-rule="nonzero">
            <g id="service_tooltips" transform="translate(567.000000, 104.000000)">
                <g id="notification_tooltip" transform="translate(109.000000, 0.000000)">
                    <path d="M42.925,21 C44.08,21 45.025,20.055 45.025,18.9 L40.825,18.9 C40.825,20.055 41.77,21 42.925,21 Z M49.75,14.7 L49.75,8.925 C49.75,5.67 47.545,3.045 44.5,2.31 L44.5,1.575 C44.5,0.735 43.765,0 42.925,0 C42.085,0 41.35,0.735 41.35,1.575 L41.35,2.31 C38.305,3.045 36.1,5.67 36.1,8.925 L36.1,14.7 L34,16.8 L34,17.85 L51.85,17.85 L51.85,16.8 L49.75,14.7 Z" id="Shape"></path>
                </g>
            </g>
        </g>
    </g>
</svg>