<?xml version="1.0" encoding="UTF-8"?>
<svg width="15px" height="12px" viewBox="0 0 15 12" version="1.1" xmlns="http://www.w3.org/2000/svg" xmlns:xlink="http://www.w3.org/1999/xlink">
    <!-- Generator: Sketch 49.1 (51147) - http://www.bohemiancoding.com/sketch -->
    <title>photo-camera</title>
    <desc>Created with Sketch.</desc>
    <defs></defs>
    <g id="Symbols" stroke="none" stroke-width="1" fill="none" fill-rule="evenodd" fill-opacity="0.6">
        <g id="statistics" transform="translate(-171.000000, -69.000000)" fill="#191919" fill-rule="nonzero">
            <g id="Group-16">
                <g transform="translate(15.000000, 14.000000)">
                    <g id="Group-44" transform="translate(156.000000, 55.000000)">
                        <g id="photo-camera">
                            <path d="M7.2,3.72 C5.61192,3.72 4.32,5.01192 4.32,6.6 C4.32,8.18808 5.61192,9.48 7.2,9.48 C8.78808,9.48 10.08,8.18808 10.08,6.6 C10.08,5.01192 8.78808,3.72 7.2,3.72 Z" id="Shape"></path>
                            <path d="M13.24824,2.52 L11.20248,2.52 L10.24248,0.12 L4.15752,0.12 L3.19752,2.52 L2.88,2.52 L2.88,1.32 L1.44,1.32 L1.44,2.52 L1.15176,2.52 C0.51648,2.52 0,3.03648 0,3.67176 L0,10.72008 C0,11.35968 0.52032,11.88 1.15992,11.88 L13.24008,11.88 C13.87968,11.88 14.4,11.35968 14.4,10.72008 L14.4,3.67176 C14.4,3.03648 13.88352,2.52 13.24824,2.52 Z M2.4,2.52 L1.92,2.52 L1.92,1.8 L2.4,1.8 L2.4,2.52 Z M7.2,10.92 C4.818,10.92 2.88,8.982 2.88,6.6 C2.88,4.218 4.818,2.28 7.2,2.28 C9.582,2.28 11.52,4.218 11.52,6.6 C11.52,8.982 9.582,10.92 7.2,10.92 Z M12.48,5.4 C11.95056,5.4 11.52,4.96944 11.52,4.44 C11.52,3.91056 11.95056,3.48 12.48,3.48 C13.00944,3.48 13.44,3.91056 13.44,4.44 C13.44,4.96944 13.00944,5.4 12.48,5.4 Z" id="Shape"></path>
                        </g>
                    </g>
                </g>
            </g>
        </g>
    </g>
</svg>