<?xml version="1.0" encoding="utf-8"?>
<!-- Generator: Adobe Illustrator 21.0.0, SVG Export Plug-In . SVG Version: 6.00 Build 0)  -->
<svg version="1.1" id="Layer_1" xmlns="http://www.w3.org/2000/svg" xmlns:xlink="http://www.w3.org/1999/xlink" x="0px" y="0px"
	 viewBox="0 0 15 12" style="enable-background:new 0 0 15 12;" xml:space="preserve">
<style type="text/css">
	.st0{fill:#191919;}
</style>
<title>photo-camera</title>
<desc>Created with Sketch.</desc>
<g id="Symbols">
	<g id="statistics" transform="translate(-171.000000, -69.000000)">
		<g id="Group-16">
			<g transform="translate(15.000000, 14.000000)">
				<g id="Group-44" transform="translate(156.000000, 55.000000)">
					<g id="photo-camera">
						<path id="Shape" class="st0" d="M7.2,3.7C5.6,3.7,4.3,5,4.3,6.6s1.3,2.9,2.9,2.9s2.9-1.3,2.9-2.9S8.8,3.7,7.2,3.7z"/>
						<path id="Shape_1_" class="st0" d="M13.2,2.5h-2l-1-2.4H4.2l-1,2.4H2.9V1.3H1.4v1.2H1.2C0.5,2.5,0,3,0,3.7v7
							c0,0.6,0.5,1.2,1.2,1.2h12.1c0.6,0,1.2-0.5,1.2-1.2v-7C14.4,3,13.9,2.5,13.2,2.5z M2.4,2.5H1.9V1.8h0.5V2.5z M7.2,10.9
							c-2.4,0-4.3-1.9-4.3-4.3s1.9-4.3,4.3-4.3s4.3,1.9,4.3,4.3S9.6,10.9,7.2,10.9z M12.5,5.4c-0.5,0-1-0.4-1-1s0.4-1,1-1
							c0.5,0,1,0.4,1,1S13,5.4,12.5,5.4z"/>
					</g>
				</g>
			</g>
		</g>
	</g>
</g>
</svg>
