<?xml version="1.0" encoding="utf-8"?>
<!-- Generator: Adobe Illustrator 21.0.0, SVG Export Plug-In . SVG Version: 6.00 Build 0)  -->
<svg version="1.1" id="Layer_1" xmlns="http://www.w3.org/2000/svg" xmlns:xlink="http://www.w3.org/1999/xlink" x="0px" y="0px"
	 viewBox="0 0 12 12" style="enable-background:new 0 0 12 12;" xml:space="preserve">
<style type="text/css">
	.st0{fill:#191919;}
</style>
<title>Group 14</title>
<desc>Created with Sketch.</desc>
<path class="st0" d="M9,0H3C1.3,0,0,1.3,0,3v6c0,1.7,1.3,3,3,3h6c1.7,0,3-1.3,3-3V3C12,1.3,10.7,0,9,0z M9.9,3.6L5.5,7.9
	C5.3,8,5.1,8,5,7.9L3.1,6.1C3,6,3,5.7,3.1,5.6s0.4-0.1,0.5,0l1.6,1.6l4.2-4.1C9.5,3,9.8,3,9.9,3.1C10,3.2,10,3.4,9.9,3.6z"/>
</svg>
