<?xml version="1.0" encoding="UTF-8"?>
<svg width="14px" height="14px" viewBox="0 0 14 14" version="1.1" xmlns="http://www.w3.org/2000/svg" xmlns:xlink="http://www.w3.org/1999/xlink">
    <!-- Generator: Sketch 49.1 (51147) - http://www.bohemiancoding.com/sketch -->
    <title>Shape</title>
    <desc>Created with Sketch.</desc>
    <defs></defs>
    <g id="Symbols" stroke="none" stroke-width="1" fill="none" fill-rule="evenodd">
        <g id="head" transform="translate(-368.000000, -23.000000)" fill="#E2E2E2" fill-rule="nonzero">
            <g id="search">
                <g transform="translate(52.000000, 11.000000)">
                    <path d="M329.828571,25.0057143 L326.462857,21.64 C327.297143,20.6228571 327.8,19.32 327.8,17.9 C327.8,14.6428571 325.157143,12 321.9,12 C318.64,12 316,14.6428571 316,17.9 C316,21.1571429 318.64,23.8 321.9,23.8 C323.32,23.8 324.62,23.3 325.637143,22.4657143 L329.002857,25.8285714 C329.231429,26.0571429 329.6,26.0571429 329.828571,25.8285714 C330.057143,25.6028571 330.057143,25.2314286 329.828571,25.0057143 Z M321.9,22.6257143 C319.291429,22.6257143 317.171429,20.5057143 317.171429,17.9 C317.171429,15.2942857 319.291429,13.1714286 321.9,13.1714286 C324.505714,13.1714286 326.628571,15.2942857 326.628571,17.9 C326.628571,20.5057143 324.505714,22.6257143 321.9,22.6257143 Z" id="Shape"></path>
                </g>
            </g>
        </g>
    </g>
</svg>