<?xml version="1.0" encoding="utf-8"?>
<!-- Generator: Adobe Illustrator 21.0.0, SVG Export Plug-In . SVG Version: 6.00 Build 0)  -->
<svg version="1.1" id="Layer_1" xmlns="http://www.w3.org/2000/svg" xmlns:xlink="http://www.w3.org/1999/xlink" x="0px" y="0px"
	 viewBox="0 0 40 40" style="enable-background:new 0 0 40 40;" xml:space="preserve">
<style type="text/css">
	.st0{fill:#FFB74D;}
</style>
<title>share</title>
<desc>Created with Sketch.</desc>
<path class="st0" d="M20,3C11.7,3,5,9.7,5,18c0,8.3,6.7,15,15,15c8.3,0,15-6.7,15-15C35,9.7,28.3,3,20,3z M17.4,18.1
	c0,0.1,0,0.3-0.1,0.4l4.5,2.6c0.3-0.3,0.8-0.5,1.2-0.5c1,0,1.8,0.8,1.8,1.8c0,1-0.8,1.8-1.8,1.8c-1,0-1.8-0.8-1.8-1.8
	c0-0.1,0-0.3,0.1-0.4l-4.5-2.6c-0.3,0.3-0.8,0.5-1.3,0.5c-1.1,0-1.9-0.8-1.9-1.9c0-1,0.8-1.9,1.9-1.9c0.5,0,0.9,0.2,1.3,0.5l4.5-2.6
	c0-0.1-0.1-0.3-0.1-0.4c0-1,0.8-1.9,1.9-1.9c1,0,1.9,0.8,1.9,1.9c0,1-0.8,1.9-1.9,1.9c-0.5,0-0.9-0.2-1.3-0.5l-4.5,2.6
	C17.4,17.8,17.4,17.9,17.4,18.1z"/>
</svg>
