<?xml version="1.0" encoding="utf-8"?>
<!-- Generator: Adobe Illustrator 21.0.0, SVG Export Plug-In . SVG Version: 6.00 Build 0)  -->
<svg version="1.1" id="Layer_1" xmlns="http://www.w3.org/2000/svg" xmlns:xlink="http://www.w3.org/1999/xlink" x="0px" y="0px"
	 viewBox="0 0 11.4 12.5" style="enable-background:new 0 0 11.4 12.5;" xml:space="preserve">
<style type="text/css">
	.st0{fill:#FFFFFF;}
</style>
<title>Shape</title>
<desc>Created with Sketch.</desc>
<g id="final">
	<g id="styles" transform="translate(-2080.000000, -3838.000000)">
		<path id="Shape" class="st0" d="M2089.4,3846.8c-0.5,0-0.9,0.2-1.2,0.5l-4.5-2.6c0-0.1,0.1-0.3,0.1-0.4s0-0.3-0.1-0.4l4.5-2.6
			c0.3,0.3,0.8,0.5,1.3,0.5c1.1,0,1.9-0.8,1.9-1.9c0-1-0.8-1.9-1.9-1.9c-1,0-1.9,0.8-1.9,1.9c0,0.2,0,0.3,0.1,0.4l-4.5,2.6
			c-0.3-0.3-0.8-0.5-1.3-0.5c-1.1,0-1.9,0.8-1.9,1.9s0.8,1.9,1.9,1.9c0.5,0,0.9-0.2,1.3-0.5l4.5,2.6c0,0.1-0.1,0.3-0.1,0.4
			c0,1,0.8,1.8,1.8,1.8s1.8-0.8,1.8-1.8C2091.2,3847.6,2090.4,3846.8,2089.4,3846.8z"/>
	</g>
</g>
</svg>
