<?xml version="1.0" encoding="utf-8"?>
<!-- Generator: Adobe Illustrator 21.0.0, SVG Export Plug-In . SVG Version: 6.00 Build 0)  -->
<svg version="1.1" id="Layer_1" xmlns="http://www.w3.org/2000/svg" xmlns:xlink="http://www.w3.org/1999/xlink" x="0px" y="0px"
	 viewBox="0 0 14 14" style="enable-background:new 0 0 14 14;" xml:space="preserve">
<style type="text/css">
	.st0{fill:#FFFFFF;}
</style>
<title>Shape Copy 3</title>
<desc>Created with Sketch.</desc>
<g id="Symbols">
	<g id="greatest_desire_action" transform="translate(-200.000000, -4.000000)">
		<g id="Group-12">
			<g transform="translate(150.000000, 1.000000)">
				<g id="stars" transform="translate(0.000000, 4.000000)">
					<g id="Shape-Copy-3">
						<path class="st0" d="M60.5,12.5c-0.1,0-0.3,0-0.4-0.1l-3.1-2l-3.1,2c-0.3,0.2-0.6,0.2-0.9,0c-0.3-0.2-0.4-0.5-0.3-0.9l0.8-3.7
							l-2.8-2.5c-0.2-0.2-0.3-0.6-0.2-0.9c0.1-0.3,0.4-0.5,0.7-0.6l3.6-0.3L56.3,0c0.2-0.6,1.2-0.6,1.5,0l1.4,3.5l3.6,0.3
							c0.3,0,0.6,0.2,0.7,0.6c0.1,0.3,0,0.7-0.2,0.9l-2.7,2.5l0.8,3.7c0.1,0.3-0.1,0.7-0.3,0.9C60.8,12.5,60.7,12.5,60.5,12.5z
							 M51.7,4.8l2.9,2.6l-0.9,3.9l3.2-2l3.2,2l-0.9-3.9l2.9-2.6l-3.8-0.3L57,0.8l-1.5,3.6L51.7,4.8z M56.8,0.4
							C56.8,0.4,56.8,0.4,56.8,0.4L56.8,0.4z"/>
					</g>
				</g>
			</g>
		</g>
	</g>
</g>
</svg>
