<?xml version="1.0" encoding="UTF-8"?>
<svg width="9px" height="12px" viewBox="0 0 9 12" version="1.1" xmlns="http://www.w3.org/2000/svg" xmlns:xlink="http://www.w3.org/1999/xlink">
    <!-- Generator: Sketch 49.1 (51147) - http://www.bohemiancoding.com/sketch -->
    <title>man-user</title>
    <desc>Created with Sketch.</desc>
    <defs></defs>
    <g id="Symbols" stroke="none" stroke-width="1" fill="none" fill-rule="evenodd">
        <g id="group_activity" transform="translate(0.000000, -4.000000)" fill="#B3B3B3" fill-rule="nonzero">
            <g id="Group-15">
                <g transform="translate(0.000000, 4.000000)">
                    <g id="man-user">
                        <path d="M4.50003548,6 C5.88066956,6 7,4.65686761 7,3.00001753 C7,1.34313239 6.63250738,0 4.50003548,0 C2.36756358,0 2,1.34313239 2,3.00001753 C2,4.65686761 3.11933044,6 4.50003548,6 Z" id="Shape"></path>
                        <path d="M8.99496198,10.2026123 C8.95083704,7.33455242 8.58722049,6.51731104 5.80471192,6 C5.80471192,6 5.41303123,6.51414141 4.50010144,6.51414141 C3.58717165,6.51414141 3.19542333,6 3.19542333,6 C0.443278132,6.51166841 0.057548389,7.31678858 0.00683006732,10.1094392 C0.00267116494,10.3374782 0.000743868718,10.3494601 0,10.3229885 C0.000169061072,10.3725879 0.000371934359,10.464333 0.000371934359,10.6243121 C0.000371934359,10.6243121 0.66282084,12 4.50010144,12 C8.33731441,12 8.99983094,10.6243121 8.99983094,10.6243121 C8.99983094,10.5215256 8.99989856,10.4500522 9,10.4014281 C8.99925613,10.4177987 8.99776839,10.3860676 8.99496198,10.2026123 Z" id="Shape"></path>
                    </g>
                </g>
            </g>
        </g>
    </g>
</svg>