<?xml version="1.0" encoding="UTF-8"?>
<svg width="12px" height="12px" viewBox="0 0 12 12" version="1.1" xmlns="http://www.w3.org/2000/svg" xmlns:xlink="http://www.w3.org/1999/xlink">
    <!-- Generator: Sketch 49.1 (51147) - http://www.bohemiancoding.com/sketch -->
    <title>Path</title>
    <desc>Created with Sketch.</desc>
    <defs></defs>
    <g id="final" stroke="none" stroke-width="1" fill="none" fill-rule="evenodd">
        <g id="styles" transform="translate(-404.000000, -106.000000)" fill="#C2C2C2">
            <g id="search" transform="translate(86.000000, 92.000000)">
                <g id="autocomplete_search">
                    <path d="M330.035173,18.5351731 L324.67803,18.5351731 L324.67803,13.1780303 C324.67803,12.5866017 324.19803,12.1066017 323.606602,12.1066017 C323.015173,12.1066017 322.535173,12.5866017 322.535173,13.1780303 L322.535173,18.5351731 L317.17803,18.5351731 C316.586602,18.5351731 316.106602,19.0151731 316.106602,19.6066017 C316.106602,20.1980303 316.586602,20.6780303 317.17803,20.6780303 L322.535173,20.6780303 L322.535173,26.0351731 C322.535173,26.6266017 323.015173,27.1066017 323.606602,27.1066017 C324.19803,27.1066017 324.67803,26.6266017 324.67803,26.0351731 L324.67803,20.6780303 L330.035173,20.6780303 C330.626602,20.6780303 331.106602,20.1980303 331.106602,19.6066017 C331.106602,19.0151731 330.626602,18.5351731 330.035173,18.5351731 Z" id="Path" transform="translate(323.606602, 19.606602) rotate(45.000000) translate(-323.606602, -19.606602) "></path>
                </g>
            </g>
        </g>
    </g>
</svg>