<svg width="0" height="0" style="position:absolute"><symbol viewBox="0 0 15 12" id="Group" xmlns="http://www.w3.org/2000/svg"><path d="M3.298 4.213c.958 0 1.735-.943 1.735-2.106C5.033.943 4.778 0 3.298 0 1.82 0 1.564.943 1.564 2.107c0 1.163.777 2.106 1.734 2.106zM6.57 7.345c-.031-2.027-.296-2.604-2.322-2.97 0 0-.285.363-.95.363-.664 0-.95-.363-.95-.363-2.003.362-2.284.93-2.32 2.904-.004.161-.005.17-.006.151v.213s.483.972 3.276.972c2.794 0 3.276-.972 3.276-.972v-.157l-.003-.14zm4.482-3.132c.958 0 1.735-.943 1.735-2.106C12.787.943 12.532 0 11.052 0S9.318.943 9.318 2.107c0 1.163.776 2.106 1.734 2.106zm3.273 3.132c-.033-2.027-.297-2.604-2.323-2.97 0 0-.285.363-.95.363-.664 0-.95-.363-.95-.363-2.003.362-2.284.93-2.32 2.904-.004.161-.005.17-.006.151v.213s.483.972 3.276.972c2.794 0 3.276-.972 3.276-.972v-.157l-.003-.14z"/><path d="M7.404 5.918c1.15 0 2.082-1.132 2.082-2.528 0-1.397-.306-2.528-2.082-2.528-1.775 0-2.081 1.131-2.081 2.528 0 1.396.932 2.528 2.081 2.528zm3.927 3.758c-.039-2.433-.356-3.126-2.787-3.564 0 0-.342.436-1.14.436-.797 0-1.14-.436-1.14-.436-2.404.434-2.74 1.116-2.785 3.485-.004.193-.005.203-.006.18v.256S4.052 11.2 7.404 11.2c3.352 0 3.931-1.167 3.931-1.167v-.189c0 .014-.002-.013-.004-.168z"/></symbol><symbol id="Oval" viewBox="0 0 220 214" xmlns="http://www.w3.org/2000/svg"><style>.abst0{fill:none;stroke:#34c9be;stroke-width:31}</style><g id="abSymbols"><g id="abpersonal_profile_head" transform="translate(-271 -57)"><g id="abpublic_profile_head"><g id="abperson" transform="translate(250 30)"><path id="abOval-2_1_" class="abst0" d="M42.4 186.9c22.7 25.5 48.4 37.8 77.6 37.8 57.8 0 104.7-46.9 104.7-104.7-.1-28.8-9.4-52.4-28-71.5"/></g></g></g></g></symbol><symbol id="Oval-2" viewBox="0 0 220 214" xmlns="http://www.w3.org/2000/svg"><style>.acst0{opacity:.7}.acst1{fill:#34c9be}</style><g id="acSymbols"><g id="acpersonal_profile_head" transform="translate(-271 -57)"><g id="acpublic_profile_head"><g id="acperson" transform="translate(250 30)"><g id="acOval-2_1_" class="acst0"><path class="acst1" d="M120 240.2c-33.8 0-63.8-14.5-89.2-43L54 176.6c19.5 21.9 41.1 32.6 66 32.6 49.2 0 89.2-40 89.2-89.2-.1-24.6-7.8-44.5-23.6-60.7l22.2-21.6c21.4 22 32.3 49.6 32.4 82.3 0 66.3-53.9 120.2-120.2 120.2z"/></g></g></g></g></g></symbol><symbol id="add" viewBox="0 0 22 21" xmlns="http://www.w3.org/2000/svg"><style>.adst0{fill:#6e6e6e}</style><path class="adst0" d="M11.1 0C5.3 0 .6 4.7.6 10.5S5.3 21 11.1 21s10.5-4.7 10.5-10.5S16.9 0 11.1 0zm4 11.2h-3.3v3.3c0 .4-.3.7-.7.7-.4 0-.7-.3-.7-.7v-3.3H7.2c-.4 0-.7-.3-.7-.7s.3-.7.7-.7h3.3V6.6c0-.4.3-.7.7-.7.4 0 .7.3.7.7v3.3h3.3c.4 0 .7.3.7.7s-.5.6-.8.6z"/></symbol><symbol id="add_click" viewBox="0 0 30 30" xmlns="http://www.w3.org/2000/svg"><style>.aest0{fill:#ffb74d}</style><path class="aest0" d="M15 0C6.7 0 0 6.7 0 15s6.7 15 15 15 15-6.7 15-15S23.3 0 15 0zm5.9 15.6h-5.1v5.1c0 .3-.3.6-.6.6s-.6-.3-.6-.6v-5.1H9.5c-.3 0-.6-.3-.6-.6s.3-.6.6-.6h5.1v-5c0-.3.3-.6.6-.6s.6.3.6.6v5.1h5.1c.3 0 .6.3.6.6s-.3.5-.6.5z"/></symbol><symbol viewBox="0 0 11 12" id="birthday-cake" xmlns="http://www.w3.org/2000/svg"><path d="M9.297 10.392c-.608 0-.93-.266-1.19-.48-.233-.192-.401-.33-.776-.33s-.544.138-.777.33c-.259.214-.581.48-1.19.48-.607 0-.93-.266-1.189-.48-.233-.192-.402-.33-.777-.33s-.543.138-.776.33c-.26.214-.582.48-1.19.48s-.947-.266-1.206-.48C.148 9.848.081 9.79 0 9.74V12h10.703V9.73c-.081.05-.149.113-.233.182-.26.214-.565.48-1.173.48z"/><path d="M0 7.338v1.686c.284.097.475.253.639.388.233.192.41.331.785.331.375 0 .548-.139.78-.331.26-.214.584-.48 1.192-.48s.932.266 1.19.48c.234.192.403.331.778.331s.544-.139.777-.331c.259-.214.582-.48 1.19-.48s.93.266 1.19.48c.232.192.4.331.776.331.375 0 .527-.139.76-.331.17-.141.362-.304.646-.4V7.339H0zm1.338-3.324h8.027v2.635H1.338zM3 1.923a.68.68 0 0 0 .351-.585C3.351.968 2.686 0 2.686 0s-.674.968-.674 1.338c0 .252.137.47.34.585v1.401H3V1.923zm2.676-.013a.656.656 0 0 0 .33-.572C6.007.968 5.342 0 5.342 0s-.674.968-.674 1.338c0 .26.157.484.36.595v1.391h.649V1.91zm2.675.013a.68.68 0 0 0 .352-.585C8.703.968 8.037 0 8.037 0s-.674.968-.674 1.338c0 .252.137.47.34.585v1.401h.648V1.923z"/></symbol><symbol viewBox="0 0 14 12" id="blog" xmlns="http://www.w3.org/2000/svg"><path d="M0 0h13.333v1.333H0zm0 5.333h13.333v1.333H0zm0 5.334h13.333V12H0zm0-8h9.333V4H0zM0 8h9.333v1.333H0z" fill-rule="evenodd"/></symbol><symbol id="blogs" viewBox="0 0 8 12" xmlns="http://www.w3.org/2000/svg"><style>.ahst0{fill:#191919}</style><g transform="translate(15 14)" id="ahGroup-16"><g id="ahGroup-36" transform="translate(159)"><path id="ahShape" class="ahst0" d="M-173-14l-1 6c3 2 3.5 6 3.5 6h.3v-6.3c-.3-.1-.6-.4-.6-.7 0-.4.3-.8.7-.8.4 0 .7.3.7.8 0 .3-.2.6-.6.7V-2h.3s.5-4 3.5-6l-1-6h-5.8z"/></g></g></symbol><symbol id="calendar" viewBox="0 0 14 14" xmlns="http://www.w3.org/2000/svg"><style>.aist0{fill:#1cc2b4}</style><path class="aist0" d="M12.8 1.3h-1.9V.4c0-.2-.2-.4-.4-.4s-.4.2-.4.4v.9H7.4V.4C7.4.2 7.2 0 7 0s-.4.2-.4.4v.9H3.9V.4c0-.2-.2-.4-.4-.4s-.4.2-.4.4v.9H1.2C.5 1.3 0 1.8 0 2.5v10.4c0 .6.5 1.1 1.2 1.1h11.7c.6 0 1.2-.5 1.2-1.2V2.5c-.1-.7-.6-1.2-1.3-1.2zm-8 9.6H3.1V9.6h1.8v1.3zm0-2.1H3.1V7.4h1.8v1.4zm0-2.2H3.1V5.2h1.8v1.4zm3.1 4.3H6.1V9.6h1.8v1.3zm0-2.1H6.1V7.4h1.8v1.4zm0-2.2H6.1V5.2h1.8v1.4zm3 4.3H9.2V9.6H11v1.3zm0-2.1H9.2V7.4H11v1.4zm0-2.2H9.2V5.2H11v1.4z"/></symbol><symbol viewBox="0 0 8 6" id="check" xmlns="http://www.w3.org/2000/svg"><path d="M7.668.826L6.983.141A.466.466 0 0 0 6.641 0a.466.466 0 0 0-.343.141l-3.305 3.31L1.51 1.965a.466.466 0 0 0-.342-.141.466.466 0 0 0-.343.14L.14 2.65a.466.466 0 0 0-.14.343c0 .134.047.248.141.342L1.965 5.16l.685.685a.466.466 0 0 0 .343.141.467.467 0 0 0 .342-.14l.686-.686 3.647-3.647a.467.467 0 0 0 .141-.343.467.467 0 0 0-.14-.343z" fill-opacity=".8"/></symbol><symbol viewBox="0 0 12 12" id="close" xmlns="http://www.w3.org/2000/svg"><path d="M10.91 9.395L7.122 5.607l3.788-3.788A1.072 1.072 0 0 0 9.395.303L5.607 4.091 1.819.303A1.072 1.072 0 0 0 .303 1.82l3.788 3.788L.303 9.395A1.072 1.072 0 0 0 1.82 10.91l3.788-3.788 3.788 3.788a1.072 1.072 0 0 0 1.515-1.515z" fill-rule="evenodd"/></symbol><symbol id="comment_border" viewBox="0 0 16 14" xmlns="http://www.w3.org/2000/svg"><style>.alst0{fill:#fff}</style><g id="alSymbols"><g id="algreatest_desire_action" transform="translate(1 -4)"><g transform="translate(0 1)" id="alGroup-3"><path class="alst0" d="M.9 16.5H-.4l.9-.9c.4-.4.7-1.2.8-2.3C.1 12.2-.5 10.8-.5 9.4c0-3.3 3.4-5.9 7.5-5.9s7.5 2.7 7.5 5.9-3.4 5.9-7.5 5.9c-.9 0-1.7-.1-2.5-.3-.9.7-2.2 1.5-3.6 1.5zM7 4.5C3.4 4.5.5 6.7.5 9.4c0 1.2.6 2.4 1.7 3.3l.2.2v.2c0 .9-.2 1.6-.4 2.2.9-.3 1.7-.8 2.2-1.2l.2-.2.2.1c.8.2 1.6.4 2.4.4 3.6 0 6.5-2.2 6.5-4.9 0-2.8-2.9-5-6.5-5z" id="alShape"/></g></g></g></symbol><symbol viewBox="0 0 14 12" id="comments" xmlns="http://www.w3.org/2000/svg"><path d="M7 0C3.134 0 0 2.437 0 5.441c0 1.423.703 2.72 1.854 3.69-.044.944-.242 2.214-.942 2.869 1.337 0 2.706-.87 3.518-1.498.796.246 1.663.38 2.57.38 3.866 0 7-2.436 7-5.44C14 2.436 10.866 0 7 0z"/></symbol><symbol viewBox="0 0 12 12" id="earth_green" xmlns="http://www.w3.org/2000/svg"><path d="M10.527 4.265l.104.075h.098v-.187l.307-.03.29.217h.48l.033-.03a6.108 6.108 0 0 0-.162-.476l-.313.005-.156-.172-.03-.277-.161.088-.086.338-.232-.247-.01-.233-.223-.193-.083-.082h-.26l.082.232.313.174.054.057-.068.034.003.184-.152.063-.13-.028-.081-.115.211.011.057-.077-.468-.316-.036-.134-.19.172-.193-.04-.293.382-.058.15-.188.016-.278.002-.166-.078-.05-.33.06-.157.283-.062.309.062.038-.17-.131-.032.044-.265.31-.049.218-.306.224-.038.202.03h.075l-.042-.288-.245.1-.087-.216-.143-.02-.027-.147.117-.127.277-.109.07-.127A5.975 5.975 0 0 0 6.085 0a5.966 5.966 0 0 0-3.526 1.15l.303-.003.135.074.254.055.02.1.404.015-.055-.13-.359-.01.085-.08-.03-.094h-.324l.354-.265h.339l.16.22.264.015.159-.155.12.06-.22.214-.289.006c.015 0 .025.209.025.209l.369-.01.04-.1.254-.015.03-.15-.15-.024.05-.135.115-.035.398.02-.22.2.036.154.23.035-.016-.28.22-.114.389-.045.563.25v.214l.18.045-.09.17h-.255l-.075.194-.58-.137.456-.244-.174-.147-.394.05-.034.035h-.002l-.006.008-.113.118-.188.015.015.094.066.027-.003.03-.152.022-.012.089-.146.007-.026-.176-.262.08-.534.313.06.22.15.098.298.041v.34l.138-.022.128-.266.318-.1v-.408l.177-.134.427.101-.03.27h.115l.314-.155.015.354.23.14-.01.21-.22.074.015.07.264.12-.005.144-.076.007a.02.02 0 0 0-.001-.004l-.334-.103-.014-.107.098-.067v-.098l-.105-.026-.026.09-.184.028-.019-.006v.01l-.063.01-.052-.106-.06-.026H5.3l-.06.05v.108l.112.037.111.016-.025.01-.1.112-.045-.055-.098-.026-.265.25.034.028-.392.217-.37.384-.024.171-.37.243-.184.185.02.369-.254-.119.002-.215h-.708l-.366.185-.16.294-.062.232.103.226.288.035.46-.307.04.153-.14.264.349.06.035.54.478.08.304-.351.37.075.13.18.353-.02.01-.105.195.094.22.344.378.005.14.245.02.299.418.16.529.005.155.254.234.075-.045.21-.257.326-.075.722-.231.183-.344-.01-.115.2.085.374-.374.478-.12.22-.356.171-.235.036-.01.1.165.047-.02.107-.147.142.09.113.177.005-.01.136-.047.135-.015.11.262.22-.035.115-.357-.006-.355-.31-.277-.487.039-.47-.21-.279.085-.473-.125-.035V8.478s-.349-.265-.369-.265c-.02 0-.184-.044-.184-.044l-.035-.195-.454-.568.045-.204.015-.335.314-.22-.045-.373-.459-.035-.359-.409-.254-.07-.164-.03.02-.15-.21-.03v.085l-.524-.13-.21-.323.085-.156-.331-.484-.057-.354H.996l.045.344.23.354-.026.14-.194-.03-.24-.408v-.475l-.249-.12v-.341A5.97 5.97 0 0 0 .084 6c0 3.308 2.691 6 6 6a5.99 5.99 0 0 0 4.653-2.218h-.198v-.399l-.229-.308v-.48l-.175-.174-.015-.2.222-.423-.42-.744.049-.504-.38-.039-.139-.14h-.254l-.13.12H8.62l-.015.04h-.25l-.572-.653.005-.509.094-.034.035-.195h-.134l-.055-.204.663-.479v-.339l.324-.18.132.013h.266l.21-.112.673-.053v.344l.532.135zM8.844 2.126l.055-.085.197-.04.05.24.104.17.07.08.127.049-.12.142-.232.023h-.174l.02-.207.145-.03-.013-.098-.135-.084-.094-.065v-.095zM8.52 2.5l.12-.192.162-.037.114.05-.01.129-.247.174h-.14V2.5h.001zm-3.26.738l-.125.01.007-.086.056-.07.075.059-.013.087zm.438-.153l-.085.007-.017.082-.066.041-.105.01a1.37 1.37 0 0 1-.006-.044h-.041v-.089h.172L5.585 3h.069l.078.015-.034.07z"/></symbol><symbol id="edit" viewBox="0 0 12 11.9" xmlns="http://www.w3.org/2000/svg"><style>.aost0{fill:#fff}</style><g id="aoSymbols"><g id="aopersonal_profile_head" transform="translate(-437 -217)"><path id="aoShape" class="aost0" d="M444.5 219l2.4 2.4-6.2 6.2-2.4-2.4 6.2-6.2zm4.3-.6l-1.1-1.1c-.4-.4-1.1-.4-1.5 0l-1 1 2.4 2.4 1.2-1.2c.3-.2.3-.8 0-1.1zM437 228.6c0 .2.1.4.3.3l2.7-.7-2.4-2.4-.6 2.8z"/></g></g></symbol><symbol id="edit_desire" viewBox="0 0 30 30" xmlns="http://www.w3.org/2000/svg"><style>.apst0{fill:#fff;fill-opacity:.5}</style><path class="apst0" d="M15 0C6.7 0 0 6.7 0 15s6.7 15 15 15 15-6.7 15-15S23.3 0 15 0zM7.5 23c-.3 0-.6-.2-.5-.5l.8-3.7 3.3 3.3-3.6.9zm4.5-1.8l-3.3-3.3L17 9.7l3.3 3.3-8.3 8.2zm10.7-10.7l-1.6 1.6-3.3-3.3 1.4-1.4c.6-.6 1.5-.6 2 0l1.5 1.5c.5.4.5 1.1 0 1.6z"/></symbol><symbol id="edit_desire_hover" viewBox="0 0 30 30" xmlns="http://www.w3.org/2000/svg"><style>.aqst0{fill:#afadaa}</style><g id="aqfinal"><g id="aqstyles" transform="translate(-1653 -3220)"><g id="aqedit_hover" transform="translate(1653 3220)"><path id="aqShape" class="aqst0" d="M17 9.7l3.3 3.3-8.3 8.2-3.3-3.3L17 9.7zm5.7-.8l-1.5-1.5c-.6-.6-1.5-.6-2 0l-1.4 1.4 3.3 3.3 1.6-1.6c.5-.5.5-1.2 0-1.6zM7 22.5c-.1.3.2.5.5.5l3.6-.9-3.3-3.3-.8 3.7z"/></g></g></g></symbol><symbol viewBox="0 0 13 10" id="email" xmlns="http://www.w3.org/2000/svg"><path d="M1.188 3.018l1.416.984c.788.546 1.39.966 1.81 1.26l.293.211c.15.108.274.196.373.263.1.066.219.141.36.224.14.083.272.145.397.186.124.042.24.063.345.063h.014c.106 0 .221-.021.345-.063.125-.04.257-.103.398-.186.14-.083.26-.158.359-.224a14.3 14.3 0 0 0 .373-.263 29.7 29.7 0 0 1 .293-.21l3.233-2.246c.336-.234.617-.518.843-.85.225-.33.338-.678.338-1.042 0-.304-.11-.564-.328-.78a1.068 1.068 0 0 0-.777-.325H1.105C.751.02.478.14.287.379.096.619 0 .918 0 1.277c0 .29.127.604.38.943.253.338.523.604.808.798z"/><path d="M11.687 3.757a143.557 143.557 0 0 0-3.44 2.383c-.262.193-.475.344-.638.452a3.943 3.943 0 0 1-.653.332 1.988 1.988 0 0 1-.76.169h-.014c-.235 0-.488-.056-.76-.17a3.945 3.945 0 0 1-.652-.33c-.164-.109-.377-.26-.64-.453-.62-.456-1.764-1.25-3.431-2.383A3.659 3.659 0 0 1 0 3.156V8.64c0 .304.108.564.325.78.216.217.476.325.78.325h10.168c.304 0 .564-.108.78-.324.217-.217.325-.477.325-.781V3.156c-.198.22-.428.421-.69.6z"/></symbol><symbol viewBox="0 0 7 12" id="facebook" xmlns="http://www.w3.org/2000/svg"><path d="M.194 6.391h1.315v5.415c0 .107.087.194.194.194h2.23a.194.194 0 0 0 .193-.194v-5.39h1.512a.194.194 0 0 0 .193-.17l.23-1.994a.194.194 0 0 0-.193-.216H4.126v-1.25c0-.376.203-.568.603-.568h1.14a.194.194 0 0 0 .193-.193V.195a.194.194 0 0 0-.194-.194h-1.57L4.228 0c-.272 0-1.22.053-1.967.741-.828.763-.713 1.675-.686 1.834v1.46H.194A.194.194 0 0 0 0 4.23v1.969c0 .107.087.193.194.193z"/></symbol><symbol viewBox="0 0 22 21" id="favorites" xmlns="http://www.w3.org/2000/svg"><path d="M10.235.475a.853.853 0 0 1 1.527 0l2.739 5.549a.852.852 0 0 0 .641.465l6.124.89a.85.85 0 0 1 .472 1.452l-4.431 4.32a.852.852 0 0 0-.245.754l1.045 6.1a.853.853 0 0 1-1.236.898l-5.478-2.88a.851.851 0 0 0-.792 0l-5.478 2.88a.853.853 0 0 1-1.235-.898l1.045-6.1a.851.851 0 0 0-.245-.754l-4.43-4.32a.851.851 0 0 1 .47-1.451l6.125-.89a.851.851 0 0 0 .641-.466l2.74-5.548z"/></symbol><symbol id="follow" viewBox="0 0 13.3 13.1" xmlns="http://www.w3.org/2000/svg"><style>.aust0{fill:#fff}</style><g id="auSymbols"><g id="auperson" transform="translate(-152 -210)"><path id="auShape" class="aust0" d="M159 210.6l1.6 3.9 4.2.4c.3 0 .4.4.2.6l-3.2 2.8 1 4.1c.1.3-.2.5-.5.4l-3.6-2.2-3.6 2.2c-.3.2-.6-.1-.5-.4l1-4.1-3.2-2.8c-.2-.2-.1-.6.2-.6l4.2-.4 1.6-3.9c.2-.3.5-.3.6 0z"/></g></g></symbol><symbol id="followed" viewBox="0 0 12 8.7" xmlns="http://www.w3.org/2000/svg"><style>.avst0{fill:#fff}</style><g id="avfinal"><g id="avstyles" transform="translate(-2045 -3864)"><path id="avShape" class="avst0" d="M2056.8 3864.1c-.2-.2-.6-.2-.8 0l-7.2 7.2-2.8-2.8c-.2-.2-.6-.2-.8 0s-.2.6 0 .8l3.2 3.2c.2.2.6.2.8 0l7.6-7.6c.3-.1.3-.5 0-.8z"/></g></g></symbol><symbol id="friend" viewBox="0 0 13.6 13.6" xmlns="http://www.w3.org/2000/svg"><style>.awst0{fill:#fff}</style><path class="awst0" d="M13.6 6.5c-.2-.5-.6-.8-1.2-.8H7.8V1.1C7.8.5 7.3 0 6.7 0S5.6.5 5.6 1.1v4.6H1c-.5 0-1 .3-1 1.1 0 .6.5 1.1 1.1 1.1h4.6v4.6c0 .6.5 1.1 1.1 1.1s1.1-.5 1.1-1.1V7.8h4.6c.6 0 1.1-.5 1.1-1.1v-.2z"/></symbol><symbol id="friends" viewBox="0 0 22 21" xmlns="http://www.w3.org/2000/svg"><style>.axst0{fill:#c2c2c2}</style><g id="axstyles" transform="translate(-653 -180)"><g id="axShape_2_"><path class="axst0" d="M661.1 190.4c2.1 0 3.7-2 3.7-4.5s-.5-4.5-3.7-4.5-3.7 2-3.7 4.5 1.6 4.5 3.7 4.5z" id="axpath-1"/><path class="axst0" d="M674.1 193.6c-.1-3.7-.5-4.8-4.3-5.5 0 0-.5.7-1.8.7s-1.8-.7-1.8-.7c-.3.1-.6.1-.9.2-.3.6-.6 1.2-1.1 1.7 3.5.8 4.7 2.1 4.9 5.9 4.3-.2 5-1.8 5-1.8v-.5z"/></g><path class="axst0" d="M668.2 197.2c-.1-4.4-.6-5.6-5-6.4 0 0-.6.8-2 .8s-2-.8-2-.8c-4.3.8-4.9 2-5 6.3v.8s1 2.1 7.1 2.1c6 0 6.9-2.2 6.9-2.2v-.6z"/></g><path class="axst0" d="M15.1 0c-2 0-2.8.9-3.1 2.3.5.9.8 2.1.8 3.6v.7c.6.7 1.4 1.2 2.3 1.2 1.8 0 3.2-1.7 3.2-3.9 0-2.1-.5-3.9-3.2-3.9z"/></symbol><symbol viewBox="0 0 20 20" id="google-plus-logo" xmlns="http://www.w3.org/2000/svg"><path d="M12.705 0H7.943c-2.121 0-3.59.465-4.912 1.557-1.04.897-1.66 2.2-1.66 3.487 0 1.982 1.511 4.089 4.312 4.089.27 0 .568-.028.83-.052l-.038.094c-.113.27-.22.524-.22.921 0 .773.374 1.25.734 1.711l.046.059-.081.005c-1.156.08-3.31.227-4.881 1.193C.215 14.168.07 15.774.07 16.24c0 1.854 1.727 3.724 5.586 3.724 4.486 0 6.834-2.475 6.834-4.92 0-1.809-1.06-2.701-2.186-3.65l-.95-.738c-.293-.243-.658-.545-.658-1.106 0-.55.365-.914.688-1.235l.034-.034c1.025-.808 2.187-1.723 2.187-3.704 0-1.991-1.244-3.02-1.843-3.515h1.58a.1.1 0 0 0 .055-.016L12.76.19a.103.103 0 0 0-.054-.19zM6.93 18.873c-2.735 0-4.573-1.277-4.573-3.178 0-1.242.752-2.144 2.232-2.68 1.185-.4 2.716-.419 2.73-.419.26 0 .39 0 .597.026 1.914 1.362 2.834 2.077 2.834 3.439 0 1.735-1.464 2.812-3.82 2.812zm-.026-10.47c-2.295 0-3.248-3.017-3.248-4.632 0-.822.187-1.452.571-1.928.417-.522 1.132-.86 1.82-.86 2.107 0 3.273 2.833 3.273 4.791 0 .309 0 1.248-.65 1.901a2.663 2.663 0 0 1-1.766.728zm12.474.921h-2.51v-2.5a.103.103 0 0 0-.102-.103h-1.08a.103.103 0 0 0-.102.103v2.5h-2.497a.103.103 0 0 0-.103.103v1.094c0 .057.046.103.103.103h2.497v2.516c0 .057.046.103.103.103h1.079a.103.103 0 0 0 .103-.103v-2.516h2.509a.103.103 0 0 0 .103-.103V9.427a.103.103 0 0 0-.103-.103z"/></symbol><symbol id="groups" viewBox="0 0 16 13" xmlns="http://www.w3.org/2000/svg"><style>.azst0{fill:#191919}</style><path class="azst0" d="M7.9.7c-2.2 0-2.5 1.5-2.5 3 0 1.6 1.1 3 2.5 3s2.5-1.3 2.5-3c0-1.5-.3-3-2.5-3zM5 3.6c0-.5 0-1.4.4-2.1C5.2.6 4.8 0 3.5 0 1.9 0 1.7 1 1.7 2.3c0 1.2.8 2.3 1.9 2.3.5-.1 1-.4 1.4-1 0 .1 0 .1 0 0z"/><path d="M11.8 0c-1 0-1.5.4-1.7 1 .7.8.8 2 .8 2.6v.5c.3.2.6.3 1 .3 1 0 1.9-1 1.9-2.3-.1-1.1-.4-2.1-2-2.1z"/><path class="azst0" d="M15.3 7.9c0-2.2-.3-2.8-2.5-3.2 0 0-.3.4-1 .4s-1-.4-1-.4h-.1c-.2.6-.5 1.1-.9 1.5 1.9.5 2.5 1.2 2.7 3 2.3-.2 2.8-1 2.8-1V8c.1 0 0 0 0-.1zM5.1 4.8c-.1 0-.3-.1-.5-.1 0 0-.3.4-1 .4s-1-.4-1-.4C.4 5.1.1 5.7 0 7.8v.4s.5 1 3.3 1c.2-1.7.8-2.6 2.7-3-.4-.4-.7-.8-.9-1.4z"/><path class="azst0" d="M12.1 10.4c0-2.5-.4-3.3-2.7-3.8-.4.3-.9.5-1.5.5-.5 0-1.1-.2-1.5-.5-2.3.5-2.7 1.2-2.7 3.7v.5S4.3 12 7.9 12s4.2-1.2 4.2-1.2v-.4z"/></symbol><symbol viewBox="0 0 52 42" id="icon-1" xmlns="http://www.w3.org/2000/svg"><g stroke-width=".5" fill-rule="evenodd"><path d="M31.065 30.215c-4.87 0-9.807.253-14.671 0-17.823-.924-17.438-26.53.324-27.364 5.74-.27 11.61-.117 17.356 0 4.973.101 9.462 1.446 12.534 5.676 5.737 7.902 1.465 18.287-7.473 21.227-1.048.344-.598 2.008.46 1.66C52.688 27.108 55.337 8.7 42.044 2.546c-3.735-1.73-7.751-1.417-11.742-1.417-4.593 0-9.237-.207-13.825 0C4.247 1.68-3.661 15.372 4.058 25.717c6.226 8.347 17.913 6.22 27.007 6.22 1.108 0 1.11-1.722 0-1.722"/><path d="M36.78 40.593c.442.579 1.334.554 1.574-.205 1.008-3.18 2.04-6.431 1.872-9.804-.056-1.104-1.778-1.11-1.723 0 .162 3.224-1.473 8.83-.948 8.762-2.253-2.957-3.494-5.747-5.747-8.704-.662-.87-2.16-.014-1.486.87 2.252 2.956 4.205 6.125 6.458 9.081zM17.017 17.611c1.108 0 1.11-1.722 0-1.722-1.108 0-1.11 1.722 0 1.722m8.803 0c1.108 0 1.11-1.722 0-1.722s-1.11 1.722 0 1.722m7.271 0c1.108 0 1.11-1.722 0-1.722-1.108 0-1.11 1.722 0 1.722"/></g></symbol><symbol viewBox="0 0 40 40" id="icon-2" xmlns="http://www.w3.org/2000/svg"><g fill-rule="evenodd"><path d="M17.661.62c-1.417 5.065-3.504 9.915-4.92 14.98-.262.934 1.19 1.332 1.451.4 1.417-5.065 3.504-9.915 4.92-14.98.262-.934-1.19-1.333-1.45-.4"/><path d="M13.466 15.047c-4.21.371-8.306 1.508-12.517 1.88-.957.084-.966 1.59 0 1.505 4.213-.372 8.307-1.509 12.517-1.88.957-.084.966-1.59 0-1.505"/><path d="M.57 18.329c3.489 2.462 6.977 4.925 10.466 7.386.793.56 1.545-.744.76-1.299L1.33 17.029c-.793-.56-1.546.745-.76 1.3"/><path d="M10.663 25.066c-.217 4.69.27 9.368.053 14.058-.044.97 1.461.967 1.506 0 .216-4.69-.27-9.368-.054-14.058.044-.969-1.46-.966-1.505 0"/><path d="M12.118 39.504a59.208 59.208 0 0 1 9.689-10.086c.749-.616-.321-1.675-1.064-1.063-3.757 3.092-6.992 6.512-9.924 10.39-.584.772.722 1.523 1.3.76"/><path d="M20.743 29.419c3.678 3.45 8.235 5.746 11.91 9.196.706.663 1.774-.399 1.065-1.064-3.678-3.451-8.234-5.747-11.91-9.197-.707-.662-1.772.4-1.065 1.065"/><path d="M33.912 37.883c-1.048-4.5-2.426-8.912-3.473-13.412-.22-.943-1.671-.543-1.451.4 1.046 4.5 2.425 8.913 3.472 13.412.219.943 1.672.544 1.452-.4"/><path d="M30.245 25.204l8.801-8.183c.71-.661-.355-1.724-1.064-1.063-2.935 2.726-5.868 5.454-8.802 8.181-.71.661.356 1.724 1.065 1.065"/><path d="M38.514 15.737c-4.601-.387-9.178-.994-13.779-1.38-.965-.081-.96 1.424 0 1.505 4.6.387 9.178.994 13.779 1.38.965.081.96-1.425 0-1.505"/><path d="M25.384 14.73c-2.543-4.46-4.442-9.323-6.272-14.11-.342-.895-1.798-.506-1.45.4 1.873 4.902 3.819 9.905 6.423 14.47.48.84 1.78.083 1.3-.76"/></g></symbol><symbol viewBox="0 0 49 40" id="icon-3" xmlns="http://www.w3.org/2000/svg"><g fill-rule="evenodd"><path d="M.002 9.858c.552 9.76 1.082 19.523 1.635 29.283.055.964 1.56.969 1.505 0-.553-9.76-1.083-19.522-1.635-29.283-.055-.963-1.56-.97-1.505 0"/><path d="M2.39 39.894c14.97-.12 29.937-.407 44.908-.526.968-.008.97-1.513 0-1.505-14.971.12-29.939.405-44.909.526-.968.008-.97 1.513 0 1.505"/><path d="M48.05 38.615c.43-9.844-.47-19.677-2.174-29.371-.168-.952-1.619-.548-1.452.4 1.683 9.565 2.545 19.26 2.121 28.971-.042.968 1.463.966 1.506 0"/><path d="M.755 10.61c14.75-1.417 29.618-1.509 44.395-.413.966.071.961-1.434 0-1.505C30.373 7.596 15.506 7.687.755 9.105c-.957.093-.966 1.599 0 1.505"/><path d="M13.955 8.807c.241-2.566 1.274-4.897 2.993-6.815.645-.72-.416-1.787-1.064-1.064-2.002 2.232-3.154 4.896-3.435 7.879-.09.963 1.415.957 1.506 0"/><path d="M16.414 2.179l15.148-.584c.966-.037.97-1.543 0-1.505L16.414.674c-.965.037-.97 1.543 0 1.505"/><path d="M30.912 1.222c1.586 2.211 2.606 4.664 3.145 7.326.192.948 1.643.547 1.45-.4-.56-2.772-1.644-5.384-3.295-7.685-.56-.78-1.866-.03-1.3.76M24.955 13.74c-5.288-.318-10.682 3.759-11.172 9.213-.452 5.018 3.461 9.893 8.387 10.756 5.4.947 10.869-3.245 11.725-8.583.908-5.666-3.457-10.26-8.74-11.358-.945-.197-1.35 1.254-.4 1.45 4.392.914 8.019 4.35 7.689 9.09-.315 4.517-4.732 8.288-9.238 8.03-4.667-.269-8.8-5.316-7.835-9.953.913-4.379 5.24-7.401 9.584-7.14.967.059.964-1.446 0-1.505"/><path d="M22.906 18.625c-4.48 1.498-4.993 7.64-.556 9.59.879.387 1.646-.91.76-1.3-3.153-1.385-3.206-5.7.195-6.839.915-.305.523-1.76-.4-1.45m3.442 8.466c.969 0 .97-1.505 0-1.505-.968 0-.97 1.505 0 1.505"/></g></symbol><symbol viewBox="0 0 21 21" id="invite" xmlns="http://www.w3.org/2000/svg"><g fill-rule="evenodd"><path d="M20.861 8.265a1.59 1.59 0 0 0-.434-.583l-2.623-2.19V4.335a1.6 1.6 0 0 0-1.597-1.598h-1.701L11.837.51A2.04 2.04 0 0 0 9.17.503L6.494 2.737h-1.7a1.6 1.6 0 0 0-1.598 1.598v1.157L.574 7.682a1.59 1.59 0 0 0-.435.582C.112 8.324 0 8.631 0 8.91v10.027c0 1.133.922 2.054 2.054 2.054h16.892A2.057 2.057 0 0 0 21 18.936V8.91c0-.261-.104-.566-.139-.644zM3.196 9.686L1.753 8.482l1.443-1.205v2.41zm6.859-8.138a.683.683 0 0 1 .897.006l1.417 1.183H8.631l1.424-1.189zm6.38 9.282l-5.49 4.585a.683.683 0 0 1-.897-.005l-5.483-4.58V4.335c0-.126.103-.228.228-.228h11.414c.125 0 .228.102.228.228v6.495zm1.37-1.144v-2.41l1.442 1.205-1.443 1.205z" fill-rule="nonzero"/><path d="M10.5 5.833a3.5 3.5 0 1 0 0 7 3.5 3.5 0 0 0 0-7z" fill-rule="nonzero"/><path d="M11.813 9.115h-1.094V8.02a.219.219 0 0 0-.438 0v1.094H9.187a.219.219 0 0 0 0 .437h1.094v1.094a.219.219 0 0 0 .438 0V9.552h1.094a.219.219 0 0 0 0-.437z"/></g></symbol><symbol viewBox="0 0 13 12" id="liked" xmlns="http://www.w3.org/2000/svg"><path d="M12.058 6.66a1.71 1.71 0 0 0 .429-1.162c0-.406-.149-.757-.444-1.054A1.44 1.44 0 0 0 10.989 4H8.827a1.306 1.306 0 0 1 .148-.359 6.456 6.456 0 0 0 .293-.577c.05-.115.099-.27.148-.468.05-.198.074-.396.074-.593a3.356 3.356 0 0 0-.043-.656 1.97 1.97 0 0 0-.093-.39 1.818 1.818 0 0 0-.187-.351A1.094 1.094 0 0 0 8.854.29a1.71 1.71 0 0 0-.468-.203 2.33 2.33 0 0 0-.644-.082.48.48 0 0 0-.351.148 1.355 1.355 0 0 0-.266.39 2.322 2.322 0 0 0-.152.406 7.553 7.553 0 0 0-.097.476c-.047.219-.082.376-.106.472a2.496 2.496 0 0 1-.136.379c-.068.156-.149.28-.242.374-.172.172-.435.484-.789.937-.255.333-.517.648-.788.944-.27.297-.468.45-.593.46a.512.512 0 0 0-.336.16.47.47 0 0 0-.14.34v5.003c0 .135.05.25.148.347a.516.516 0 0 0 .351.152c.182.005.593.12 1.233.344.401.135.714.238.94.308.227.07.543.145.949.226.406.08.78.121 1.124.121h1.006c.693-.01 1.205-.213 1.538-.608.302-.36.429-.83.382-1.413a1.52 1.52 0 0 0 .422-.734 1.605 1.605 0 0 0 0-.913 1.62 1.62 0 0 0 .335-1.069 1.86 1.86 0 0 0-.116-.593zM2.747 4.999H.5a.48.48 0 0 0-.352.148.48.48 0 0 0-.148.351v4.995c0 .135.05.252.148.351a.48.48 0 0 0 .352.148h2.247a.48.48 0 0 0 .351-.148.48.48 0 0 0 .149-.351V5.498a.48.48 0 0 0-.149-.351.48.48 0 0 0-.35-.148zm-.897 4.85a.486.486 0 0 1-.352.144.482.482 0 0 1-.355-.144A.483.483 0 0 1 1 9.494c0-.135.048-.252.144-.351a.476.476 0 0 1 .355-.149.48.48 0 0 1 .352.149.48.48 0 0 1 .148.35.48.48 0 0 1-.148.356z"/></symbol><symbol viewBox="0 0 9 12" id="location" xmlns="http://www.w3.org/2000/svg"><path d="M7.174 1.231A4.175 4.175 0 0 0 4.203 0 4.175 4.175 0 0 0 1.23 1.231C-.238 2.7-.42 5.463.836 7.137L4.203 12l3.362-4.856c1.26-1.68 1.078-4.444-.39-5.913zM4.242 5.698a1.536 1.536 0 0 1-1.535-1.534c0-.846.689-1.534 1.535-1.534.845 0 1.534.688 1.534 1.534 0 .846-.689 1.534-1.534 1.534z"/></symbol><symbol viewBox="0 0 314.3 169" id="logo" xmlns="http://www.w3.org/2000/svg"><path d="M71.3 0c.6.3 1.1.7 1.8.9 15.2 3 18.2 16.5 13.3 28.1-2.8 6.6-5.9 7.6-12.9 4 1.7-3 3.5-5.9 5-9 2.1-4.3 3.6-8.9.6-13.3-3.2-4.6-8.4-4.5-13.1-4.2-12.5.9-22.9 6.7-32.1 14.7C22 31.4 13.1 43.5 9.7 58.9c-2.6 11.6 1.9 20.4 11.6 22.5 3.1.7 6.7.3 9.8-.4 13.3-3.2 24.6-10 33.5-20.5 2.6-3.1 4.2-6.9 6.3-10.4-.3-.5-.7-.9-1-1.4-8.6 2-17.2 4.1-25.7 6.1-1.6-6-.3-8.7 5-9.4 10.2-1.3 20.5-2.2 30.8-2.9 4.8-.3 6.1 2.2 4 6.2-8.4 15.9-16.8 31.7-25 47.7-1.8 3.5-3.8 4.8-7.4 2.7-3.7-2.2-2.7-4.7-.8-7.5 3.6-5.4 7.1-10.8 9.8-17.2-1.5 1-3.1 2-4.6 2.9-9.3 5.7-18.8 10.8-30.1 10.9C5.7 88.3-2.9 77.7.8 57.8 6.4 27.8 32 4.5 57.5.9c.6-.1 1.1-.6 1.7-.9h12.1zm3 169c-2.3-1.5-4.5-2.9-6.2-4 10.2-24 20-47.1 30.3-71.4-13.9 3-24.7 9.9-35.9 17-2.1-6-.8-9.6 3.3-12.8C78.5 87.9 93.4 84 109 83.3c9-.4 18.5-.1 27.2 2 22.7 5.5 30.8 29 17.3 48.2-11.2 15.8-27.2 24.7-45.1 30.4-6.9 2.2-14.1 3.4-21.1 5.1h-13zm4-6.1c22.8-3.1 42.9-9.3 59.6-23.8 4.2-3.6 7.9-8.2 10.7-13 8-13.8 2.3-29.5-13-34-7-2-14.7-1.6-22.1-1.6-1.7 0-4 2.7-5 4.6-7.2 15.2-14.1 30.5-21 45.8-3.1 6.8-5.8 13.8-9.2 22zM141.5 65c-2.4 2.8-4.1 5-6.1 6.9-2.2 2.2-4.5 4.5-7.1 6.2-6.8 4.5-13.8 1.7-15.9-6.2-.6-2.5-.8-5.1-1.4-9-3.8 5.1-7 9.3-10 13.5-2.7 3.7-5.5 4-7.5-.2-1.4-3.1-2.1-7.1-1.6-10.4.9-4.9 3.2-9.6 5-14.7-6.1 4.4-8.7 13-16.8 14.2l-1.2-1.2c1.3-1.9 2.6-3.9 4-5.8 4.9-6.6 10.8-12.3 12-21.4.6-5.2 6.1-6.5 10.6-3.8 2.4 1.4 3.3 3.3 1.1 5.1-5 4.2-3 7.6.8 11 .6.5 1 1.3 1.2 1.5-2.9 4.6-5.7 9-8.4 13.3.5.4.9.8 1.4 1.1 5.1-5 10.5-9.8 15.2-15.2 4.4-5.1 8.5-9.8 15.8-10 6.6-.2 10 4.4 8 10.8-2.4 7.9-9.2 13.1-19.1 14.1.6 2.8 1.2 5.4 2.1 9.4 3.5-3.1 6.2-5 8.3-7.4 7-8 13.6-16.2 20.5-24.2 2-2.4 4.2-4.9 6.7-6.6 6.6-4.6 12.3-2 12.9 6 .2 3 .5 5.3 4 6.3 2.7.8 2.8 2.7 1.2 5.1-1.6 2.5-2.9 5.2-4.3 7.9-.6 1.3-1 2.8-1.8 5.3 5.9-4.7 11.8-8.1 15.7-13.1 4.1-5.1 6.2-11.7 8.8-16.8-1.1-2.6-1.9-4.6-3.2-7.8 6.9 1.4 8.9-2.4 10.9-6.6 1-2 3.2-4.9 4.5-4.7 2.2.3 4.9 2.3 6.1 4.3.7 1.2-1.1 3.8-2 6.3h21.4c.1.4.2.7.3 1.1-2 .6-4 1.4-6.1 1.7-5.1.7-10.2 1.6-15.4 1.8-4.3.1-6.6 2.1-8.4 5.7-4.5 9.2-9.1 18.3-13.7 27.5.7.5 1.3 1 2 1.4 5-4.9 10.6-9.3 14.9-14.8 4.6-5.9 8.7-11.9 17-12.5 7.1-.4 10.6 4.5 8.3 11.3-2.7 7.8-9 12.5-19 13.6.7 2.8 1.3 5.4 2.3 9.7 4.5-4.5 7.9-7.8 11.2-11.1 4.7-4.6 9.4-9.1 13.9-13.9 1.3-1.3 1.7-3.5 2.4-5.3 1-2.4 1.6-5.1 2.9-7.3 4-6.5 9.4-6.3 14.1.7-10.2 5.5-10.1 14.4-7.6 24 .5 2.1.9 4.2 1.1 6.4.7 7.2-1.6 10.6-7.4 11.3-6.9.9-12.1-2.8-13.5-10.8 2.4 1.2 4.2 1.9 5.9 2.9 4.3 2.5 6.8 1.4 6.7-3.6-.1-3.7-1-7.4-1.7-12.3-5.6 5.5-10.3 10.3-15.2 14.9-3.1 2.9-6.1 6.2-9.8 8.3-5.8 3.4-11.8.8-14-5.7-.9-2.8-1.2-5.7-1.9-9.4-3.7 4.5-6.9 8.7-10.4 12.6-1.6 1.8-4 2.8-6 4.2-1.7-2.7-4-5.2-4.9-8.1-.7-2.1.4-4.7.9-8.7-3.7 4.8-6.6 8.4-9.3 12.1-3.7 5-6.9 4.8-9.7-.9-1-2-1.1-4.3-1.8-7.3-2.2 3.2-4 6.1-6 8.9-1.6 2.3-2.4 6-6.6 4.7-4.1-1.3-7.1-3.8-7.6-8.3.1-2.3.3-4.6.3-8zm10.6 5.5c4.7-5.3 9.7-10.4 14.1-15.9 2.5-3.1 1.4-9.8-1.5-13.2-8.4 7.6-11.1 17.7-12.6 29.1zm-18-25c-6.1 1.9-10.2 7.5-10.6 14.2 5.7-2 10.8-8.9 10.6-14.2zm93-.1c-7 1.7-11.9 8.4-11.2 14.9 5.4-3.7 9.3-8.1 11.2-14.9zm29.8 97.7c-3.7 5-6.8 9.1-9.8 13.2-2.8 3.9-5.7 4.1-7.7-.2-1.4-2.9-2.1-6.8-1.5-9.9.9-5 3.2-9.7 4-15.4-.6 1-1.2 2.1-1.9 3.1-6.5 9.2-17.6 14.1-23.1 24.4-.4.8-4.5.6-5.9-.4-3.9-2.9-3.6-7.5-2.1-11.4 2.2-6.1 4.8-12.1 7.8-17.8 1.9-3.5 5.1-2 7.7-.3 2.8 1.8 1.8 3.4 0 5.6-2.7 3.3-4.8 7-7.8 11.5 11.2-4.3 21.5-16.4 23.5-26.8 1-4.9 4.6-7.7 8.7-6.7 5 1.2 6 3.8 2.5 7.5-2.6 2.8-2.6 5.1-.1 7.7 1.2 1.3 2.4 2.7 3.1 3.5-3 4.8-5.7 9.2-8.4 13.5.5.4 1 .8 1.5 1.1 5.3-5.4 10.8-10.6 15.8-16.2 4.2-4.8 8.4-9 15.3-9.1 6.4-.1 9.7 4.3 8 10.5-2.1 7.9-9.1 13.3-19.3 14.5.6 2.7 1.2 5.2 2 8.9 2.6-1.9 4.6-3 6.1-4.6 4.3-4.6 8.3-9.5 12.6-14.2 1.6-1.7 4-2.8 5.6-4.6 1.5-1.6 2.6-3.7 3.5-5.7 1.2-2.5 1.6-5.4 3.1-7.8 3.9-6.5 9.7-6.2 14 .8-9.5 5.1-10.1 13.4-8 22.6.6 2.6 1.3 5.2 1.5 7.8.3 4.2.4 8.5-4.5 10.5-4.6 1.9-10.7.6-13.7-3.2-1.3-1.6-2-3.6-2.9-5.4.3-.4.7-.8 1-1.2 1.6.7 3.2 1.6 4.9 2.2 1.6.6 4 1.8 4.9 1.2 1.3-1 2.2-3.4 2.1-5.1-.1-3.5-1-7.1-1.8-11.7-5.7 5.7-10.5 10.7-15.5 15.4-3 2.8-5.9 6-9.5 7.9-5.9 3.3-11.8.6-13.9-5.8-.8-2.7-1-5.7-1.8-9.9zm12.4-2.4c6-4.1 9.8-8.6 11.7-15.3-6.6 1.6-10.8 7.1-11.7 15.3zm-84.6 8.4c1.6.8 3.3 1.4 4.9 2.4 4.5 2.7 7.1 1.5 6.9-3.8-.1-3.7-1.1-7.3-1.7-11.2-6 5.7-11.6 10.9-17 16.2-4 3.8-7.8 8.2-14 7.2-2.2-.4-5.1-1.6-6.2-3.3-4.7-7.3-3.6-15 0-22.4 3.6-7.4 8.6-13.6 17.8-14.1 6.7-.4 10.4 4.4 8.1 10.7-3 8.4-8.7 14.1-19.3 14.1.8 3 1.4 5.6 2.3 9.1 2.6-2 4.6-3.2 6.1-4.8 4.4-4.8 8.5-9.8 12.9-14.6 1.4-1.5 3.5-2.4 4.8-3.9 1.5-1.8 2.8-3.9 3.8-6 1.3-2.7 1.8-5.7 3.4-8.2 3.8-6 9.9-5.3 13.5 1.4-8.3 4.5-9.9 11.7-8.2 20.3.7 3.4 1.5 6.8 1.8 10.3.4 4 .3 8.2-4.2 10.3-4.2 1.9-10.3.9-13.5-2.5-1.5-1.6-2.4-3.7-3.6-5.6.6-.6 1-1.1 1.4-1.6zm-19-8.7c7.6-3.7 12.6-11.3 10.6-15.1-6.1 2.8-8.7 8.1-10.6 15.1zm101.6-73.3c6-3.3 9.5-9.7 17.5-11.4-1 1.9-1.3 2.9-2 3.7l-15.6 18.9c-3 3.7-5.4 3.8-7.5-.5-1.4-2.9-2.4-7-1.4-9.7 3.9-10.9 8.6-21.6 13-32.3-.7-1.5-1.5-3.5-2.9-6.8 7 1.3 9.2-2.5 11.2-7.1.8-1.8 3.1-4.6 4.2-4.4 2.3.4 5 2.2 6.2 4.2.7 1.2-1 3.9-1.8 6.4h21.3c.1.5.1 1.1.2 1.6-4.4.7-8.9 2.2-13.3 2-10.3-.4-16.7 3.9-20.3 13.5-2.5 6.7-5.8 13.1-8.7 19.6-.2.6-.1 1.3-.1 2.3z"/><path d="M222.5 118.3c2.4-4.7 4.7-9.7 7.6-14.2.7-1.1 3.9-1 5.8-.6.7.2 1.7 3.2 1.2 4.1-2.6 4.7-5.6 9.3-8.7 13.7-.5.7-2.8.6-4.1.3-.7-.1-1-1.7-1.8-3.3z"/></symbol><symbol id="logo_footer" viewBox="0 0 495.8 50.6" xmlns="http://www.w3.org/2000/svg"><style>.bhst0{fill:#b98300}</style><path id="bhXMLID_281_" class="bhst0" d="M40 16c0 4.4-1.5 8.2-4.7 11.3C32.2 30.5 28.4 32 24 32H8v16H0V24h24c2.2 0 4-.8 5.6-2.3 1.6-1.6 2.4-3.4 2.4-5.6s-.8-4.1-2.4-5.6C28 8.8 26.2 8 24 8H8L0 0h24c4.4 0 8.2 1.6 11.3 4.7C38.4 7.9 40 11.6 40 16z"/><path id="bhXMLID_278_" class="bhst0" d="M52.7 40l-4.1 8h-8.9l24-48 16 32h-9l-7-14.1L56.6 32l-3.9 8zm35 8h-8.9l-4-8h8.9l4 8z"/><path id="bhXMLID_275_" class="bhst0" d="M126.8 34.6l8 2.6c-1.1 1.6-2.3 3.1-3.8 4.4-1.4 1.3-3 2.5-4.7 3.4-1.7 1-3.5 1.7-5.5 2.2-1.9.5-3.9.8-6 .8-6.7 0-12.2-2.4-16.9-7.1S90.7 30.7 90.7 24c0-6.6 2.3-12.2 7.1-16.9 4.6-4.7 10.3-7.1 16.9-7.1 3.3 0 6.4.6 9.4 1.9 2.9 1.3 5.5 3 7.7 5.2l-5.8 5.6c-3.1-3.1-6.8-4.7-11.3-4.7-4.4 0-8.2 1.5-11.3 4.7-3.1 3.1-4.6 6.9-4.6 11.3s1.5 8.2 4.6 11.3 7 4.6 11.3 4.6c2.4 0 4.6-.5 6.7-1.4 2-.9 3.8-2.2 5.4-3.9zM114.7 20h20l-8 8h-12.1l.1-8z"/><path id="bhXMLID_141_" class="bhst0" d="M187.6 0l-10 8h-30V0h40zm-10 28h-30v-8h30m10 27.3v.7h-40v-8h30l10 7.3z"/><g id="bhXMLID_107_"><path id="bhXMLID_142_" class="bhst0" d="M209.2.6h2.7l4.4 6.8 4.4-6.8h2.7v14.3h-2.5V4.6l-4.5 6.7h-.1l-4.5-6.7v10.2h-2.5L209.2.6z"/><path id="bhXMLID_144_" class="bhst0" d="M247.3.6h10.6v2.2h-8.1v3.7h7.2v2.2h-7.2v3.8h8.2v2.2h-10.7V.6z"/><path id="bhXMLID_146_" class="bhst0" d="M281.3.6h5.3c4.5 0 7.6 3.1 7.6 7.2 0 4-3.1 7.2-7.6 7.2h-5.3V.6zm5.3 12c3 0 5-2 5-4.9 0-2.8-2-4.9-5-4.9h-2.8v9.7h2.8v.1z"/><path id="bhXMLID_247_" class="bhst0" d="M317.7.6h2.5v14.3h-2.5V.6z"/><path id="bhXMLID_249_" class="bhst0" d="M349.5.5h2.3l6.3 14.4h-2.7l-1.5-3.5h-6.8l-1.5 3.5H343L349.5.5zm3.6 8.7l-2.5-5.7-2.5 5.7h5z"/></g><g id="bhXMLID_140_"><path id="bhXMLID_252_" class="bhst0" d="M210.4 45.5l1.5-1.8c1.4 1.2 2.7 1.9 4.5 1.9 1.6 0 2.5-.7 2.5-1.8 0-1-.6-1.6-3.2-2.2-3-.7-4.8-1.6-4.8-4.3 0-2.5 2-4.1 4.9-4.1 2.1 0 3.7.6 5.2 1.8l-1.3 1.9c-1.3-1-2.6-1.5-3.9-1.5-1.5 0-2.3.8-2.3 1.7 0 1.1.7 1.6 3.4 2.2 3 .7 4.6 1.8 4.6 4.2 0 2.7-2.1 4.3-5.1 4.3-2.3 0-4.3-.8-6-2.3z"/><path id="bhXMLID_254_" class="bhst0" d="M244.1 40.4c0-4 3.1-7.4 7.5-7.4s7.5 3.3 7.5 7.4c0 4-3.1 7.4-7.5 7.4-4.5 0-7.5-3.3-7.5-7.4zm12.3 0c0-2.8-2-5.1-4.9-5.1-2.8 0-4.8 2.3-4.8 5.1s2 5.1 4.9 5.1c2.8 0 4.8-2.3 4.8-5.1z"/><path id="bhXMLID_257_" class="bhst0" d="M282.4 33.3h2.5v12h7.5v2.3h-10V33.3z"/><path id="bhXMLID_259_" class="bhst0" d="M315.1 41.5v-8.2h2.5v8.1c0 2.7 1.4 4.1 3.6 4.1s3.6-1.3 3.6-4v-8.2h2.5v8.1c0 4.3-2.4 6.4-6.2 6.4-3.6 0-6-2.1-6-6.3z"/><path id="bhXMLID_261_" class="bhst0" d="M354.7 35.6h-4.5v-2.3h11.6v2.3h-4.5v12h-2.5v-12h-.1z"/><path id="bhXMLID_263_" class="bhst0" d="M384.9 33.3h2.5v14.3h-2.5V33.3z"/><path id="bhXMLID_265_" class="bhst0" d="M410.9 40.4c0-4 3.1-7.4 7.5-7.4s7.5 3.3 7.5 7.4c0 4-3.1 7.4-7.5 7.4-4.5 0-7.5-3.3-7.5-7.4zm12.3 0c0-2.8-2-5.1-4.9-5.1s-4.8 2.3-4.8 5.1 2 5.1 4.9 5.1 4.8-2.3 4.8-5.1z"/><path id="bhXMLID_268_" class="bhst0" d="M449.2 33.3h2.3l7.7 9.9v-9.9h2.5v14.3h-2.1l-7.9-10.2v10.2h-2.5V33.3z"/><path id="bhXMLID_270_" class="bhst0" d="M484.7 45.5l1.5-1.8c1.4 1.2 2.7 1.9 4.5 1.9 1.6 0 2.5-.7 2.5-1.8 0-1-.6-1.6-3.2-2.2-3-.7-4.8-1.6-4.8-4.3 0-2.5 2-4.1 4.9-4.1 2.1 0 3.7.6 5.2 1.8l-1.3 1.9c-1.3-1-2.6-1.5-3.9-1.5-1.5 0-2.3.8-2.3 1.7 0 1.1.7 1.6 3.4 2.2 3 .7 4.6 1.8 4.6 4.2 0 2.7-2.1 4.3-5.1 4.3-2.2 0-4.3-.8-6-2.3z"/></g></symbol><symbol viewBox="0 0 21 22" id="logout" xmlns="http://www.w3.org/2000/svg"><path d="M10.157 19.822H4.814c-1.452 0-2.63-1.153-2.63-2.564V4.708c0-1.416 1.182-2.564 2.63-2.564h5.43a.577.577 0 0 0 .587-.572.577.577 0 0 0-.587-.572h-5.43C2.714 1 1.01 2.665 1.01 4.708v12.55c0 2.047 1.708 3.708 3.804 3.708h5.343a.577.577 0 0 0 .587-.572.58.58 0 0 0-.587-.572z"/><path d="M19.827 10.58l-3.73-3.635a.596.596 0 0 0-.831 0 .56.56 0 0 0 0 .81l2.73 2.66H6.088a.577.577 0 0 0-.587.572c0 .318.26.572.587.572h11.908l-2.73 2.661a.56.56 0 0 0 0 .81.6.6 0 0 0 .413.17.58.58 0 0 0 .413-.17l3.73-3.636a.561.561 0 0 0 .005-.813z"/></symbol><symbol id="members" viewBox="0 0 9 12" xmlns="http://www.w3.org/2000/svg"><style>.bjst0{fill:#191919}</style><g id="bjSymbols"><g id="bjstatistics" transform="translate(-25 -14)"><g transform="translate(15 14)" id="bjGroup-16"><g id="bjGroup-15"><g id="bjman-user" transform="translate(10)"><path id="bjShape" class="bjst0" d="M4.5 6C5.9 6 7 4.7 7 3s-.4-3-2.5-3S2 1.3 2 3s1.1 3 2.5 3z"/><path id="bjShape_1_" class="bjst0" d="M9 10.2C9 7.3 8.6 6.5 5.8 6c0 0-.4.5-1.3.5S3.2 6 3.2 6C.4 6.5.1 7.3 0 10.1v.5S.7 12 4.5 12 9 10.6 9 10.6v-.4z"/></g></g></g></g></g></symbol><symbol id="message" viewBox="0 0 12.4 10.9" xmlns="http://www.w3.org/2000/svg"><style>.bkst0{fill:#fff}</style><g id="bkfinal"><g id="bkstyles" transform="translate(-2002 -3872)"><path id="bkShape" class="bkst0" d="M2007.1 3872c2.9 0 5.2 1.9 5.2 4.1s-2.3 4.1-5.2 4.1c-.3 0-.5 0-.8-.1-1.1 1.1-2.4 1.3-3.7 1.3v-.3c.7-.3 1.3-.9 1.3-1.6v-.3c-1.2-.8-1.9-1.9-1.9-3.2-.1-2.1 2.2-4 5.1-4zm5.6 9.3c0 .6.4 1.1 1 1.4v.2c-1.1 0-2.1-.2-3.1-1.1h-.7c-1 0-2-.3-2.8-.7 1.6 0 3.1-.5 4.2-1.4.6-.4 1-1 1.3-1.6s.5-1.3.5-2v-.3c.8.6 1.3 1.5 1.3 2.5 0 1.1-.7 2.1-1.7 2.8v.2z"/></g></g></symbol><symbol viewBox="0 0 24 21" id="messages" xmlns="http://www.w3.org/2000/svg"><path d="M10 0c5.523 0 10 3.567 10 7.966 0 4.4-4.477 7.966-10 7.966-.53 0-1.051-.033-1.559-.096-2.148 2.106-4.629 2.484-7.108 2.539v-.515c1.339-.643 2.417-1.815 2.417-3.153a3.7 3.7 0 0 0-.042-.55C1.446 12.697 0 10.467 0 7.967 0 3.566 4.477 0 10 0zm10.75 17.856c0 1.147.757 2.151 1.917 2.702V21c-2.149-.048-4.12-.371-5.982-2.176-.44.054-.892.083-1.352.083-1.989 0-3.82-.529-5.283-1.416 3.014-.01 5.86-.961 8.017-2.68 1.088-.867 1.946-1.883 2.55-3.022a8.078 8.078 0 0 0 .94-4.462C23.07 8.557 24 10.231 24 12.078c0 2.143-1.253 4.055-3.213 5.307a3.07 3.07 0 0 0-.037.47z"/></symbol><symbol id="news" viewBox="0 0 13 16" xmlns="http://www.w3.org/2000/svg"><style>.bmst0{fill:#191919}</style><g id="bmSymbols"><g id="bmstatistics" transform="translate(-172 -40)"><g transform="translate(15 14)" id="bmGroup-16"><g id="bmGroup-37" transform="translate(153 25)"><g id="bminterview-microphone" transform="rotate(-21 16.853 2.104)"><path id="bmShape" class="bmst0" d="M13.1.1c-1.4-.3-2.9.4-3.4 1.7L12.5 6c1.4 0 2.6-1 2.9-2.4.4-1.5-.7-3.1-2.3-3.5z"/><path id="bmShape_1_" class="bmst0" d="M4.3 6.6C3.1 7.7 1.8 8.7.5 9.8c-.5.4-.7 1-.3 1.6.4.6 1 .7 1.6.4 1.5-.8 3-1.7 4.5-2.5l-2-2.7c.1-.1.1 0 0 0z"/><path id="bmShape_2_" class="bmst0" d="M11.6 5.9L9.4 2.7 8.2.8 3.5 3.9 5 6l1.9 2.9 1.3 1.9 4.6-3.1z"/></g></g></g></g></g></symbol><symbol viewBox="0 0 18 21" id="notifications" xmlns="http://www.w3.org/2000/svg"><path d="M8.925 21c1.155 0 2.1-.945 2.1-2.1h-4.2c0 1.155.945 2.1 2.1 2.1zm6.825-6.3V8.925c0-3.255-2.205-5.88-5.25-6.615v-.735C10.5.735 9.765 0 8.925 0S7.35.735 7.35 1.575v.735C4.305 3.045 2.1 5.67 2.1 8.925V14.7L0 16.8v1.05h17.85V16.8l-2.1-2.1z"/></symbol><symbol id="photos" viewBox="0 0 15 12" xmlns="http://www.w3.org/2000/svg"><style>.bost0{fill:#191919}</style><g id="boSymbols"><g id="bostatistics" transform="translate(-171 -69)"><g transform="translate(15 14)" id="boGroup-16"><g id="boGroup-44" transform="translate(156 55)"><g id="bophoto-camera"><path id="boShape" class="bost0" d="M7.2 3.7C5.6 3.7 4.3 5 4.3 6.6s1.3 2.9 2.9 2.9 2.9-1.3 2.9-2.9-1.3-2.9-2.9-2.9z"/><path id="boShape_1_" class="bost0" d="M13.2 2.5h-2l-1-2.4h-6l-1 2.4h-.3V1.3H1.4v1.2h-.2C.5 2.5 0 3 0 3.7v7c0 .6.5 1.2 1.2 1.2h12.1c.6 0 1.2-.5 1.2-1.2v-7c-.1-.7-.6-1.2-1.3-1.2zm-10.8 0h-.5v-.7h.5v.7zm4.8 8.4c-2.4 0-4.3-1.9-4.3-4.3s1.9-4.3 4.3-4.3 4.3 1.9 4.3 4.3-1.9 4.3-4.3 4.3zm5.3-5.5c-.5 0-1-.4-1-1s.4-1 1-1c.5 0 1 .4 1 1s-.5 1-1 1z"/></g></g></g></g></g></symbol><symbol viewBox="0 0 15 12" id="photos_stat" xmlns="http://www.w3.org/2000/svg"><g fill-opacity=".6"><path d="M7.2 3.72A2.883 2.883 0 0 0 4.32 6.6 2.883 2.883 0 0 0 7.2 9.48a2.883 2.883 0 0 0 2.88-2.88A2.883 2.883 0 0 0 7.2 3.72z"/><path d="M13.248 2.52h-2.046l-.96-2.4H4.158l-.96 2.4H2.88v-1.2H1.44v1.2h-.288C.516 2.52 0 3.036 0 3.672v7.048c0 .64.52 1.16 1.16 1.16h12.08c.64 0 1.16-.52 1.16-1.16V3.672c0-.636-.516-1.152-1.152-1.152zM2.4 2.52h-.48V1.8h.48v.72zm4.8 8.4A4.325 4.325 0 0 1 2.88 6.6 4.325 4.325 0 0 1 7.2 2.28a4.325 4.325 0 0 1 4.32 4.32 4.325 4.325 0 0 1-4.32 4.32zm5.28-5.52a.961.961 0 0 1 0-1.92.961.961 0 0 1 0 1.92z"/></g></symbol><symbol viewBox="0 0 155 103" id="plane" xmlns="http://www.w3.org/2000/svg"><g fill-rule="evenodd"><path d="M127.947 56.474l26.438 44.849c.55.931-.98 1.63-1.528.704l-26.44-44.85c-.549-.932.984-1.63 1.53-.703"/><path d="M126.831 56.06c6.42-2.27 12.886-4.411 19.308-6.68 1.012-.359 1.726 1.167.703 1.528-6.421 2.272-12.887 4.411-19.308 6.682-1.012.358-1.727-1.167-.703-1.53"/><path d="M147.318 49.998l7.133 51.53c.147 1.072-1.51 1.368-1.659.292a318237.8 318237.8 0 0 0-7.132-51.53c-.148-1.072 1.51-1.367 1.658-.292"/><path d="M152.973 102.21c-12.791-13.563-25.49-27.214-38.282-40.78-.742-.786.556-1.86 1.298-1.07 12.792 13.562 25.49 27.214 38.281 40.778.743.788-.555 1.86-1.297 1.072"/><path d="M115.23 59.74c4.744-5.927 10.343-11.06 16.245-15.814.842-.677 1.919.616 1.073 1.298-5.783 4.659-11.289 9.67-15.94 15.482-.673.84-2.056-.119-1.378-.966"/><path d="M114.576 61.246c-2.053-4.955-4.096-9.927-5.897-14.98-.361-1.012 1.164-1.726 1.529-.704 1.8 5.054 3.844 10.025 5.897 14.981.412.997-1.114 1.708-1.53.703"/><path d="M109.925 45.224l10.46 7.885c.862.651-.1 2.032-.966 1.379l-10.459-7.885c-.862-.65.099-2.032.965-1.379m22.915-.795l2.363 9.662c.258 1.054-1.402 1.34-1.658.292l-2.363-9.662c-.257-1.053 1.402-1.341 1.658-.292M76.062 29.881c5.681 4.68 12.08-.743 12.809-6.937.648-5.516-2.375-10.583-6.585-13.9a30.787 30.787 0 0 0-2.642-1.854c-6.777 5.412-10.83 16.721-3.582 22.691M32.896 43.102c4.644 3.24 11.712 2.478 13.947-3.268 2.185-5.618-3.57-10.633-8.138-12.775-3.43-1.61-7.204-2.228-10.945-2.01-1.581 6.673-.714 13.972 5.136 18.053m88.212-7.12c-.001-8.753-4.332-16.536-10.754-22.308-6.377-5.732-16.186-11.17-25.048-9.31-1.698.356-3.369 1.158-4.923 2.267.525.328 1.042.667 1.545 1.024 7.08 5.004 12.39 18.251 2.785 23.883-3.71 2.175-8.162.773-10.721-2.5-3.13-4.002-2.75-9.903-1.07-14.404 1.166-3.118 3.131-5.973 5.707-8.05-15.029-8.7-37.223-5.224-46.994 9.43-1.535 2.303-2.825 5.126-3.64 8.111 4.479-.209 8.979.744 12.866 3.057 3.467 2.063 7.29 5.67 7.375 10.003.077 3.875-2.932 7.363-6.537 8.47-4.492 1.378-9.396-.977-12.16-4.526-3.31-4.25-3.872-10.086-2.93-15.241.047-.257.102-.51.155-.763-5.516.542-10.89 2.898-14.913 6.66C4.012 39.122 1.09 50.235 1.61 60.675c.028.577-.868.697-.897.116-.553-11.126 2.72-23.02 11.445-30.487 4.081-3.491 9.398-5.644 14.82-6.11C32.346 2.16 61.048-4.514 79.367 6.023a15.069 15.069 0 0 1 4.679-2.276c6.35-1.795 13.24.513 18.823 3.553 10.536 5.735 19.132 16.14 19.134 28.565 0 .575-.896.697-.896.117"/><path d="M76.062 29.881c5.681 4.68 12.08-.743 12.809-6.937.648-5.516-2.375-10.583-6.585-13.9a30.787 30.787 0 0 0-2.642-1.854c-6.777 5.412-10.83 16.721-3.582 22.691zM32.896 43.102c4.644 3.24 11.712 2.478 13.947-3.268 2.185-5.618-3.57-10.633-8.138-12.775-3.43-1.61-7.204-2.228-10.945-2.01-1.581 6.673-.714 13.972 5.136 18.053zm88.212-7.12c-.001-8.753-4.332-16.536-10.754-22.308-6.377-5.732-16.186-11.17-25.048-9.31-1.698.356-3.369 1.158-4.923 2.267.525.328 1.042.667 1.545 1.024 7.08 5.004 12.39 18.251 2.785 23.883-3.71 2.175-8.162.773-10.721-2.5-3.13-4.002-2.75-9.903-1.07-14.404 1.166-3.118 3.131-5.973 5.707-8.05-15.029-8.7-37.223-5.224-46.994 9.43-1.535 2.303-2.825 5.126-3.64 8.111 4.479-.209 8.979.744 12.866 3.057 3.467 2.063 7.29 5.67 7.375 10.003.077 3.875-2.932 7.363-6.537 8.47-4.492 1.378-9.396-.977-12.16-4.526-3.31-4.25-3.872-10.086-2.93-15.241.047-.257.102-.51.155-.763-5.516.542-10.89 2.898-14.913 6.66C4.012 39.122 1.09 50.235 1.61 60.675c.028.577-.868.697-.897.116-.553-11.126 2.72-23.02 11.445-30.487 4.081-3.491 9.398-5.644 14.82-6.11C32.346 2.16 61.048-4.514 79.367 6.023a15.069 15.069 0 0 1 4.679-2.276c6.35-1.795 13.24.513 18.823 3.553 10.536 5.735 19.132 16.14 19.134 28.565 0 .575-.896.697-.896.117z" stroke-linecap="round"/></g></symbol><symbol viewBox="0 0 16 12" id="poll" xmlns="http://www.w3.org/2000/svg"><g fill-rule="evenodd"><path d="M4.364 1.091h10.909v1.091H4.364z"/><circle cx="1.636" cy="1.636" r="1.636"/><circle cx="1.636" cy="6" r="1.636"/><circle cx="1.636" cy="10.364" r="1.636"/><path d="M4.364 5.455h10.909v1.091H4.364zm0 4.363h10.909v1.091H4.364z"/></g></symbol><symbol id="polls" viewBox="0 0 12 12" xmlns="http://www.w3.org/2000/svg"><style>.bsst0{fill:#191919}</style><path class="bsst0" d="M9 0H3C1.3 0 0 1.3 0 3v6c0 1.7 1.3 3 3 3h6c1.7 0 3-1.3 3-3V3c0-1.7-1.3-3-3-3zm.9 3.6L5.5 7.9c-.2.1-.4.1-.5 0L3.1 6.1c-.1-.1-.1-.4 0-.5s.4-.1.5 0l1.6 1.6 4.2-4.1c.1-.1.4-.1.5 0 .1.1.1.3 0 .5z"/></symbol><symbol viewBox="0 0 14 14" id="search" xmlns="http://www.w3.org/2000/svg"><path d="M13.829 13.006L10.463 9.64A5.902 5.902 0 0 0 5.9 0a5.9 5.9 0 1 0 3.737 10.466l3.366 3.363a.583.583 0 0 0 .826-.823zM5.9 10.626A4.732 4.732 0 0 1 1.171 5.9 4.734 4.734 0 0 1 5.9 1.171 4.736 4.736 0 0 1 10.629 5.9 4.734 4.734 0 0 1 5.9 10.626z"/></symbol><symbol viewBox="0 0 20 20" id="settings" xmlns="http://www.w3.org/2000/svg"><path d="M19.937 8.89c-.031-.282-.359-.493-.642-.493-.917 0-1.73-.538-2.071-1.37a2.227 2.227 0 0 1 .56-2.473.555.555 0 0 0 .06-.754 9.895 9.895 0 0 0-1.584-1.6.557.557 0 0 0-.76.062c-.596.66-1.667.905-2.495.56A2.221 2.221 0 0 1 11.655.65a.555.555 0 0 0-.491-.584A9.984 9.984 0 0 0 8.914.06a.556.556 0 0 0-.495.572 2.225 2.225 0 0 1-1.37 2.133c-.817.334-1.88.091-2.475-.563a.558.558 0 0 0-.755-.064 9.933 9.933 0 0 0-1.617 1.6.556.556 0 0 0 .06.76c.695.63.92 1.633.558 2.495-.345.822-1.198 1.352-2.175 1.352a.544.544 0 0 0-.578.49 10.017 10.017 0 0 0-.004 2.275c.031.282.369.491.655.491.871-.022 1.707.517 2.058 1.37.35.853.125 1.847-.56 2.474a.556.556 0 0 0-.06.753c.465.592.998 1.13 1.582 1.6.23.185.563.16.761-.06.598-.661 1.67-.906 2.493-.56a2.218 2.218 0 0 1 1.353 2.17.555.555 0 0 0 .49.584 9.94 9.94 0 0 0 2.25.006.557.557 0 0 0 .496-.572 2.223 2.223 0 0 1 1.368-2.133c.823-.336 1.882-.09 2.477.563a.559.559 0 0 0 .754.064 9.956 9.956 0 0 0 1.618-1.6.555.555 0 0 0-.06-.76 2.216 2.216 0 0 1-.56-2.495 2.239 2.239 0 0 1 2.046-1.355l.124.003a.557.557 0 0 0 .585-.49c.088-.752.09-1.517.004-2.274zm-9.921 4.467A3.34 3.34 0 0 1 6.68 10.02a3.34 3.34 0 0 1 3.336-3.335 3.34 3.34 0 0 1 3.335 3.335 3.34 3.34 0 0 1-3.335 3.336z"/></symbol><symbol id="share" viewBox="0 0 11.4 12.5" xmlns="http://www.w3.org/2000/svg"><style>.bvst0{fill:#fff}</style><g id="bvfinal"><g id="bvstyles" transform="translate(-2080 -3838)"><path id="bvShape" class="bvst0" d="M2089.4 3846.8c-.5 0-.9.2-1.2.5l-4.5-2.6c0-.1.1-.3.1-.4s0-.3-.1-.4l4.5-2.6c.3.3.8.5 1.3.5 1.1 0 1.9-.8 1.9-1.9 0-1-.8-1.9-1.9-1.9-1 0-1.9.8-1.9 1.9 0 .2 0 .3.1.4l-4.5 2.6c-.3-.3-.8-.5-1.3-.5-1.1 0-1.9.8-1.9 1.9s.8 1.9 1.9 1.9c.5 0 .9-.2 1.3-.5l4.5 2.6c0 .1-.1.3-.1.4 0 1 .8 1.8 1.8 1.8s1.8-.8 1.8-1.8c0-1.1-.8-1.9-1.8-1.9z"/></g></g></symbol><symbol id="share-user" viewBox="0 0 40 40" xmlns="http://www.w3.org/2000/svg"><style>.bwst0{fill:#ffb74d}</style><path class="bwst0" d="M20 3C11.7 3 5 9.7 5 18s6.7 15 15 15 15-6.7 15-15S28.3 3 20 3zm-2.6 15.1c0 .1 0 .3-.1.4l4.5 2.6c.3-.3.8-.5 1.2-.5 1 0 1.8.8 1.8 1.8s-.8 1.8-1.8 1.8-1.8-.8-1.8-1.8c0-.1 0-.3.1-.4l-4.5-2.6c-.3.3-.8.5-1.3.5-1.1 0-1.9-.8-1.9-1.9 0-1 .8-1.9 1.9-1.9.5 0 .9.2 1.3.5l4.5-2.6c0-.1-.1-.3-.1-.4 0-1 .8-1.9 1.9-1.9 1 0 1.9.8 1.9 1.9 0 1-.8 1.9-1.9 1.9-.5 0-.9-.2-1.3-.5l-4.5 2.6c.1.2.1.3.1.5z"/></symbol><symbol id="star_empty" viewBox="0 0 14 14" xmlns="http://www.w3.org/2000/svg"><style>.bxst0{fill:#fff}</style><g id="bxSymbols"><g id="bxgreatest_desire_action" transform="translate(-200 -4)"><g transform="translate(150 1)" id="bxGroup-12"><g id="bxstars" transform="translate(0 4)"><path class="bxst0" d="M60.5 12.5c-.1 0-.3 0-.4-.1l-3.1-2-3.1 2c-.3.2-.6.2-.9 0-.3-.2-.4-.5-.3-.9l.8-3.7-2.8-2.5c-.2-.2-.3-.6-.2-.9.1-.3.4-.5.7-.6l3.6-.3L56.3 0c.2-.6 1.2-.6 1.5 0l1.4 3.5 3.6.3c.3 0 .6.2.7.6.1.3 0 .7-.2.9l-2.7 2.5.8 3.7c.1.3-.1.7-.3.9-.3.1-.4.1-.6.1zm-8.8-7.7l2.9 2.6-.9 3.9 3.2-2 3.2 2-.9-3.9 2.9-2.6-3.8-.3L57 .8l-1.5 3.6-3.8.4zM56.8.4z" id="bxShape-Copy-3"/></g></g></g></g></symbol><symbol viewBox="0 0 12 12" id="star_fill" xmlns="http://www.w3.org/2000/svg"><path d="M6.284.198L7.81 3.986l3.908.352c.27.025.381.38.175.566L8.93 7.597l.889 4.006c.061.278-.226.497-.46.35L6 9.828l-3.358 2.123c-.233.148-.52-.071-.459-.35l.888-4.005L.107 4.903C-.1 4.717.01 4.362.282 4.337l3.908-.352L5.716.198a.302.302 0 0 1 .568 0z"/></symbol><symbol viewBox="0 0 185 155" id="step-1" xmlns="http://www.w3.org/2000/svg"><g fill-rule="evenodd"><path d="M184.482 65.522c0 36.186-34.67 65.522-77.44 65.522-42.77 0-77.44-29.336-77.44-65.522C29.601 29.335 64.271 0 107.041 0c42.77 0 77.44 29.335 77.44 65.522" fill-opacity=".6"/><path d="M155.678 71.823c0 36.187-34.671 65.522-77.44 65.522-42.77 0-77.441-29.335-77.441-65.522C.797 35.636 35.468 6.3 78.237 6.3c42.77 0 77.44 29.335 77.44 65.522"/><path d="M159.633 91.62c-7.54 12.763-20.356 25.503-35.88 26.648-.928.069-1.3.962-1.123 1.647-7.942 9.876-14.864 21.022-23.82 30.045 1.302-9.553 3.024-19.051 4.19-28.616a.742.742 0 0 0-.033-.33c.402-.544.095-1.614-.73-1.54-24.6 2.21-51.232-5.229-65.97-26.346-14.28-20.459-14.024-48.299 3.281-66.842C57.223 7.348 85.23-.315 110.452 3.287c25.92 3.703 51.144 19.535 56.676 46.579 2.935 14.346-.09 29.22-7.495 41.754m-34.96-87.582c-26.486-8.361-57.2-3.69-79.2 13.554C24.46 34.063 17.778 60.962 29 85.304c12.424 26.953 43.73 40.08 72.233 36.178-2.621 10.367-3.96 21.166-5.284 31.76-.14 1.12 1.378 1.496 2.071.859 10.246-9.417 18.62-21.974 26.77-33.194a.975.975 0 0 0 .155-.331c25.854-2.763 44.47-32.489 45.676-56.566 1.473-29.413-19.037-51.474-45.949-59.972"/></g></symbol><symbol viewBox="0 0 194 157" id="step-2" xmlns="http://www.w3.org/2000/svg"><g fill-rule="evenodd"><path d="M193.455 69.007c0 38.112-36.515 69.007-81.56 69.007-45.043 0-81.56-30.895-81.56-69.007C30.336 30.896 66.853 0 111.896 0c45.045 0 81.56 30.896 81.56 69.007" fill-opacity=".6"/><path d="M163.118 75.643c0 38.111-36.515 69.007-81.559 69.007S0 113.754 0 75.643C0 37.532 36.516 6.636 81.56 6.636c45.044 0 81.56 30.896 81.56 69.007"/><path d="M173.544 48.87c-3.774-14.719-13.614-25.695-27.126-32.31-14.321-7.013-30.845-9.88-46.597-11.36-17.019-1.6-34.587-.338-50.333 6.75-13.543 6.096-25.059 16.42-30.971 30.206-6.009 14.013-6.136 30.123-2.178 44.703 4.464 16.434 14.059 31.433 30.077 38.446 4.062 1.778 8.296 2.926 12.68 3.559 3.751.541 6.67.653 9.442 3.736 1.373 1.528 2.276 3.738 3.438 5.443 5.032 7.383 11.572 13.553 19.154 18.258.976.606 2.002-.39 1.81-1.39-1.742-9.025-4.37-17.625-8.057-26.045-.36-.821-1.78-.232-1.462.617 2.821 7.517 5.049 15.22 6.589 23.093-5.684-3.995-10.738-8.732-14.843-14.397-3.583-4.946-5.244-10.388-11.873-11.423-7.319-1.144-13.759-2.271-20.312-6.028-7.358-4.219-13.146-10.377-17.34-17.715C10.508 76.528 12.78 39.797 38.658 20.97c25.975-18.9 62.585-16.034 91.923-7.664 13.063 3.726 26.262 10.012 34.098 21.584 9.31 13.747 10.495 33.127 5.84 48.737-5.132 17.222-18.414 30.489-35.152 36.656-15.803 5.824-33.033 5.992-49.664 5.87-1.644-.012-1.646 2.543 0 2.555 30.828.228 65.818-2.816 82.466-32.889 7.794-14.075 9.35-31.453 5.376-46.95"/></g></symbol><symbol viewBox="0 0 195 160" id="step-3" xmlns="http://www.w3.org/2000/svg"><g fill-rule="evenodd"><path d="M194.454 76.035c0 38.144-36.545 69.065-81.626 69.065s-81.627-30.921-81.627-69.065c0-38.143 36.546-69.063 81.627-69.063 45.081 0 81.626 30.92 81.626 69.063" fill-opacity=".6"/><path d="M164.093 82.677c0 38.143-36.545 69.064-81.626 69.064S.84 120.82.84 82.677c0-38.143 36.546-69.063 81.627-69.063 45.08 0 81.626 30.92 81.626 69.063"/><path d="M141.177 133.907c-.68.281-.914.941-.831 1.523a.57.57 0 0 0 .013.397 1305.031 1305.031 0 0 0 8.698 20.333c-3.245-1.44-6.374-3.1-9.339-5.084-3.442-2.303-6.264-5.564-9.785-7.692-2.551-1.542-5.018-1.517-7.912-1.246-4.747.444-9.467.904-14.238 1.052-17.945.558-38.194-.143-55.309-5.99-29.327-10.016-45.48-43.287-38.904-72.873C20.6 32.695 48.208 9.788 79.558 4.603c33.064-5.468 71.301 5.225 88.092 36.089 8.944 16.44 14.525 38.132 8.739 56.425-5.333 16.86-19.079 30.12-35.212 36.79m36.153-76.295c-4.597-15.49-12.913-30.4-26.016-40.239C137.258 6.82 118.79 1.948 101.445.99 67.918-.865 34.485 14.62 18.324 44.83 3.649 72.264 8.269 107.028 31.929 128.016c15.12 13.412 35.002 15.785 54.428 17.187 12.026.867 23.677.183 35.664-.558 4.584-.283 6.93.996 10.363 3.932a64.642 64.642 0 0 0 5.325 4.123c4.138 2.852 8.6 5.066 13.29 6.846 1.07.405 1.726-.907 1.34-1.743-3.33-7.216-6.71-14.402-10.166-21.557 13.94-5.841 25.996-16.06 33.007-29.58 8.035-15.493 7.002-32.706 2.15-49.053"/></g></symbol><symbol id="success_stories" viewBox="0 0 12 12" xmlns="http://www.w3.org/2000/svg"><style>.ccst0{fill:#9f9f9f}</style><g id="ccfinal"><g id="ccstyles" transform="translate(-688 -339)"><g id="ccadd_open" transform="translate(509 180)"><g id="ccopen" transform="translate(0 33)"><g id="ccblog_hover-copy-2" transform="translate(179 124)"><g id="ccGroup-2" transform="translate(0 2)"><path class="ccst0" d="M6 0C2.7 0 0 2.7 0 6s2.7 6 6 6 6-2.7 6-6-2.7-6-6-6zm0 10c-2.2 0-4-1.8-4-4s1.8-4 4-4 4 1.8 4 4-1.8 4-4 4z"/><circle id="ccOval-2_2_" class="ccst0" cx="6" cy="6" r="2"/></g></g></g></g></g></g></symbol><symbol id="unfriend" viewBox="0 0 13.6 2.2" xmlns="http://www.w3.org/2000/svg"><style>.cdst0{fill:#fff}</style><path class="cdst0" d="M12.5 0H1.1C.5 0 0 .5 0 1.1s.5 1.1 1.1 1.1h11.4c.6 0 1.1-.5 1.1-1.1S13.1 0 12.5 0z"/></symbol><symbol viewBox="0 0 9 12" id="user" xmlns="http://www.w3.org/2000/svg"><path d="M4.5 6C5.88 6 7 4.657 7 3s-.367-3-2.5-3C2.368 0 2 1.343 2 3s1.12 3 2.5 3zm4.495 4.203C8.951 7.335 8.587 6.517 5.805 6c0 0-.392.514-1.305.514C3.587 6.514 3.195 6 3.195 6 .443 6.512.058 7.317.007 10.11c-.004.227-.006.24-.007.213v.301S.663 12 4.5 12C8.337 12 9 10.624 9 10.624v-.223c0 .017-.002-.015-.005-.198z"/></symbol></svg>